<svg version="1.1" viewBox="0.0 0.0 600.0 371.0" fill="none" stroke="none" stroke-linecap="square" stroke-miterlimit="10" width="600" height="371" xmlns:xlink="http://www.w3.org/1999/xlink" xmlns="http://www.w3.org/2000/svg"><path fill="#ffffff" d="M0 0L600.0 0L600.0 371.0L0 371.0L0 0Z" fill-rule="nonzero"/><path stroke="#333333" stroke-width="1.0" stroke-linecap="butt" d="M84.5 88.5L84.5 300.5" fill-rule="nonzero"/><path stroke="#cccccc" stroke-width="1.0" stroke-linecap="butt" d="M175.5 88.5L175.5 300.5" fill-rule="nonzero"/><path stroke="#cccccc" stroke-width="1.0" stroke-linecap="butt" d="M265.5 88.5L265.5 300.5" fill-rule="nonzero"/><path stroke="#cccccc" stroke-width="1.0" stroke-linecap="butt" d="M356.5 88.5L356.5 300.5" fill-rule="nonzero"/><path stroke="#cccccc" stroke-width="1.0" stroke-linecap="butt" d="M447.5 88.5L447.5 300.5" fill-rule="nonzero"/><path stroke="#cccccc" stroke-width="1.0" stroke-linecap="butt" d="M538.5 88.5L538.5 300.5" fill-rule="nonzero"/><path stroke="#333333" stroke-width="1.0" stroke-linecap="butt" d="M77.5 300.5L581.5 300.5" fill-rule="nonzero"/><path stroke="#cccccc" stroke-width="1.0" stroke-linecap="butt" d="M77.5 229.5L581.5 229.5" fill-rule="nonzero"/><path stroke="#cccccc" stroke-width="1.0" stroke-linecap="butt" d="M77.5 159.5L581.5 159.5" fill-rule="nonzero"/><path stroke="#cccccc" stroke-width="1.0" stroke-linecap="butt" d="M77.5 88.5L581.5 88.5" fill-rule="nonzero"/><clipPath id="id_0"><path d="M77.55 88.28333L581.45 88.28333L581.45 300.45L77.55 300.45L77.55 88.28333Z" clip-rule="nonzero"/></clipPath><path stroke="#34a853" stroke-width="2.0" stroke-linecap="butt" clip-path="url(#id_0)" d="M84.36077 208.86472L175.15308 200.02444L265.94537 186.94083L356.7377 170.67473L447.53 151.2261L538.3223 122.58361L574.6392 93.94111" fill-rule="nonzero"/><path stroke="#ea4335" stroke-width="2.0" stroke-linecap="butt" clip-path="url(#id_0)" d="M84.36077 151.57973L175.15308 151.57973L265.94537 151.57973L356.7377 151.57973L447.53 151.57973L538.3223 151.57973L574.6392 151.57973" fill-rule="nonzero"/><path fill="#34a853" clip-path="url(#id_0)" d="M88.86077 208.86472C88.86077 211.35 86.846054 213.36472 84.36077 213.36472C81.875496 213.36472 79.86077 211.35 79.86077 208.86472C79.86077 206.37944 81.875496 204.36472 84.36077 204.36472C86.846054 204.36472 88.86077 206.37944 88.86077 208.86472Z" fill-rule="nonzero"/><path fill="#34a853" clip-path="url(#id_0)" d="M179.65308 200.02444C179.65308 202.50972 177.63837 204.52444 175.15308 204.52444C172.6678 204.52444 170.65308 202.50972 170.65308 200.02444C170.65308 197.53917 172.6678 195.52444 175.15308 195.52444C177.63837 195.52444 179.65308 197.53917 179.65308 200.02444Z" fill-rule="nonzero"/><path fill="#34a853" clip-path="url(#id_0)" d="M270.44537 186.94083C270.44537 189.42612 268.43066 191.44083 265.94537 191.44083C263.4601 191.44083 261.44537 189.42612 261.44537 186.94083C261.44537 184.45555 263.4601 182.44083 265.94537 182.44083C268.43066 182.44083 270.44537 184.45555 270.44537 186.94083Z" fill-rule="nonzero"/><path fill="#34a853" clip-path="url(#id_0)" d="M361.2377 170.67473C361.2377 173.16 359.22296 175.17473 356.7377 175.17473C354.2524 175.17473 352.2377 173.16 352.2377 170.67473C352.2377 168.18944 354.2524 166.17473 356.7377 166.17473C359.22296 166.17473 361.2377 168.18944 361.2377 170.67473Z" fill-rule="nonzero"/><path fill="#34a853" clip-path="url(#id_0)" d="M452.03 151.2261C452.03 153.7114 450.0153 155.7261 447.53 155.7261C445.0447 155.7261 443.03 153.7114 443.03 151.2261C443.03 148.74083 445.0447 146.7261 447.53 146.7261C450.0153 146.7261 452.03 148.74083 452.03 151.2261Z" fill-rule="nonzero"/><path fill="#34a853" clip-path="url(#id_0)" d="M542.8223 122.58361C542.8223 125.06889 540.80756 127.08361 538.3223 127.08361C535.83704 127.08361 533.8223 125.06889 533.8223 122.58361C533.8223 120.09833 535.83704 118.08361 538.3223 118.08361C540.80756 118.08361 542.8223 120.09833 542.8223 122.58361Z" fill-rule="nonzero"/><path fill="#34a853" clip-path="url(#id_0)" d="M579.1392 93.94111C579.1392 96.42639 577.1245 98.44111 574.6392 98.44111C572.15393 98.44111 570.1392 96.42639 570.1392 93.94111C570.1392 91.45583 572.15393 89.44111 574.6392 89.44111C577.1245 89.44111 579.1392 91.45583 579.1392 93.94111Z" fill-rule="nonzero"/><path fill="#000000" fill-opacity="0.0" clip-path="url(#id_0)" d="M87.36077 151.57973C87.36077 153.23657 86.01763 154.57973 84.36077 154.57973C82.70392 154.57973 81.36077 153.23657 81.36077 151.57973C81.36077 149.92287 82.70392 148.57973 84.36077 148.57973C86.01763 148.57973 87.36077 149.92287 87.36077 151.57973Z" fill-rule="nonzero"/><path fill="#000000" fill-opacity="0.0" clip-path="url(#id_0)" d="M178.15308 151.57973C178.15308 153.23657 176.80994 154.57973 175.15308 154.57973C173.49623 154.57973 172.15308 153.23657 172.15308 151.57973C172.15308 149.92287 173.49623 148.57973 175.15308 148.57973C176.80994 148.57973 178.15308 149.92287 178.15308 151.57973Z" fill-rule="nonzero"/><path fill="#000000" fill-opacity="0.0" clip-path="url(#id_0)" d="M268.94537 151.57973C268.94537 153.23657 267.60223 154.57973 265.94537 154.57973C264.28854 154.57973 262.94537 153.23657 262.94537 151.57973C262.94537 149.92287 264.28854 148.57973 265.94537 148.57973C267.60223 148.57973 268.94537 149.92287 268.94537 151.57973Z" fill-rule="nonzero"/><path fill="#000000" fill-opacity="0.0" clip-path="url(#id_0)" d="M359.7377 151.57973C359.7377 153.23657 358.39453 154.57973 356.7377 154.57973C355.08084 154.57973 353.7377 153.23657 353.7377 151.57973C353.7377 149.92287 355.08084 148.57973 356.7377 148.57973C358.39453 148.57973 359.7377 149.92287 359.7377 151.57973Z" fill-rule="nonzero"/><path fill="#000000" fill-opacity="0.0" clip-path="url(#id_0)" d="M450.53 151.57973C450.53 153.23657 449.18686 154.57973 447.53 154.57973C445.87314 154.57973 444.53 153.23657 444.53 151.57973C444.53 149.92287 445.87314 148.57973 447.53 148.57973C449.18686 148.57973 450.53 149.92287 450.53 151.57973Z" fill-rule="nonzero"/><path fill="#000000" fill-opacity="0.0" clip-path="url(#id_0)" d="M541.3223 151.57973C541.3223 153.23657 539.9792 154.57973 538.3223 154.57973C536.66547 154.57973 535.3223 153.23657 535.3223 151.57973C535.3223 149.92287 536.66547 148.57973 538.3223 148.57973C539.9792 148.57973 541.3223 149.92287 541.3223 151.57973Z" fill-rule="nonzero"/><path fill="#000000" fill-opacity="0.0" clip-path="url(#id_0)" d="M577.6392 151.57973C577.6392 153.23657 576.2961 154.57973 574.6392 154.57973C572.98236 154.57973 571.6392 153.23657 571.6392 151.57973C571.6392 149.92287 572.98236 148.57973 574.6392 148.57973C576.2961 148.57973 577.6392 149.92287 577.6392 151.57973Z" fill-rule="nonzero"/><path fill="#000000" d="M299.26562 349.45L299.26562 340.85626L300.32812 340.85626L300.32812 349.45L299.26562 349.45ZM306.35938 348.6844Q305.76562 349.1844 305.21875 349.3875Q304.6875 349.59064 304.0625 349.59064Q303.03125 349.59064 302.48438 349.09064Q301.9375 348.59064 301.9375 347.8094Q301.9375 347.35626 302.14062 346.98126Q302.34375 346.59064 302.6875 346.3719Q303.03125 346.1375 303.45312 346.02814Q303.75 345.9344 304.39062 345.85626Q305.65625 345.71564 306.26562 345.4969Q306.26562 345.27814 306.26562 345.23126Q306.26562 344.575 305.96875 344.3094Q305.5625 343.96564 304.76562 343.96564Q304.03125 343.96564 303.67188 344.23126Q303.3125 344.48126 303.14062 345.1375L302.10938 344.9969Q302.25 344.34064 302.57812 343.9344Q302.90625 343.52814 303.51562 343.3094Q304.125 343.09064 304.92188 343.09064Q305.71875 343.09064 306.21875 343.27814Q306.71875 343.46564 306.95312 343.7469Q307.1875 344.02814 307.28125 344.46564Q307.32812 344.73126 307.32812 345.4344L307.32812 346.84064Q307.32812 348.3094 307.39062 348.7Q307.46875 349.09064 307.67188 349.45L306.5625 349.45Q306.40625 349.1219 306.35938 348.6844ZM306.26562 346.325Q305.6875 346.5594 304.54688 346.73126Q303.89062 346.825 303.625 346.95Q303.35938 347.0594 303.20312 347.27814Q303.0625 347.4969 303.0625 347.77814Q303.0625 348.2 303.375 348.48126Q303.70312 348.7625 304.3125 348.7625Q304.92188 348.7625 305.39062 348.4969Q305.875 348.23126 306.09375 347.7625Q306.26562 347.40314 306.26562 346.71564L306.26562 346.325ZM309.25 351.84064L309.125 350.85626Q309.46875 350.95 309.73438 350.95Q310.07812 350.95 310.28125 350.825Q310.5 350.71564 310.64062 350.5125Q310.73438 350.34064 310.96875 349.71564Q310.98438 349.6375 311.0625 349.46564L308.6875 343.23126L309.82812 343.23126L311.125 346.825Q311.375 347.5125 311.57812 348.27814Q311.76562 347.54376 312.01562 346.85626L313.34375 343.23126L314.39062 343.23126L312.03125 349.5594Q311.64062 350.575 311.4375 350.96564Q311.15625 351.4969 310.78125 351.73126Q310.42188 351.98126 309.92188 351.98126Q309.625 351.98126 309.25 351.84064ZM318.54688 347.45L319.64062 347.575Q319.39062 348.52814 318.6875 349.0594Q317.98438 349.59064 316.90625 349.59064Q315.54688 349.59064 314.73438 348.7469Q313.9375 347.90314 313.9375 346.3875Q313.9375 344.825 314.75 343.96564Q315.5625 343.09064 316.84375 343.09064Q318.09375 343.09064 318.875 343.9344Q319.67188 344.77814 319.67188 346.325Q319.67188 346.41876 319.67188 346.60626L315.03125 346.60626Q315.09375 347.6375 315.60938 348.1844Q316.125 348.71564 316.90625 348.71564Q317.48438 348.71564 317.89062 348.41876Q318.3125 348.10626 318.54688 347.45ZM315.09375 345.7469L318.5625 345.7469Q318.5 344.95 318.17188 344.5594Q317.65625 343.95 316.85938 343.95Q316.125 343.95 315.625 344.4344Q315.14062 344.91876 315.09375 345.7469ZM321.28125 349.45L321.28125 343.23126L322.23438 343.23126L322.23438 344.16876Q322.59375 343.5125 322.89062 343.3094Q323.20312 343.09064 323.57812 343.09064Q324.10938 343.09064 324.65625 343.41876L324.29688 344.40314Q323.90625 344.16876 323.53125 344.16876Q323.17188 344.16876 322.89062 344.3875Q322.625 344.59064 322.51562 344.96564Q322.32812 345.52814 322.32812 346.1844L322.32812 349.45L321.28125 349.45ZM324.875 347.59064L325.90625 347.4344Q326.0 348.0594 326.39062 348.3875Q326.79688 348.71564 327.53125 348.71564Q328.25 348.71564 328.59375 348.4344Q328.95312 348.1375 328.95312 347.73126Q328.95312 347.3719 328.64062 347.16876Q328.42188 347.02814 327.5625 346.8094Q326.40625 346.5125 325.95312 346.3094Q325.51562 346.09064 325.28125 345.71564Q325.04688 345.34064 325.04688 344.8719Q325.04688 344.46564 325.23438 344.10626Q325.42188 343.7469 325.75 343.5125Q326.0 343.34064 326.42188 343.21564Q326.84375 343.09064 327.34375 343.09064Q328.0625 343.09064 328.60938 343.3094Q329.17188 343.5125 329.4375 343.8719Q329.70312 344.23126 329.79688 344.825L328.76562 344.96564Q328.70312 344.4969 328.35938 344.23126Q328.03125 343.95 327.40625 343.95Q326.6875 343.95 326.375 344.2Q326.0625 344.4344 326.0625 344.7625Q326.0625 344.96564 326.1875 345.1219Q326.32812 345.29376 326.59375 345.40314Q326.75 345.46564 327.53125 345.66876Q328.65625 345.98126 329.09375 346.16876Q329.53125 346.35626 329.78125 346.71564Q330.03125 347.075 330.03125 347.6219Q330.03125 348.15314 329.71875 348.6219Q329.42188 349.075 328.84375 349.34064Q328.26562 349.59064 327.53125 349.59064Q326.3125 349.59064 325.67188 349.09064Q325.04688 348.575 324.875 347.59064ZM339.45312 346.075L339.45312 345.075L343.07812 345.0594L343.07812 348.2469Q342.25 348.91876 341.35938 349.2625Q340.46875 349.59064 339.53125 349.59064Q338.26562 349.59064 337.21875 349.0594Q336.1875 348.5125 335.65625 347.4969Q335.14062 346.46564 335.14062 345.2Q335.14062 343.9344 335.65625 342.85626Q336.1875 341.7625 337.17188 341.2469Q338.15625 340.71564 339.4375 340.71564Q340.375 340.71564 341.125 341.0125Q341.875 341.3094 342.29688 341.85626Q342.73438 342.3875 342.95312 343.2625L341.9375 343.54376Q341.73438 342.8875 341.4375 342.5125Q341.15625 342.1375 340.625 341.91876Q340.09375 341.6844 339.45312 341.6844Q338.67188 341.6844 338.09375 341.91876Q337.53125 342.15314 337.17188 342.54376Q336.82812 342.9344 336.64062 343.40314Q336.3125 344.2 336.3125 345.1219Q336.3125 346.27814 336.70312 347.0594Q337.10938 347.825 337.85938 348.2Q338.60938 348.575 339.46875 348.575Q340.20312 348.575 340.90625 348.29376Q341.60938 347.9969 341.96875 347.6844L341.96875 346.075L339.45312 346.075ZM344.42188 349.45L344.42188 340.85626L347.67188 340.85626Q348.51562 340.85626 348.96875 340.9344Q349.60938 341.04376 350.03125 341.34064Q350.46875 341.6375 350.71875 342.16876Q350.98438 342.7 350.98438 343.34064Q350.98438 344.4344 350.28125 345.2Q349.59375 345.95 347.76562 345.95L345.5625 345.95L345.5625 349.45L344.42188 349.45ZM345.5625 344.95L347.78125 344.95Q348.89062 344.95 349.34375 344.54376Q349.8125 344.1219 349.8125 343.3719Q349.8125 342.84064 349.53125 342.46564Q349.26562 342.075 348.82812 341.95Q348.53125 341.8719 347.76562 341.8719L345.5625 341.8719L345.5625 344.95ZM358.0625 340.85626L359.20312 340.85626L359.20312 345.825Q359.20312 347.1219 358.90625 347.8875Q358.60938 348.6375 357.84375 349.1219Q357.07812 349.59064 355.84375 349.59064Q354.64062 349.59064 353.85938 349.1844Q353.09375 348.7625 352.76562 347.98126Q352.4375 347.1844 352.4375 345.825L352.4375 340.85626L353.57812 340.85626L353.57812 345.8094Q353.57812 346.9344 353.78125 347.46564Q354.0 347.9969 354.5 348.29376Q355.01562 348.575 355.75 348.575Q357.0 348.575 357.53125 348.0125Q358.0625 347.4344 358.0625 345.8094L358.0625 340.85626Z" fill-rule="nonzero"/><path fill="#000000" d="M28.612513 243.77292L29.534388 243.61667Q29.628138 244.0698 29.628138 244.41354Q29.628138 244.99167 29.456263 245.30417Q29.268763 245.61667 28.971888 245.7573Q28.675013 245.8823 27.721888 245.8823L24.143763 245.8823L24.143763 246.64792L23.331263 246.64792L23.331263 245.8823L21.784388 245.8823L21.159388 244.83542L23.331263 244.83542L23.331263 243.77292L24.143763 243.77292L24.143763 244.83542L27.784388 244.83542Q28.237513 244.83542 28.362513 244.78854Q28.487513 244.72604 28.565638 244.60104Q28.643763 244.47604 28.643763 244.24167Q28.643763 244.05417 28.612513 243.77292ZM26.440638 243.46042Q24.706263 243.46042 23.878138 242.5073Q23.190638 241.71042 23.190638 240.55417Q23.190638 239.27292 24.034388 238.46042Q24.862513 237.6323 26.346888 237.6323Q27.550013 237.6323 28.237513 237.99167Q28.925013 238.35104 29.315638 239.05417Q29.690638 239.74167 29.690638 240.55417Q29.690638 241.85104 28.862513 242.66354Q28.018763 243.46042 26.440638 243.46042ZM26.440638 242.3823Q27.628138 242.3823 28.221888 241.86667Q28.815638 241.33542 28.815638 240.55417Q28.815638 239.7573 28.221888 239.24167Q27.628138 238.72604 26.409388 238.72604Q25.253138 238.72604 24.659388 239.2573Q24.065638 239.77292 24.065638 240.55417Q24.065638 241.33542 24.659388 241.86667Q25.237513 242.3823 26.440638 242.3823ZM29.550013 236.0698L20.956263 236.0698L20.956263 235.0073L25.862513 235.0073L23.331263 232.52292L23.331263 231.14792L25.628138 233.53854L29.550013 230.91354L29.550013 232.21042L26.362513 234.27292L27.081263 235.0073L29.550013 235.0073L29.550013 236.0698ZM27.550013 225.8198L27.675013 224.72604Q28.628138 224.97604 29.159388 225.67917Q29.690638 226.3823 29.690638 227.46042Q29.690638 228.8198 28.846888 229.6323Q28.003138 230.42917 26.487513 230.42917Q24.925013 230.42917 24.065638 229.61667Q23.190638 228.80417 23.190638 227.52292Q23.190638 226.27292 24.034388 225.49167Q24.878138 224.6948 26.425013 224.6948Q26.518763 224.6948 26.706263 224.6948L26.706263 229.33542Q27.737513 229.27292 28.284388 228.7573Q28.815638 228.24167 28.815638 227.46042Q28.815638 226.8823 28.518763 226.47604Q28.206263 226.05417 27.550013 225.8198ZM25.846888 229.27292L25.846888 225.80417Q25.050013 225.86667 24.659388 226.1948Q24.050013 226.71042 24.050013 227.5073Q24.050013 228.24167 24.534388 228.74167Q25.018763 229.22604 25.846888 229.27292ZM29.550013 223.0698L23.331263 223.0698L23.331263 222.1323L24.206263 222.1323Q23.190638 221.4448 23.190638 220.14792Q23.190638 219.58542 23.393763 219.11667Q23.596888 218.6323 23.925013 218.39792Q24.253138 218.16354 24.690638 218.0698Q24.987513 218.02292 25.721888 218.02292L29.550013 218.02292L29.550013 219.0698L25.768763 219.0698Q25.112513 219.0698 24.800013 219.1948Q24.487513 219.3198 24.300013 219.6323Q24.096888 219.9448 24.096888 220.36667Q24.096888 221.03854 24.534388 221.53854Q24.956263 222.02292 26.143763 222.02292L29.550013 222.02292L29.550013 223.0698ZM30.065638 213.27292L30.221888 212.24167Q30.690638 212.17917 30.909388 211.8823Q31.206263 211.49167 31.206263 210.8198Q31.206263 210.08542 30.909388 209.6948Q30.612513 209.28854 30.096888 209.14792Q29.768763 209.05417 28.737513 209.0698Q29.550013 209.7573 29.550013 210.78854Q29.550013 212.0698 28.628138 212.77292Q27.690638 213.47604 26.409388 213.47604Q25.518763 213.47604 24.768763 213.16354Q24.003138 212.83542 23.596888 212.22604Q23.190638 211.61667 23.190638 210.78854Q23.190638 209.67917 24.081263 208.96042L23.331263 208.96042L23.331263 207.99167L28.706263 207.99167Q30.159388 207.99167 30.768763 208.28854Q31.378138 208.58542 31.721888 209.22604Q32.08126 209.86667 32.08126 210.80417Q32.08126 211.91354 31.581263 212.60104Q31.081263 213.28854 30.065638 213.27292ZM26.331263 212.39792Q27.550013 212.39792 28.112513 211.91354Q28.675013 211.42917 28.675013 210.6948Q28.675013 209.96042 28.112513 209.47604Q27.550013 208.97604 26.362513 208.97604Q25.221888 208.97604 24.643763 209.49167Q24.065638 209.99167 24.065638 210.71042Q24.065638 211.41354 24.643763 211.91354Q25.206263 212.39792 26.331263 212.39792ZM27.550013 201.8198L27.675013 200.72604Q28.628138 200.97604 29.159388 201.67917Q29.690638 202.3823 29.690638 203.46042Q29.690638 204.8198 28.846888 205.6323Q28.003138 206.42917 26.487513 206.42917Q24.925013 206.42917 24.065638 205.61667Q23.190638 204.80417 23.190638 203.52292Q23.190638 202.27292 24.034388 201.49167Q24.878138 200.6948 26.425013 200.6948Q26.518763 200.6948 26.706263 200.6948L26.706263 205.33542Q27.737513 205.27292 28.284388 204.7573Q28.815638 204.24167 28.815638 203.46042Q28.815638 202.8823 28.518763 202.47604Q28.206263 202.05417 27.550013 201.8198ZM25.846888 205.27292L25.846888 201.80417Q25.050013 201.86667 24.659388 202.1948Q24.050013 202.71042 24.050013 203.5073Q24.050013 204.24167 24.534388 204.74167Q25.018763 205.22604 25.846888 205.27292ZM29.550013 199.0698L23.331263 199.0698L23.331263 198.1323L24.206263 198.1323Q23.190638 197.4448 23.190638 196.14792Q23.190638 195.58542 23.393763 195.11667Q23.596888 194.6323 23.925013 194.39792Q24.253138 194.16354 24.690638 194.0698Q24.987513 194.02292 25.721888 194.02292L29.550013 194.02292L29.550013 195.0698L25.768763 195.0698Q25.112513 195.0698 24.800013 195.1948Q24.487513 195.3198 24.300013 195.6323Q24.096888 195.9448 24.096888 196.36667Q24.096888 197.03854 24.534388 197.53854Q24.956263 198.02292 26.143763 198.02292L29.550013 198.02292L29.550013 199.0698ZM27.550013 187.8198L27.675013 186.72604Q28.628138 186.97604 29.159388 187.67917Q29.690638 188.3823 29.690638 189.46042Q29.690638 190.8198 28.846888 191.6323Q28.003138 192.42917 26.487513 192.42917Q24.925013 192.42917 24.065638 191.61667Q23.190638 190.80417 23.190638 189.52292Q23.190638 188.27292 24.034388 187.49167Q24.878138 186.6948 26.425013 186.6948Q26.518763 186.6948 26.706263 186.6948L26.706263 191.33542Q27.737513 191.27292 28.284388 190.7573Q28.815638 190.24167 28.815638 189.46042Q28.815638 188.8823 28.518763 188.47604Q28.206263 188.05417 27.550013 187.8198ZM25.846888 191.27292L25.846888 187.80417Q25.050013 187.86667 24.659388 188.1948Q24.050013 188.71042 24.050013 189.5073Q24.050013 190.24167 24.534388 190.74167Q25.018763 191.22604 25.846888 191.27292ZM29.550013 185.08542L23.331263 185.08542L23.331263 184.1323L24.268763 184.1323Q23.612513 183.77292 23.409388 183.47604Q23.190638 183.16354 23.190638 182.78854Q23.190638 182.2573 23.518763 181.71042L24.503138 182.0698Q24.268763 182.46042 24.268763 182.83542Q24.268763 183.1948 24.487513 183.47604Q24.690638 183.74167 25.065638 183.85104Q25.628138 184.03854 26.284388 184.03854L29.550013 184.03854L29.550013 185.08542ZM28.784388 177.0073Q29.284388 177.60104 29.487513 178.14792Q29.690638 178.67917 29.690638 179.30417Q29.690638 180.33542 29.190638 180.8823Q28.690638 181.42917 27.909388 181.42917Q27.456263 181.42917 27.081263 181.22604Q26.690638 181.02292 26.471888 180.67917Q26.237513 180.33542 26.128138 179.91354Q26.034388 179.61667 25.956263 178.97604Q25.815638 177.71042 25.596888 177.10104Q25.378138 177.10104 25.331263 177.10104Q24.675013 177.10104 24.409388 177.39792Q24.065638 177.80417 24.065638 178.60104Q24.065638 179.33542 24.331263 179.6948Q24.581263 180.05417 25.237513 180.22604L25.096888 181.2573Q24.440638 181.11667 24.034388 180.78854Q23.628138 180.46042 23.409388 179.85104Q23.190638 179.24167 23.190638 178.4448Q23.190638 177.64792 23.378138 177.14792Q23.565638 176.64792 23.846888 176.41354Q24.128138 176.17917 24.565638 176.08542Q24.831263 176.03854 25.534388 176.03854L26.940638 176.03854Q28.409388 176.03854 28.800013 175.97604Q29.190638 175.89792 29.550013 175.6948L29.550013 176.80417Q29.221888 176.96042 28.784388 177.0073ZM26.425013 177.10104Q26.659388 177.67917 26.831263 178.8198Q26.925013 179.47604 27.050013 179.74167Q27.159388 180.0073 27.378138 180.16354Q27.596888 180.30417 27.878138 180.30417Q28.300013 180.30417 28.581263 179.99167Q28.862513 179.66354 28.862513 179.05417Q28.862513 178.4448 28.596888 177.97604Q28.331263 177.49167 27.862513 177.27292Q27.503138 177.10104 26.815638 177.10104L26.425013 177.10104ZM28.612513 171.77292L29.534388 171.61667Q29.628138 172.0698 29.628138 172.41354Q29.628138 172.99167 29.456263 173.30417Q29.268763 173.61667 28.971888 173.7573Q28.675013 173.8823 27.721888 173.8823L24.143763 173.8823L24.143763 174.64792L23.331263 174.64792L23.331263 173.8823L21.784388 173.8823L21.159388 172.83542L23.331263 172.83542L23.331263 171.77292L24.143763 171.77292L24.143763 172.83542L27.784388 172.83542Q28.237513 172.83542 28.362513 172.78854Q28.487513 172.72604 28.565638 172.60104Q28.643763 172.47604 28.643763 172.24167Q28.643763 172.05417 28.612513 171.77292ZM22.175013 171.0698L20.956263 171.0698L20.956263 170.0073L22.175013 170.0073L22.175013 171.0698ZM29.550013 171.0698L23.331263 171.0698L23.331263 170.0073L29.550013 170.0073L29.550013 171.0698ZM26.440638 168.46042Q24.706263 168.46042 23.878138 167.5073Q23.190638 166.71042 23.190638 165.55417Q23.190638 164.27292 24.034388 163.46042Q24.862513 162.6323 26.346888 162.6323Q27.550013 162.6323 28.237513 162.99167Q28.925013 163.35104 29.315638 164.05417Q29.690638 164.74167 29.690638 165.55417Q29.690638 166.85104 28.862513 167.66354Q28.018763 168.46042 26.440638 168.46042ZM26.440638 167.3823Q27.628138 167.3823 28.221888 166.86667Q28.815638 166.33542 28.815638 165.55417Q28.815638 164.7573 28.221888 164.24167Q27.628138 163.72604 26.409388 163.72604Q25.253138 163.72604 24.659388 164.2573Q24.065638 164.77292 24.065638 165.55417Q24.065638 166.33542 24.659388 166.86667Q25.237513 167.3823 26.440638 167.3823ZM29.550013 161.0698L23.331263 161.0698L23.331263 160.1323L24.206263 160.1323Q23.190638 159.4448 23.190638 158.14792Q23.190638 157.58542 23.393763 157.11667Q23.596888 156.6323 23.925013 156.39792Q24.253138 156.16354 24.690638 156.0698Q24.987513 156.02292 25.721888 156.02292L29.550013 156.02292L29.550013 157.0698L25.768763 157.0698Q25.112513 157.0698 24.800013 157.1948Q24.487513 157.3198 24.300013 157.6323Q24.096888 157.9448 24.096888 158.36667Q24.096888 159.03854 24.534388 159.53854Q24.956263 160.02292 26.143763 160.02292L29.550013 160.02292L29.550013 161.0698Z" fill-rule="nonzero"/><path fill="#000000" d="M65.05 300.21564Q65.05 298.6844 65.3625 297.7625Q65.675 296.825 66.28438 296.325Q66.90938 295.825 67.84688 295.825Q68.53438 295.825 69.05 296.10626Q69.58125 296.3875 69.925 296.91876Q70.26875 297.4344 70.45625 298.1844Q70.64375 298.9344 70.64375 300.21564Q70.64375 301.73126 70.33125 302.65314Q70.03438 303.575 69.40938 304.09064Q68.8 304.59064 67.84688 304.59064Q66.6125 304.59064 65.89375 303.7Q65.05 302.6375 65.05 300.21564ZM66.12813 300.21564Q66.12813 302.325 66.62813 303.02814Q67.12813 303.73126 67.84688 303.73126Q68.58125 303.73126 69.06563 303.02814Q69.56563 302.325 69.56563 300.21564Q69.56563 298.09064 69.06563 297.40314Q68.58125 296.7 67.83125 296.7Q67.1125 296.7 66.675 297.3094Q66.12813 298.09064 66.12813 300.21564Z" fill-rule="nonzero"/><path fill="#000000" d="M70.59688 232.71216L70.59688 233.72778L64.90938 233.72778Q64.90938 233.35278 65.03438 232.99341Q65.25313 232.41528 65.72188 231.85278Q66.20625 231.29028 67.1125 230.55591Q68.51875 229.39966 69.00313 228.72778Q69.50313 228.05591 69.50313 227.46216Q69.50313 226.83716 69.05 226.41528Q68.59688 225.97778 67.87813 225.97778Q67.1125 225.97778 66.65938 226.43091Q66.20625 226.88403 66.19063 227.69653L65.1125 227.58716Q65.22188 226.36841 65.94063 225.74341Q66.675 225.10278 67.90938 225.10278Q69.14375 225.10278 69.8625 225.79028Q70.58125 226.47778 70.58125 227.49341Q70.58125 228.00903 70.3625 228.50903Q70.15938 228.99341 69.65938 229.55591Q69.175 230.10278 68.05 231.05591Q67.09688 231.85278 66.81563 232.14966Q66.55 232.43091 66.37813 232.71216L70.59688 232.71216Z" fill-rule="nonzero"/><path fill="#000000" d="M68.425 163.00555L68.425 160.94305L64.70625 160.94305L64.70625 159.9743L68.62813 154.4118L69.4875 154.4118L69.4875 159.9743L70.64375 159.9743L70.64375 160.94305L69.4875 160.94305L69.4875 163.00555L68.425 163.00555ZM68.425 159.9743L68.425 156.11493L65.7375 159.9743L68.425 159.9743Z" fill-rule="nonzero"/><path fill="#000000" d="M70.51875 85.79896L69.47188 85.87708Q69.33125 85.25208 69.08125 84.97083Q68.64375 84.51771 68.01875 84.51771Q67.51875 84.51771 67.12813 84.79896Q66.64375 85.17396 66.34688 85.87708Q66.06563 86.56458 66.05 87.84583Q66.425 87.26771 66.97188 86.98646Q67.53438 86.70521 68.14375 86.70521Q69.19063 86.70521 69.925 87.48646Q70.675 88.26771 70.675 89.48646Q70.675 90.29896 70.31563 91.00208Q69.97188 91.68958 69.3625 92.06458Q68.75313 92.42396 67.9875 92.42396Q66.65938 92.42396 65.83125 91.45521Q65.00313 90.48646 65.00313 88.26771Q65.00313 85.76771 65.925 84.64271Q66.72188 83.65833 68.08125 83.65833Q69.09688 83.65833 69.7375 84.23646Q70.39375 84.79896 70.51875 85.79896ZM66.22188 89.50208Q66.22188 90.04896 66.44063 90.54896Q66.675 91.03333 67.08125 91.29896Q67.50313 91.56458 67.97188 91.56458Q68.62813 91.56458 69.1125 91.03333Q69.59688 90.48646 69.59688 89.56458Q69.59688 88.67396 69.1125 88.15833Q68.64375 87.64271 67.925 87.64271Q67.20625 87.64271 66.70625 88.15833Q66.22188 88.67396 66.22188 89.50208Z" fill-rule="nonzero"/><path fill="#000000" d="M81.36077 313.21564Q81.36077 311.6844 81.67327 310.7625Q81.98577 309.825 82.595146 309.325Q83.220146 308.825 84.157646 308.825Q84.845146 308.825 85.36077 309.10626Q85.89202 309.3875 86.23577 309.91876Q86.57952 310.4344 86.76702 311.1844Q86.95452 311.9344 86.95452 313.21564Q86.95452 314.73126 86.64202 315.65314Q86.345146 316.575 85.720146 317.09064Q85.11077 317.59064 84.157646 317.59064Q82.92327 317.59064 82.20452 316.7Q81.36077 315.6375 81.36077 313.21564ZM82.438896 313.21564Q82.438896 315.325 82.938896 316.02814Q83.438896 316.73126 84.157646 316.73126Q84.89202 316.73126 85.376396 316.02814Q85.876396 315.325 85.876396 313.21564Q85.876396 311.09064 85.376396 310.40314Q84.89202 309.7 84.14202 309.7Q83.42327 309.7 82.98577 310.3094Q82.438896 311.09064 82.438896 313.21564Z" fill-rule="nonzero"/><path fill="#000000" d="M172.15308 315.2L173.26245 315.10626Q173.38745 315.91876 173.82495 316.325Q174.27808 316.73126 174.9187 316.73126Q175.6687 316.73126 176.19995 316.15314Q176.7312 315.575 176.7312 314.6375Q176.7312 313.73126 176.21558 313.21564Q175.71558 312.6844 174.88745 312.6844Q174.38745 312.6844 173.96558 312.91876Q173.55933 313.15314 173.32495 313.5125L172.34058 313.3875L173.1687 308.98126L177.44995 308.98126L177.44995 309.98126L174.01245 309.98126L173.55933 312.29376Q174.32495 311.7469 175.1687 311.7469Q176.2937 311.7469 177.05933 312.52814Q177.84058 313.3094 177.84058 314.54376Q177.84058 315.7 177.1687 316.5594Q176.34058 317.59064 174.9187 317.59064Q173.74683 317.59064 172.99683 316.9344Q172.26245 316.27814 172.15308 315.2Z" fill-rule="nonzero"/><path fill="#000000" d="M263.41412 317.45L262.36725 317.45L262.36725 310.73126Q261.97662 311.09064 261.35162 311.46564Q260.74225 311.825 260.25787 311.9969L260.25787 310.98126Q261.13287 310.5594 261.78912 309.98126Q262.461 309.3875 262.74225 308.825L263.41412 308.825L263.41412 317.45ZM266.44537 313.21564Q266.44537 311.6844 266.75787 310.7625Q267.07037 309.825 267.67975 309.325Q268.30475 308.825 269.24225 308.825Q269.92975 308.825 270.44537 309.10626Q270.97662 309.3875 271.32037 309.91876Q271.66412 310.4344 271.85162 311.1844Q272.03912 311.9344 272.03912 313.21564Q272.03912 314.73126 271.72662 315.65314Q271.42975 316.575 270.80475 317.09064Q270.19537 317.59064 269.24225 317.59064Q268.00787 317.59064 267.28912 316.7Q266.44537 315.6375 266.44537 313.21564ZM267.5235 313.21564Q267.5235 315.325 268.0235 316.02814Q268.5235 316.73126 269.24225 316.73126Q269.97662 316.73126 270.461 316.02814Q270.961 315.325 270.961 313.21564Q270.961 311.09064 270.461 310.40314Q269.97662 309.7 269.22662 309.7Q268.50787 309.7 268.07037 310.3094Q267.5235 311.09064 267.5235 313.21564Z" fill-rule="nonzero"/><path fill="#000000" d="M354.20645 317.45L353.15958 317.45L353.15958 310.73126Q352.76895 311.09064 352.14395 311.46564Q351.53458 311.825 351.0502 311.9969L351.0502 310.98126Q351.9252 310.5594 352.58145 309.98126Q353.25333 309.3875 353.53458 308.825L354.20645 308.825L354.20645 317.45ZM357.2377 315.2L358.34708 315.10626Q358.47208 315.91876 358.90958 316.325Q359.3627 316.73126 360.00333 316.73126Q360.75333 316.73126 361.28458 316.15314Q361.81583 315.575 361.81583 314.6375Q361.81583 313.73126 361.3002 313.21564Q360.8002 312.6844 359.97208 312.6844Q359.47208 312.6844 359.0502 312.91876Q358.64395 313.15314 358.40958 313.5125L357.4252 313.3875L358.25333 308.98126L362.53458 308.98126L362.53458 309.98126L359.09708 309.98126L358.64395 312.29376Q359.40958 311.7469 360.25333 311.7469Q361.37833 311.7469 362.14395 312.52814Q362.9252 313.3094 362.9252 314.54376Q362.9252 315.7 362.25333 316.5594Q361.4252 317.59064 360.00333 317.59064Q358.83145 317.59064 358.08145 316.9344Q357.34708 316.27814 357.2377 315.2Z" fill-rule="nonzero"/><path fill="#000000" d="M446.57687 316.4344L446.57687 317.45L440.88937 317.45Q440.88937 317.075 441.01437 316.71564Q441.23312 316.1375 441.70187 315.575Q442.18625 315.0125 443.0925 314.27814Q444.49875 313.1219 444.98312 312.45Q445.48312 311.77814 445.48312 311.1844Q445.48312 310.5594 445.03 310.1375Q444.57687 309.7 443.85812 309.7Q443.0925 309.7 442.63937 310.15314Q442.18625 310.60626 442.17062 311.41876L441.0925 311.3094Q441.20187 310.09064 441.92062 309.46564Q442.655 308.825 443.88937 308.825Q445.12375 308.825 445.8425 309.5125Q446.56125 310.2 446.56125 311.21564Q446.56125 311.73126 446.3425 312.23126Q446.13937 312.71564 445.63937 313.27814Q445.155 313.825 444.03 314.77814Q443.07687 315.575 442.79562 315.8719Q442.53 316.15314 442.35812 316.4344L446.57687 316.4344ZM448.03 313.21564Q448.03 311.6844 448.3425 310.7625Q448.655 309.825 449.26437 309.325Q449.88937 308.825 450.82687 308.825Q451.51437 308.825 452.03 309.10626Q452.56125 309.3875 452.905 309.91876Q453.24875 310.4344 453.43625 311.1844Q453.62375 311.9344 453.62375 313.21564Q453.62375 314.73126 453.31125 315.65314Q453.01437 316.575 452.38937 317.09064Q451.78 317.59064 450.82687 317.59064Q449.5925 317.59064 448.87375 316.7Q448.03 315.6375 448.03 313.21564ZM449.10812 313.21564Q449.10812 315.325 449.60812 316.02814Q450.10812 316.73126 450.82687 316.73126Q451.56125 316.73126 452.04562 316.02814Q452.54562 315.325 452.54562 313.21564Q452.54562 311.09064 452.04562 310.40314Q451.56125 309.7 450.81125 309.7Q450.0925 309.7 449.655 310.3094Q449.10812 311.09064 449.10812 313.21564Z" fill-rule="nonzero"/><path fill="#000000" d="M537.3692 316.4344L537.3692 317.45L531.6817 317.45Q531.6817 317.075 531.8067 316.71564Q532.02545 316.1375 532.4942 315.575Q532.9786 315.0125 533.8848 314.27814Q535.2911 313.1219 535.77545 312.45Q536.27545 311.77814 536.27545 311.1844Q536.27545 310.5594 535.8223 310.1375Q535.3692 309.7 534.65045 309.7Q533.8848 309.7 533.4317 310.15314Q532.9786 310.60626 532.96295 311.41876L531.8848 311.3094Q531.9942 310.09064 532.71295 309.46564Q533.4473 308.825 534.6817 308.825Q535.9161 308.825 536.6348 309.5125Q537.3536 310.2 537.3536 311.21564Q537.3536 311.73126 537.1348 312.23126Q536.9317 312.71564 536.4317 313.27814Q535.9473 313.825 534.8223 314.77814Q533.8692 315.575 533.58795 315.8719Q533.3223 316.15314 533.15045 316.4344L537.3692 316.4344ZM538.8223 315.2L539.9317 315.10626Q540.0567 315.91876 540.4942 316.325Q540.9473 316.73126 541.58795 316.73126Q542.33795 316.73126 542.8692 316.15314Q543.40045 315.575 543.40045 314.6375Q543.40045 313.73126 542.8848 313.21564Q542.3848 312.6844 541.5567 312.6844Q541.0567 312.6844 540.6348 312.91876Q540.2286 313.15314 539.9942 313.5125L539.0098 313.3875L539.83795 308.98126L544.1192 308.98126L544.1192 309.98126L540.6817 309.98126L540.2286 312.29376Q540.9942 311.7469 541.83795 311.7469Q542.96295 311.7469 543.7286 312.52814Q544.5098 313.3094 544.5098 314.54376Q544.5098 315.7 543.83795 316.5594Q543.0098 317.59064 541.58795 317.59064Q540.4161 317.59064 539.6661 316.9344Q538.9317 316.27814 538.8223 315.2Z" fill-rule="nonzero"/><path fill="#34a853" d="M258.0 61.916668C258.0 65.23038 255.3137 67.916664 252.0 67.916664C248.6863 67.916664 246.0 65.23038 246.0 61.916668C246.0 58.60296 248.6863 55.916668 252.0 55.916668C255.3137 55.916668 258.0 58.60296 258.0 61.916668Z" fill-rule="nonzero"/><path fill="#1a1a1a" d="M270.95312 62.541664L270.95312 61.541664L274.57812 61.52604L274.57812 64.71354Q273.75 65.385414 272.85938 65.729164Q271.96875 66.05729 271.03125 66.05729Q269.76562 66.05729 268.71875 65.52604Q267.6875 64.979164 267.15625 63.96354Q266.64062 62.93229 266.64062 61.666664Q266.64062 60.40104 267.15625 59.322914Q267.6875 58.229164 268.67188 57.71354Q269.65625 57.18229 270.9375 57.18229Q271.875 57.18229 272.625 57.479164Q273.375 57.77604 273.79688 58.322914Q274.23438 58.854164 274.45312 59.729164L273.4375 60.010414Q273.23438 59.354164 272.9375 58.979164Q272.65625 58.604164 272.125 58.385414Q271.59375 58.15104 270.95312 58.15104Q270.17188 58.15104 269.59375 58.385414Q269.03125 58.61979 268.67188 59.010414Q268.32812 59.40104 268.14062 59.86979Q267.8125 60.666664 267.8125 61.58854Q267.8125 62.74479 268.20312 63.52604Q268.60938 64.291664 269.35938 64.666664Q270.10938 65.041664 270.96875 65.041664Q271.70312 65.041664 272.40625 64.760414Q273.10938 64.46354 273.46875 64.15104L273.46875 62.541664L270.95312 62.541664ZM275.92188 65.916664L275.92188 57.322914L279.17188 57.322914Q280.01562 57.322914 280.46875 57.40104Q281.10938 57.510414 281.53125 57.80729Q281.96875 58.104164 282.21875 58.635414Q282.48438 59.166664 282.48438 59.80729Q282.48438 60.90104 281.78125 61.666664Q281.09375 62.416664 279.26562 62.416664L277.0625 62.416664L277.0625 65.916664L275.92188 65.916664ZM277.0625 61.416664L279.28125 61.416664Q280.39062 61.416664 280.84375 61.010414Q281.3125 60.58854 281.3125 59.83854Q281.3125 59.30729 281.03125 58.93229Q280.76562 58.541664 280.32812 58.416664Q280.03125 58.33854 279.26562 58.33854L277.0625 58.33854L277.0625 61.416664ZM289.5625 57.322914L290.70312 57.322914L290.70312 62.291664Q290.70312 63.58854 290.40625 64.354164Q290.10938 65.104164 289.34375 65.58854Q288.57812 66.05729 287.34375 66.05729Q286.14062 66.05729 285.35938 65.65104Q284.59375 65.229164 284.26562 64.447914Q283.9375 63.65104 283.9375 62.291664L283.9375 57.322914L285.07812 57.322914L285.07812 62.27604Q285.07812 63.40104 285.28125 63.93229Q285.5 64.46354 286.0 64.760414Q286.51562 65.041664 287.25 65.041664Q288.5 65.041664 289.03125 64.479164Q289.5625 63.90104 289.5625 62.27604L289.5625 57.322914Z" fill-rule="nonzero"/><path stroke="#ea4335" stroke-width="4.0" stroke-linecap="butt" d="M308.0 61.916668L320.0 61.916668" fill-rule="nonzero"/><path fill="#1a1a1a" d="M335.0625 62.90104L336.1875 63.197914Q335.82812 64.58854 334.90625 65.322914Q333.98438 66.05729 332.64062 66.05729Q331.25 66.05729 330.375 65.49479Q329.5 64.93229 329.04688 63.86979Q328.59375 62.791664 328.59375 61.55729Q328.59375 60.21354 329.10938 59.21354Q329.625 58.21354 330.5625 57.697914Q331.51562 57.18229 332.65625 57.18229Q333.9375 57.18229 334.8125 57.83854Q335.70312 58.49479 336.04688 59.68229L334.92188 59.947914Q334.625 59.010414 334.04688 58.58854Q333.48438 58.15104 332.625 58.15104Q331.64062 58.15104 330.96875 58.635414Q330.3125 59.104164 330.03125 59.90104Q329.76562 60.697914 329.76562 61.55729Q329.76562 62.65104 330.07812 63.46354Q330.40625 64.27604 331.07812 64.68229Q331.75 65.08854 332.54688 65.08854Q333.5 65.08854 334.15625 64.541664Q334.82812 63.99479 335.0625 62.90104ZM337.92188 65.916664L337.92188 57.322914L341.17188 57.322914Q342.01562 57.322914 342.46875 57.40104Q343.10938 57.510414 343.53125 57.80729Q343.96875 58.104164 344.21875 58.635414Q344.48438 59.166664 344.48438 59.80729Q344.48438 60.90104 343.78125 61.666664Q343.09375 62.416664 341.26562 62.416664L339.0625 62.416664L339.0625 65.916664L337.92188 65.916664ZM339.0625 61.416664L341.28125 61.416664Q342.39062 61.416664 342.84375 61.010414Q343.3125 60.58854 343.3125 59.83854Q343.3125 59.30729 343.03125 58.93229Q342.76562 58.541664 342.32812 58.416664Q342.03125 58.33854 341.26562 58.33854L339.0625 58.33854L339.0625 61.416664ZM351.5625 57.322914L352.70312 57.322914L352.70312 62.291664Q352.70312 63.58854 352.40625 64.354164Q352.10938 65.104164 351.34375 65.58854Q350.57812 66.05729 349.34375 66.05729Q348.14062 66.05729 347.35938 65.65104Q346.59375 65.229164 346.26562 64.447914Q345.9375 63.65104 345.9375 62.291664L345.9375 57.322914L347.07812 57.322914L347.07812 62.27604Q347.07812 63.40104 347.28125 63.93229Q347.5 64.46354 348.0 64.760414Q348.51562 65.041664 349.25 65.041664Q350.5 65.041664 351.03125 64.479164Q351.5625 63.90104 351.5625 62.27604L351.5625 57.322914Z" fill-rule="nonzero"/><path fill="#757575" d="M23.7375 37.55L23.7375 24.925L19.01875 24.925L19.01875 23.2375L30.3625 23.2375L30.3625 24.925L25.628124 24.925L25.628124 37.55L23.7375 37.55ZM31.221874 32.3625Q31.221874 29.4875 32.815624 28.096874Q34.159374 26.940624 36.08125 26.940624Q38.221874 26.940624 39.565624 28.346874Q40.925 29.753124 40.925 32.221874Q40.925 34.221874 40.33125 35.378124Q39.7375 36.51875 38.58125 37.159374Q37.440624 37.784374 36.08125 37.784374Q33.89375 37.784374 32.55 36.39375Q31.221874 34.9875 31.221874 32.3625ZM33.01875 32.3625Q33.01875 34.3625 33.878124 35.346874Q34.753124 36.33125 36.08125 36.33125Q37.39375 36.33125 38.253124 35.346874Q39.128124 34.346874 39.128124 32.3Q39.128124 30.378124 38.253124 29.39375Q37.378124 28.39375 36.08125 28.39375Q34.753124 28.39375 33.878124 29.39375Q33.01875 30.378124 33.01875 32.3625ZM42.878124 37.55L42.878124 23.2375L44.64375 23.2375L44.64375 31.39375L48.8 27.175L51.065624 27.175L47.1125 31.01875L51.471874 37.55L49.3 37.55L45.878124 32.253124L44.64375 33.440624L44.64375 37.55L42.878124 37.55ZM59.971874 34.20625L61.784374 34.440624Q61.3625 36.01875 60.190624 36.909374Q59.034374 37.784374 57.221874 37.784374Q54.95625 37.784374 53.6125 36.39375Q52.284374 34.9875 52.284374 32.45625Q52.284374 29.83125 53.628124 28.39375Q54.971874 26.940624 57.128124 26.940624Q59.20625 26.940624 60.51875 28.3625Q61.846874 29.76875 61.846874 32.346874Q61.846874 32.503124 61.83125 32.815624L54.096874 32.815624Q54.190624 34.51875 55.065624 35.425Q55.940624 36.33125 57.2375 36.33125Q58.20625 36.33125 58.878124 35.83125Q59.565624 35.315624 59.971874 34.20625ZM54.190624 31.3625L59.9875 31.3625Q59.878124 30.065624 59.33125 29.409374Q58.4875 28.39375 57.14375 28.39375Q55.940624 28.39375 55.1125 29.20625Q54.284374 30.003124 54.190624 31.3625ZM63.8625 37.55L63.8625 27.175L65.45625 27.175L65.45625 28.659374Q66.59688 26.940624 68.75313 26.940624Q69.69063 26.940624 70.47188 27.284374Q71.26875 27.6125 71.65938 28.159374Q72.05 28.70625 72.20625 29.45625Q72.3 29.95625 72.3 31.175L72.3 37.55L70.53438 37.55L70.53438 31.2375Q70.53438 30.159374 70.33125 29.628124Q70.12813 29.096874 69.59688 28.784374Q69.08125 28.471874 68.37813 28.471874Q67.25313 28.471874 66.44063 29.190624Q65.62813 29.89375 65.62813 31.878124L65.62813 37.55L63.8625 37.55ZM86.8 31.940624L86.8 30.253124L92.8625 30.2375L92.8625 35.55Q91.45625 36.675 89.97188 37.2375Q88.4875 37.8 86.925 37.8Q84.81563 37.8 83.09688 36.89375Q81.37813 35.9875 80.4875 34.284374Q79.6125 32.565624 79.6125 30.45625Q79.6125 28.3625 80.4875 26.565624Q81.3625 24.753124 83.00313 23.878124Q84.64375 22.9875 86.78438 22.9875Q88.33125 22.9875 89.58125 23.4875Q90.84688 23.9875 91.55 24.89375Q92.26875 25.784374 92.64375 27.2375L90.94063 27.70625Q90.6125 26.6125 90.12813 25.9875Q89.65938 25.3625 88.76875 24.9875Q87.87813 24.6125 86.8 24.6125Q85.4875 24.6125 84.53438 25.003124Q83.59688 25.39375 83.01875 26.05Q82.44063 26.690624 82.1125 27.45625Q81.56563 28.784374 81.56563 30.346874Q81.56563 32.253124 82.22188 33.55Q82.89375 34.83125 84.14375 35.45625Q85.40938 36.08125 86.81563 36.08125Q88.05 36.08125 89.22188 35.6125Q90.39375 35.14375 91.00313 34.596874L91.00313 31.940624L86.8 31.940624ZM102.97188 34.20625L104.78438 34.440624Q104.3625 36.01875 103.19063 36.909374Q102.03438 37.784374 100.22188 37.784374Q97.95625 37.784374 96.6125 36.39375Q95.28438 34.9875 95.28438 32.45625Q95.28438 29.83125 96.62813 28.39375Q97.97188 26.940624 100.12813 26.940624Q102.20625 26.940624 103.51875 28.3625Q104.84688 29.76875 104.84688 32.346874Q104.84688 32.503124 104.83125 32.815624L97.09688 32.815624Q97.19063 34.51875 98.06563 35.425Q98.94063 36.33125 100.2375 36.33125Q101.20625 36.33125 101.87813 35.83125Q102.56563 35.315624 102.97188 34.20625ZM97.19063 31.3625L102.9875 31.3625Q102.87813 30.065624 102.33125 29.409374Q101.4875 28.39375 100.14375 28.39375Q98.94063 28.39375 98.1125 29.20625Q97.28438 30.003124 97.19063 31.3625ZM106.8625 37.55L106.8625 27.175L108.45625 27.175L108.45625 28.659374Q109.59688 26.940624 111.75313 26.940624Q112.69063 26.940624 113.47188 27.284374Q114.26875 27.6125 114.65938 28.159374Q115.05 28.70625 115.20625 29.45625Q115.3 29.95625 115.3 31.175L115.3 37.55L113.53438 37.55L113.53438 31.2375Q113.53438 30.159374 113.33125 29.628124Q113.12813 29.096874 112.59688 28.784374Q112.08125 28.471874 111.37813 28.471874Q110.25313 28.471874 109.44063 29.190624Q108.62813 29.89375 108.62813 31.878124L108.62813 37.55L106.8625 37.55ZM123.97188 34.20625L125.78438 34.440624Q125.3625 36.01875 124.19063 36.909374Q123.03438 37.784374 121.22188 37.784374Q118.95625 37.784374 117.6125 36.39375Q116.28438 34.9875 116.28438 32.45625Q116.28438 29.83125 117.62813 28.39375Q118.97188 26.940624 121.12813 26.940624Q123.20625 26.940624 124.51875 28.3625Q125.84688 29.76875 125.84688 32.346874Q125.84688 32.503124 125.83125 32.815624L118.09688 32.815624Q118.19063 34.51875 119.06563 35.425Q119.94063 36.33125 121.2375 36.33125Q122.20625 36.33125 122.87813 35.83125Q123.56563 35.315624 123.97188 34.20625ZM118.19063 31.3625L123.9875 31.3625Q123.87813 30.065624 123.33125 29.409374Q122.4875 28.39375 121.14375 28.39375Q119.94063 28.39375 119.1125 29.20625Q118.28438 30.003124 118.19063 31.3625ZM127.84688 37.55L127.84688 27.175L129.425 27.175L129.425 28.753124Q130.03438 27.64375 130.55 27.3Q131.06563 26.940624 131.675 26.940624Q132.56563 26.940624 133.4875 27.503124L132.87813 29.14375Q132.2375 28.753124 131.59688 28.753124Q131.01875 28.753124 130.55 29.1125Q130.09688 29.45625 129.89375 30.065624Q129.6125 31.003124 129.6125 32.1125L129.6125 37.55L127.84688 37.55ZM141.64375 36.26875Q140.65938 37.096874 139.75313 37.440624Q138.84688 37.784374 137.81563 37.784374Q136.1125 37.784374 135.19063 36.95625Q134.26875 36.1125 134.26875 34.815624Q134.26875 34.05 134.6125 33.425Q134.97188 32.8 135.53438 32.425Q136.09688 32.034374 136.8 31.83125Q137.31563 31.70625 138.3625 31.565624Q140.4875 31.315624 141.4875 30.971874Q141.50313 30.6125 141.50313 30.503124Q141.50313 29.440624 141.00313 28.9875Q140.33125 28.39375 139.00313 28.39375Q137.75313 28.39375 137.15938 28.83125Q136.58125 29.26875 136.3 30.378124L134.58125 30.14375Q134.81563 29.034374 135.34688 28.3625Q135.87813 27.675 136.89375 27.315624Q137.90938 26.940624 139.25313 26.940624Q140.58125 26.940624 141.40938 27.253124Q142.2375 27.565624 142.62813 28.05Q143.01875 28.51875 143.175 29.2375Q143.26875 29.690624 143.26875 30.8625L143.26875 33.20625Q143.26875 35.659374 143.37813 36.315624Q143.4875 36.95625 143.83125 37.55L141.9875 37.55Q141.72188 37.003124 141.64375 36.26875ZM141.4875 32.346874Q140.53438 32.7375 138.6125 33.003124Q137.53438 33.159374 137.08125 33.3625Q136.64375 33.55 136.39375 33.925Q136.14375 34.3 136.14375 34.76875Q136.14375 35.471874 136.675 35.940624Q137.20625 36.409374 138.2375 36.409374Q139.25313 36.409374 140.03438 35.971874Q140.83125 35.51875 141.20625 34.753124Q141.4875 34.14375 141.4875 32.9875L141.4875 32.346874ZM149.70625 35.971874L149.95625 37.534374Q149.22188 37.690624 148.62813 37.690624Q147.675 37.690624 147.14375 37.39375Q146.62813 37.08125 146.40938 36.596874Q146.19063 36.096874 146.19063 34.51875L146.19063 28.55L144.90938 28.55L144.90938 27.175L146.19063 27.175L146.19063 24.6125L147.94063 23.55L147.94063 27.175L149.70625 27.175L149.70625 28.55L147.94063 28.55L147.94063 34.6125Q147.94063 35.3625 148.03438 35.58125Q148.12813 35.784374 148.33125 35.925Q148.55 36.05 148.94063 36.05Q149.22188 36.05 149.70625 35.971874ZM151.87813 25.253124L151.87813 23.2375L153.64375 23.2375L153.64375 25.253124L151.87813 25.253124ZM151.87813 37.55L151.87813 27.175L153.64375 27.175L153.64375 37.55L151.87813 37.55ZM155.22188 32.3625Q155.22188 29.4875 156.81563 28.096874Q158.15938 26.940624 160.08125 26.940624Q162.22188 26.940624 163.56563 28.346874Q164.925 29.753124 164.925 32.221874Q164.925 34.221874 164.33125 35.378124Q163.7375 36.51875 162.58125 37.159374Q161.44063 37.784374 160.08125 37.784374Q157.89375 37.784374 156.55 36.39375Q155.22188 34.9875 155.22188 32.3625ZM157.01875 32.3625Q157.01875 34.3625 157.87813 35.346874Q158.75313 36.33125 160.08125 36.33125Q161.39375 36.33125 162.25313 35.346874Q163.12813 34.346874 163.12813 32.3Q163.12813 30.378124 162.25313 29.39375Q161.37813 28.39375 160.08125 28.39375Q158.75313 28.39375 157.87813 29.39375Q157.01875 30.378124 157.01875 32.3625ZM166.8625 37.55L166.8625 27.175L168.45625 27.175L168.45625 28.659374Q169.59688 26.940624 171.75313 26.940624Q172.69063 26.940624 173.47188 27.284374Q174.26875 27.6125 174.65938 28.159374Q175.05 28.70625 175.20625 29.45625Q175.3 29.95625 175.3 31.175L175.3 37.55L173.53438 37.55L173.53438 31.2375Q173.53438 30.159374 173.33125 29.628124Q173.12813 29.096874 172.59688 28.784374Q172.08125 28.471874 171.37813 28.471874Q170.25313 28.471874 169.44063 29.190624Q168.62813 29.89375 168.62813 31.878124L168.62813 37.55L166.8625 37.55ZM185.75313 37.55L181.8 27.175L183.65938 27.175L185.89375 33.39375Q186.25313 34.39375 186.55 35.471874Q186.78438 34.659374 187.20625 33.503124L189.50313 27.175L191.31563 27.175L187.39375 37.55L185.75313 37.55ZM191.15938 34.45625L192.90938 34.175Q193.05 35.221874 193.72188 35.784374Q194.39375 36.33125 195.59688 36.33125Q196.8 36.33125 197.37813 35.846874Q197.97188 35.346874 197.97188 34.690624Q197.97188 34.096874 197.45625 33.753124Q197.09688 33.51875 195.65938 33.159374Q193.72188 32.659374 192.97188 32.315624Q192.2375 31.95625 191.84688 31.33125Q191.45625 30.690624 191.45625 29.925Q191.45625 29.2375 191.76875 28.64375Q192.09688 28.05 192.64375 27.659374Q193.05 27.3625 193.75313 27.159374Q194.47188 26.940624 195.28438 26.940624Q196.50313 26.940624 197.425 27.3Q198.34688 27.64375 198.78438 28.253124Q199.22188 28.846874 199.39375 29.846874L197.675 30.08125Q197.55 29.284374 196.9875 28.846874Q196.425 28.39375 195.40938 28.39375Q194.19063 28.39375 193.675 28.8Q193.15938 29.190624 193.15938 29.721874Q193.15938 30.065624 193.37813 30.346874Q193.58125 30.628124 194.05 30.815624Q194.31563 30.909374 195.59688 31.253124Q197.47188 31.753124 198.20625 32.08125Q198.94063 32.39375 199.3625 33.003124Q199.78438 33.596874 199.78438 34.503124Q199.78438 35.378124 199.26875 36.159374Q198.75313 36.940624 197.78438 37.3625Q196.81563 37.784374 195.59688 37.784374Q193.58125 37.784374 192.51875 36.940624Q191.45625 36.096874 191.15938 34.45625ZM202.3625 37.55L202.3625 35.55L204.3625 35.55L204.3625 37.55L202.3625 37.55ZM213.55 37.8L214.40938 33.628124L212.75313 33.628124L212.75313 32.175L214.70625 32.175L215.425 28.628124L212.75313 28.628124L212.75313 27.175L215.72188 27.175L216.56563 22.9875L218.03438 22.9875L217.175 27.175L220.25313 27.175L221.1125 22.9875L222.58125 22.9875L221.7375 27.175L223.425 27.175L223.425 28.628124L221.44063 28.628124L220.70625 32.175L223.425 32.175L223.425 33.628124L220.40938 33.628124L219.56563 37.8L218.09688 37.8L218.94063 33.628124L215.87813 33.628124L215.01875 37.8L213.55 37.8ZM216.15938 32.175L219.2375 32.175L219.95625 28.628124L216.89375 28.628124L216.15938 32.175ZM230.22188 32.3625Q230.22188 29.4875 231.81563 28.096874Q233.15938 26.940624 235.08125 26.940624Q237.22188 26.940624 238.56563 28.346874Q239.925 29.753124 239.925 32.221874Q239.925 34.221874 239.33125 35.378124Q238.7375 36.51875 237.58125 37.159374Q236.44063 37.784374 235.08125 37.784374Q232.89375 37.784374 231.55 36.39375Q230.22188 34.9875 230.22188 32.3625ZM232.01875 32.3625Q232.01875 34.3625 232.87813 35.346874Q233.75313 36.33125 235.08125 36.33125Q236.39375 36.33125 237.25313 35.346874Q238.12813 34.346874 238.12813 32.3Q238.12813 30.378124 237.25313 29.39375Q236.37813 28.39375 235.08125 28.39375Q233.75313 28.39375 232.87813 29.39375Q232.01875 30.378124 232.01875 32.3625ZM242.28438 37.55L242.28438 28.55L240.7375 28.55L240.7375 27.175L242.28438 27.175L242.28438 26.08125Q242.28438 25.034374 242.47188 24.51875Q242.72188 23.83125 243.3625 23.409374Q244.00313 22.9875 245.15938 22.9875Q245.90938 22.9875 246.8 23.159374L246.53438 24.690624Q245.9875 24.596874 245.50313 24.596874Q244.70625 24.596874 244.3625 24.940624Q244.03438 25.284374 244.03438 26.221874L244.03438 27.175L246.06563 27.175L246.06563 28.55L244.03438 28.55L244.03438 37.55L242.28438 37.55ZM254.01875 37.55L254.01875 23.2375L255.90938 23.2375L255.90938 35.8625L262.95624 35.8625L262.95624 37.55L254.01875 37.55ZM271.64374 36.26875Q270.65936 37.096874 269.7531 37.440624Q268.84686 37.784374 267.8156 37.784374Q266.1125 37.784374 265.1906 36.95625Q264.26874 36.1125 264.26874 34.815624Q264.26874 34.05 264.6125 33.425Q264.97186 32.8 265.53436 32.425Q266.09686 32.034374 266.8 31.83125Q267.3156 31.70625 268.3625 31.565624Q270.4875 31.315624 271.4875 30.971874Q271.5031 30.6125 271.5031 30.503124Q271.5031 29.440624 271.0031 28.9875Q270.33124 28.39375 269.0031 28.39375Q267.7531 28.39375 267.15936 28.83125Q266.58124 29.26875 266.3 30.378124L264.58124 30.14375Q264.8156 29.034374 265.34686 28.3625Q265.8781 27.675 266.89374 27.315624Q267.90936 26.940624 269.2531 26.940624Q270.58124 26.940624 271.40936 27.253124Q272.2375 27.565624 272.6281 28.05Q273.01874 28.51875 273.175 29.2375Q273.26874 29.690624 273.26874 30.8625L273.26874 33.20625Q273.26874 35.659374 273.3781 36.315624Q273.4875 36.95625 273.83124 37.55L271.9875 37.55Q271.72186 37.003124 271.64374 36.26875ZM271.4875 32.346874Q270.53436 32.7375 268.6125 33.003124Q267.53436 33.159374 267.08124 33.3625Q266.64374 33.55 266.39374 33.925Q266.14374 34.3 266.14374 34.76875Q266.14374 35.471874 266.675 35.940624Q267.20624 36.409374 268.2375 36.409374Q269.2531 36.409374 270.03436 35.971874Q270.83124 35.51875 271.20624 34.753124Q271.4875 34.14375 271.4875 32.9875L271.4875 32.346874ZM275.78436 41.55L275.59686 39.89375Q276.175 40.05 276.59686 40.05Q277.1906 40.05 277.53436 39.846874Q277.89374 39.659374 278.1125 39.315624Q278.28436 39.05 278.65936 38.003124Q278.70624 37.846874 278.8156 37.565624L274.8781 27.175L276.76874 27.175L278.925 33.190624Q279.34686 34.33125 279.675 35.58125Q279.9875 34.378124 280.39374 33.221874L282.6125 27.175L284.3781 27.175L280.425 37.721874Q279.8 39.440624 279.4406 40.08125Q278.97186 40.95625 278.3625 41.346874Q277.76874 41.753124 276.925 41.753124Q276.40936 41.753124 275.78436 41.55ZM292.97186 34.20625L294.78436 34.440624Q294.3625 36.01875 293.1906 36.909374Q292.03436 37.784374 290.22186 37.784374Q287.95624 37.784374 286.6125 36.39375Q285.28436 34.9875 285.28436 32.45625Q285.28436 29.83125 286.6281 28.39375Q287.97186 26.940624 290.1281 26.940624Q292.20624 26.940624 293.51874 28.3625Q294.84686 29.76875 294.84686 32.346874Q294.84686 32.503124 294.83124 32.815624L287.09686 32.815624Q287.1906 34.51875 288.0656 35.425Q288.9406 36.33125 290.2375 36.33125Q291.20624 36.33125 291.8781 35.83125Q292.5656 35.315624 292.97186 34.20625ZM287.1906 31.3625L292.9875 31.3625Q292.8781 30.065624 292.33124 29.409374Q291.4875 28.39375 290.14374 28.39375Q288.9406 28.39375 288.1125 29.20625Q287.28436 30.003124 287.1906 31.3625ZM296.84686 37.55L296.84686 27.175L298.425 27.175L298.425 28.753124Q299.03436 27.64375 299.55 27.3Q300.0656 26.940624 300.675 26.940624Q301.5656 26.940624 302.4875 27.503124L301.8781 29.14375Q301.2375 28.753124 300.59686 28.753124Q300.01874 28.753124 299.55 29.1125Q299.09686 29.45625 298.89374 30.065624Q298.6125 31.003124 298.6125 32.1125L298.6125 37.55L296.84686 37.55ZM303.15936 34.45625L304.90936 34.175Q305.05 35.221874 305.72186 35.784374Q306.39374 36.33125 307.59686 36.33125Q308.8 36.33125 309.3781 35.846874Q309.97186 35.346874 309.97186 34.690624Q309.97186 34.096874 309.45624 33.753124Q309.09686 33.51875 307.65936 33.159374Q305.72186 32.659374 304.97186 32.315624Q304.2375 31.95625 303.84686 31.33125Q303.45624 30.690624 303.45624 29.925Q303.45624 29.2375 303.76874 28.64375Q304.09686 28.05 304.64374 27.659374Q305.05 27.3625 305.7531 27.159374Q306.47186 26.940624 307.28436 26.940624Q308.5031 26.940624 309.425 27.3Q310.34686 27.64375 310.78436 28.253124Q311.22186 28.846874 311.39374 29.846874L309.675 30.08125Q309.55 29.284374 308.9875 28.846874Q308.425 28.39375 307.40936 28.39375Q306.1906 28.39375 305.675 28.8Q305.15936 29.190624 305.15936 29.721874Q305.15936 30.065624 305.3781 30.346874Q305.58124 30.628124 306.05 30.815624Q306.3156 30.909374 307.59686 31.253124Q309.47186 31.753124 310.20624 32.08125Q310.9406 32.39375 311.3625 33.003124Q311.78436 33.596874 311.78436 34.503124Q311.78436 35.378124 311.26874 36.159374Q310.7531 36.940624 309.78436 37.3625Q308.8156 37.784374 307.59686 37.784374Q305.58124 37.784374 304.51874 36.940624Q303.45624 36.096874 303.15936 34.45625ZM319.22186 32.3625Q319.22186 29.4875 320.8156 28.096874Q322.15936 26.940624 324.08124 26.940624Q326.22186 26.940624 327.5656 28.346874Q328.925 29.753124 328.925 32.221874Q328.925 34.221874 328.33124 35.378124Q327.7375 36.51875 326.58124 37.159374Q325.4406 37.784374 324.08124 37.784374Q321.89374 37.784374 320.55 36.39375Q319.22186 34.9875 319.22186 32.3625ZM321.01874 32.3625Q321.01874 34.3625 321.8781 35.346874Q322.7531 36.33125 324.08124 36.33125Q325.39374 36.33125 326.2531 35.346874Q327.1281 34.346874 327.1281 32.3Q327.1281 30.378124 326.2531 29.39375Q325.3781 28.39375 324.08124 28.39375Q322.7531 28.39375 321.8781 29.39375Q321.01874 30.378124 321.01874 32.3625ZM331.28436 37.55L331.28436 28.55L329.7375 28.55L329.7375 27.175L331.28436 27.175L331.28436 26.08125Q331.28436 25.034374 331.47186 24.51875Q331.72186 23.83125 332.3625 23.409374Q333.0031 22.9875 334.15936 22.9875Q334.90936 22.9875 335.8 23.159374L335.53436 24.690624Q334.9875 24.596874 334.5031 24.596874Q333.70624 24.596874 333.3625 24.940624Q333.03436 25.284374 333.03436 26.221874L333.03436 27.175L335.0656 27.175L335.0656 28.55L333.03436 28.55L333.03436 37.55L331.28436 37.55ZM337.28436 37.55L337.28436 28.55L335.7375 28.55L335.7375 27.175L337.28436 27.175L337.28436 26.08125Q337.28436 25.034374 337.47186 24.51875Q337.72186 23.83125 338.3625 23.409374Q339.0031 22.9875 340.15936 22.9875Q340.90936 22.9875 341.8 23.159374L341.53436 24.690624Q340.9875 24.596874 340.5031 24.596874Q339.70624 24.596874 339.3625 24.940624Q339.03436 25.284374 339.03436 26.221874L339.03436 27.175L341.0656 27.175L341.0656 28.55L339.03436 28.55L339.03436 37.55L337.28436 37.55ZM342.83124 37.55L342.83124 23.2375L344.58124 23.2375L344.58124 37.55L342.83124 37.55ZM346.22186 32.3625Q346.22186 29.4875 347.8156 28.096874Q349.15936 26.940624 351.08124 26.940624Q353.22186 26.940624 354.5656 28.346874Q355.925 29.753124 355.925 32.221874Q355.925 34.221874 355.33124 35.378124Q354.7375 36.51875 353.58124 37.159374Q352.4406 37.784374 351.08124 37.784374Q348.89374 37.784374 347.55 36.39375Q346.22186 34.9875 346.22186 32.3625ZM348.01874 32.3625Q348.01874 34.3625 348.8781 35.346874Q349.7531 36.33125 351.08124 36.33125Q352.39374 36.33125 353.2531 35.346874Q354.1281 34.346874 354.1281 32.3Q354.1281 30.378124 353.2531 29.39375Q352.3781 28.39375 351.08124 28.39375Q349.7531 28.39375 348.8781 29.39375Q348.01874 30.378124 348.01874 32.3625ZM364.64374 36.26875Q363.65936 37.096874 362.7531 37.440624Q361.84686 37.784374 360.8156 37.784374Q359.1125 37.784374 358.1906 36.95625Q357.26874 36.1125 357.26874 34.815624Q357.26874 34.05 357.6125 33.425Q357.97186 32.8 358.53436 32.425Q359.09686 32.034374 359.8 31.83125Q360.3156 31.70625 361.3625 31.565624Q363.4875 31.315624 364.4875 30.971874Q364.5031 30.6125 364.5031 30.503124Q364.5031 29.440624 364.0031 28.9875Q363.33124 28.39375 362.0031 28.39375Q360.7531 28.39375 360.15936 28.83125Q359.58124 29.26875 359.3 30.378124L357.58124 30.14375Q357.8156 29.034374 358.34686 28.3625Q358.8781 27.675 359.89374 27.315624Q360.90936 26.940624 362.2531 26.940624Q363.58124 26.940624 364.40936 27.253124Q365.2375 27.565624 365.6281 28.05Q366.01874 28.51875 366.175 29.2375Q366.26874 29.690624 366.26874 30.8625L366.26874 33.20625Q366.26874 35.659374 366.3781 36.315624Q366.4875 36.95625 366.83124 37.55L364.9875 37.55Q364.72186 37.003124 364.64374 36.26875ZM364.4875 32.346874Q363.53436 32.7375 361.6125 33.003124Q360.53436 33.159374 360.08124 33.3625Q359.64374 33.55 359.39374 33.925Q359.14374 34.3 359.14374 34.76875Q359.14374 35.471874 359.675 35.940624Q360.20624 36.409374 361.2375 36.409374Q362.2531 36.409374 363.03436 35.971874Q363.83124 35.51875 364.20624 34.753124Q364.4875 34.14375 364.4875 32.9875L364.4875 32.346874ZM375.59686 37.55L375.59686 36.2375Q374.6125 37.784374 372.6906 37.784374Q371.45624 37.784374 370.40936 37.096874Q369.3781 36.409374 368.8 35.190624Q368.2375 33.971874 368.2375 32.378124Q368.2375 30.815624 368.7531 29.55Q369.26874 28.284374 370.3 27.6125Q371.34686 26.940624 372.6125 26.940624Q373.55 26.940624 374.28436 27.346874Q375.01874 27.7375 375.4875 28.3625L375.4875 23.2375L377.22186 23.2375L377.22186 37.55L375.59686 37.55ZM370.03436 32.378124Q370.03436 34.3625 370.8781 35.346874Q371.72186 36.33125 372.8625 36.33125Q374.01874 36.33125 374.8156 35.39375Q375.6281 34.45625 375.6281 32.51875Q375.6281 30.39375 374.8 29.39375Q373.9875 28.39375 372.78436 28.39375Q371.6125 28.39375 370.8156 29.3625Q370.03436 30.315624 370.03436 32.378124ZM386.97186 34.20625L388.78436 34.440624Q388.3625 36.01875 387.1906 36.909374Q386.03436 37.784374 384.22186 37.784374Q381.95624 37.784374 380.6125 36.39375Q379.28436 34.9875 379.28436 32.45625Q379.28436 29.83125 380.6281 28.39375Q381.97186 26.940624 384.1281 26.940624Q386.20624 26.940624 387.51874 28.3625Q388.84686 29.76875 388.84686 32.346874Q388.84686 32.503124 388.83124 32.815624L381.09686 32.815624Q381.1906 34.51875 382.0656 35.425Q382.9406 36.33125 384.2375 36.33125Q385.20624 36.33125 385.8781 35.83125Q386.5656 35.315624 386.97186 34.20625ZM381.1906 31.3625L386.9875 31.3625Q386.8781 30.065624 386.33124 29.409374Q385.4875 28.39375 384.14374 28.39375Q382.9406 28.39375 382.1125 29.20625Q381.28436 30.003124 381.1906 31.3625ZM397.59686 37.55L397.59686 36.2375Q396.6125 37.784374 394.6906 37.784374Q393.45624 37.784374 392.40936 37.096874Q391.3781 36.409374 390.8 35.190624Q390.2375 33.971874 390.2375 32.378124Q390.2375 30.815624 390.7531 29.55Q391.26874 28.284374 392.3 27.6125Q393.34686 26.940624 394.6125 26.940624Q395.55 26.940624 396.28436 27.346874Q397.01874 27.7375 397.4875 28.3625L397.4875 23.2375L399.22186 23.2375L399.22186 37.55L397.59686 37.55ZM392.03436 32.378124Q392.03436 34.3625 392.8781 35.346874Q393.72186 36.33125 394.8625 36.33125Q396.01874 36.33125 396.8156 35.39375Q397.6281 34.45625 397.6281 32.51875Q397.6281 30.39375 396.8 29.39375Q395.9875 28.39375 394.78436 28.39375Q393.6125 28.39375 392.8156 29.3625Q392.03436 30.315624 392.03436 32.378124ZM411.70624 35.971874L411.95624 37.534374Q411.22186 37.690624 410.6281 37.690624Q409.675 37.690624 409.14374 37.39375Q408.6281 37.08125 408.40936 36.596874Q408.1906 36.096874 408.1906 34.51875L408.1906 28.55L406.90936 28.55L406.90936 27.175L408.1906 27.175L408.1906 24.6125L409.9406 23.55L409.9406 27.175L411.70624 27.175L411.70624 28.55L409.9406 28.55L409.9406 34.6125Q409.9406 35.3625 410.03436 35.58125Q410.1281 35.784374 410.33124 35.925Q410.55 36.05 410.9406 36.05Q411.22186 36.05 411.70624 35.971874ZM413.22186 32.3625Q413.22186 29.4875 414.8156 28.096874Q416.15936 26.940624 418.08124 26.940624Q420.22186 26.940624 421.5656 28.346874Q422.925 29.753124 422.925 32.221874Q422.925 34.221874 422.33124 35.378124Q421.7375 36.51875 420.58124 37.159374Q419.4406 37.784374 418.08124 37.784374Q415.89374 37.784374 414.55 36.39375Q413.22186 34.9875 413.22186 32.3625ZM415.01874 32.3625Q415.01874 34.3625 415.8781 35.346874Q416.7531 36.33125 418.08124 36.33125Q419.39374 36.33125 420.2531 35.346874Q421.1281 34.346874 421.1281 32.3Q421.1281 30.378124 420.2531 29.39375Q419.3781 28.39375 418.08124 28.39375Q416.7531 28.39375 415.8781 29.39375Q415.01874 30.378124 415.01874 32.3625ZM434.70624 35.971874L434.95624 37.534374Q434.22186 37.690624 433.6281 37.690624Q432.675 37.690624 432.14374 37.39375Q431.6281 37.08125 431.40936 36.596874Q431.1906 36.096874 431.1906 34.51875L431.1906 28.55L429.90936 28.55L429.90936 27.175L431.1906 27.175L431.1906 24.6125L432.9406 23.55L432.9406 27.175L434.70624 27.175L434.70624 28.55L432.9406 28.55L432.9406 34.6125Q432.9406 35.3625 433.03436 35.58125Q433.1281 35.784374 433.33124 35.925Q433.55 36.05 433.9406 36.05Q434.22186 36.05 434.70624 35.971874ZM436.8625 37.55L436.8625 23.2375L438.6281 23.2375L438.6281 28.3625Q439.8625 26.940624 441.7375 26.940624Q442.8781 26.940624 443.72186 27.39375Q444.58124 27.846874 444.9406 28.659374Q445.3156 29.45625 445.3156 30.971874L445.3156 37.55L443.5656 37.55L443.5656 30.971874Q443.5656 29.659374 442.9875 29.065624Q442.40936 28.45625 441.3781 28.45625Q440.59686 28.45625 439.89374 28.8625Q439.20624 29.26875 438.90936 29.971874Q438.6281 30.659374 438.6281 31.878124L438.6281 37.55L436.8625 37.55ZM453.97186 34.20625L455.78436 34.440624Q455.3625 36.01875 454.1906 36.909374Q453.03436 37.784374 451.22186 37.784374Q448.95624 37.784374 447.6125 36.39375Q446.28436 34.9875 446.28436 32.45625Q446.28436 29.83125 447.6281 28.39375Q448.97186 26.940624 451.1281 26.940624Q453.20624 26.940624 454.51874 28.3625Q455.84686 29.76875 455.84686 32.346874Q455.84686 32.503124 455.83124 32.815624L448.09686 32.815624Q448.1906 34.51875 449.0656 35.425Q449.9406 36.33125 451.2375 36.33125Q452.20624 36.33125 452.8781 35.83125Q453.5656 35.315624 453.97186 34.20625ZM448.1906 31.3625L453.9875 31.3625Q453.8781 30.065624 453.33124 29.409374Q452.4875 28.39375 451.14374 28.39375Q449.9406 28.39375 449.1125 29.20625Q448.28436 30.003124 448.1906 31.3625ZM470.8 31.940624L470.8 30.253124L476.8625 30.2375L476.8625 35.55Q475.45624 36.675 473.97186 37.2375Q472.4875 37.8 470.925 37.8Q468.8156 37.8 467.09686 36.89375Q465.3781 35.9875 464.4875 34.284374Q463.6125 32.565624 463.6125 30.45625Q463.6125 28.3625 464.4875 26.565624Q465.3625 24.753124 467.0031 23.878124Q468.64374 22.9875 470.78436 22.9875Q472.33124 22.9875 473.58124 23.4875Q474.84686 23.9875 475.55 24.89375Q476.26874 25.784374 476.64374 27.2375L474.9406 27.70625Q474.6125 26.6125 474.1281 25.9875Q473.65936 25.3625 472.76874 24.9875Q471.8781 24.6125 470.8 24.6125Q469.4875 24.6125 468.53436 25.003124Q467.59686 25.39375 467.01874 26.05Q466.4406 26.690624 466.1125 27.45625Q465.5656 28.784374 465.5656 30.346874Q465.5656 32.253124 466.22186 33.55Q466.89374 34.83125 468.14374 35.45625Q469.40936 36.08125 470.8156 36.08125Q472.05 36.08125 473.22186 35.6125Q474.39374 35.14375 475.0031 34.596874L475.0031 31.940624L470.8 31.940624ZM480.09686 37.55L480.09686 23.2375L485.4875 23.2375Q486.925 23.2375 487.675 23.3625Q488.72186 23.55 489.4406 24.05Q490.15936 24.534374 490.58124 25.425Q491.01874 26.315624 491.01874 27.378124Q491.01874 29.20625 489.84686 30.471874Q488.6906 31.721874 485.65936 31.721874L481.9875 31.721874L481.9875 37.55L480.09686 37.55ZM481.9875 30.034374L485.6906 30.034374Q487.51874 30.034374 488.28436 29.3625Q489.0656 28.675 489.0656 27.425Q489.0656 26.534374 488.6125 25.89375Q488.15936 25.253124 487.425 25.05Q486.9406 24.925 485.64374 24.925L481.9875 24.925L481.9875 30.034374ZM502.4875 23.2375L504.3781 23.2375L504.3781 31.503124Q504.3781 33.659374 503.89374 34.940624Q503.40936 36.20625 502.1281 37.003124Q500.8625 37.8 498.78436 37.8Q496.76874 37.8 495.4875 37.1125Q494.22186 36.409374 493.675 35.096874Q493.1281 33.784374 493.1281 31.503124L493.1281 23.2375L495.01874 23.2375L495.01874 31.4875Q495.01874 33.3625 495.3625 34.253124Q495.70624 35.128124 496.55 35.6125Q497.39374 36.08125 498.6281 36.08125Q500.70624 36.08125 501.59686 35.14375Q502.4875 34.190624 502.4875 31.4875L502.4875 23.2375Z" fill-rule="nonzero"/></svg>