<svg version="1.1" viewBox="0.0 0.0 600.0 371.0" fill="none" stroke="none" stroke-linecap="square" stroke-miterlimit="10" width="600" height="371" xmlns:xlink="http://www.w3.org/1999/xlink" xmlns="http://www.w3.org/2000/svg"><path fill="#ffffff" d="M0 0L600.0 0L600.0 371.0L0 371.0L0 0Z" fill-rule="nonzero"/><path stroke="#333333" stroke-width="1.0" stroke-linecap="butt" d="M84.5 88.5L84.5 300.5" fill-rule="nonzero"/><path stroke="#cccccc" stroke-width="1.0" stroke-linecap="butt" d="M175.5 88.5L175.5 300.5" fill-rule="nonzero"/><path stroke="#cccccc" stroke-width="1.0" stroke-linecap="butt" d="M265.5 88.5L265.5 300.5" fill-rule="nonzero"/><path stroke="#cccccc" stroke-width="1.0" stroke-linecap="butt" d="M356.5 88.5L356.5 300.5" fill-rule="nonzero"/><path stroke="#cccccc" stroke-width="1.0" stroke-linecap="butt" d="M447.5 88.5L447.5 300.5" fill-rule="nonzero"/><path stroke="#cccccc" stroke-width="1.0" stroke-linecap="butt" d="M538.5 88.5L538.5 300.5" fill-rule="nonzero"/><path stroke="#333333" stroke-width="1.0" stroke-linecap="butt" d="M77.5 300.5L581.5 300.5" fill-rule="nonzero"/><path stroke="#cccccc" stroke-width="1.0" stroke-linecap="butt" d="M77.5 258.5L581.5 258.5" fill-rule="nonzero"/><path stroke="#cccccc" stroke-width="1.0" stroke-linecap="butt" d="M77.5 215.5L581.5 215.5" fill-rule="nonzero"/><path stroke="#cccccc" stroke-width="1.0" stroke-linecap="butt" d="M77.5 173.5L581.5 173.5" fill-rule="nonzero"/><path stroke="#cccccc" stroke-width="1.0" stroke-linecap="butt" d="M77.5 130.5L581.5 130.5" fill-rule="nonzero"/><path stroke="#cccccc" stroke-width="1.0" stroke-linecap="butt" d="M77.5 88.5L581.5 88.5" fill-rule="nonzero"/><clipPath id="id_0"><path d="M77.55 88.28333L581.45 88.28333L581.45 300.45L77.55 300.45L77.55 88.28333Z" clip-rule="nonzero"/></clipPath><path stroke="#4285f4" stroke-width="2.0" stroke-linecap="butt" clip-path="url(#id_0)" d="M84.36077 142.2246L175.15308 137.21745L265.94537 130.32628L356.7377 122.84104L447.53 113.896095L538.3223 105.23969L574.6392 103.44052" fill-rule="nonzero"/><path stroke="#ea4335" stroke-width="2.0" stroke-linecap="butt" clip-path="url(#id_0)" d="M84.36077 288.4329L175.15308 288.4329L265.94537 288.4329L356.7377 288.4329L447.53 288.4329L538.3223 288.4329L574.6392 288.4329" fill-rule="nonzero"/><path fill="#4285f4" clip-path="url(#id_0)" d="M88.86077 142.2246C88.86077 144.70987 86.846054 146.7246 84.36077 146.7246C81.875496 146.7246 79.86077 144.70987 79.86077 142.2246C79.86077 139.7393 81.875496 137.7246 84.36077 137.7246C86.846054 137.7246 88.86077 139.7393 88.86077 142.2246Z" fill-rule="nonzero"/><path fill="#4285f4" clip-path="url(#id_0)" d="M179.65308 137.21745C179.65308 139.70273 177.63837 141.71745 175.15308 141.71745C172.6678 141.71745 170.65308 139.70273 170.65308 137.21745C170.65308 134.73218 172.6678 132.71745 175.15308 132.71745C177.63837 132.71745 179.65308 134.73218 179.65308 137.21745Z" fill-rule="nonzero"/><path fill="#4285f4" clip-path="url(#id_0)" d="M270.44537 130.32628C270.44537 132.81155 268.43066 134.82628 265.94537 134.82628C263.4601 134.82628 261.44537 132.81155 261.44537 130.32628C261.44537 127.840996 263.4601 125.82628 265.94537 125.82628C268.43066 125.82628 270.44537 127.840996 270.44537 130.32628Z" fill-rule="nonzero"/><path fill="#4285f4" clip-path="url(#id_0)" d="M361.2377 122.84104C361.2377 125.326324 359.22296 127.34104 356.7377 127.34104C354.2524 127.34104 352.2377 125.326324 352.2377 122.84104C352.2377 120.35576 354.2524 118.34104 356.7377 118.34104C359.22296 118.34104 361.2377 120.35576 361.2377 122.84104Z" fill-rule="nonzero"/><path fill="#4285f4" clip-path="url(#id_0)" d="M452.03 113.896095C452.03 116.38138 450.0153 118.396095 447.53 118.396095C445.0447 118.396095 443.03 116.38138 443.03 113.896095C443.03 111.41081 445.0447 109.396095 447.53 109.396095C450.0153 109.396095 452.03 111.41081 452.03 113.896095Z" fill-rule="nonzero"/><path fill="#4285f4" clip-path="url(#id_0)" d="M542.8223 105.23969C542.8223 107.724976 540.80756 109.73969 538.3223 109.73969C535.83704 109.73969 533.8223 107.724976 533.8223 105.23969C533.8223 102.75441 535.83704 100.73969 538.3223 100.73969C540.80756 100.73969 542.8223 102.75441 542.8223 105.23969Z" fill-rule="nonzero"/><path fill="#4285f4" clip-path="url(#id_0)" d="M579.1392 103.44052C579.1392 105.925804 577.1245 107.94052 574.6392 107.94052C572.15393 107.94052 570.1392 105.925804 570.1392 103.44052C570.1392 100.95524 572.15393 98.94052 574.6392 98.94052C577.1245 98.94052 579.1392 100.95524 579.1392 103.44052Z" fill-rule="nonzero"/><path fill="#000000" fill-opacity="0.0" clip-path="url(#id_0)" d="M87.36077 288.4329C87.36077 290.08972 86.01763 291.4329 84.36077 291.4329C82.70392 291.4329 81.36077 290.08972 81.36077 288.4329C81.36077 286.77603 82.70392 285.4329 84.36077 285.4329C86.01763 285.4329 87.36077 286.77603 87.36077 288.4329Z" fill-rule="nonzero"/><path fill="#000000" fill-opacity="0.0" clip-path="url(#id_0)" d="M178.15308 288.4329C178.15308 290.08972 176.80994 291.4329 175.15308 291.4329C173.49623 291.4329 172.15308 290.08972 172.15308 288.4329C172.15308 286.77603 173.49623 285.4329 175.15308 285.4329C176.80994 285.4329 178.15308 286.77603 178.15308 288.4329Z" fill-rule="nonzero"/><path fill="#000000" fill-opacity="0.0" clip-path="url(#id_0)" d="M268.94537 288.4329C268.94537 290.08972 267.60223 291.4329 265.94537 291.4329C264.28854 291.4329 262.94537 290.08972 262.94537 288.4329C262.94537 286.77603 264.28854 285.4329 265.94537 285.4329C267.60223 285.4329 268.94537 286.77603 268.94537 288.4329Z" fill-rule="nonzero"/><path fill="#000000" fill-opacity="0.0" clip-path="url(#id_0)" d="M359.7377 288.4329C359.7377 290.08972 358.39453 291.4329 356.7377 291.4329C355.08084 291.4329 353.7377 290.08972 353.7377 288.4329C353.7377 286.77603 355.08084 285.4329 356.7377 285.4329C358.39453 285.4329 359.7377 286.77603 359.7377 288.4329Z" fill-rule="nonzero"/><path fill="#000000" fill-opacity="0.0" clip-path="url(#id_0)" d="M450.53 288.4329C450.53 290.08972 449.18686 291.4329 447.53 291.4329C445.87314 291.4329 444.53 290.08972 444.53 288.4329C444.53 286.77603 445.87314 285.4329 447.53 285.4329C449.18686 285.4329 450.53 286.77603 450.53 288.4329Z" fill-rule="nonzero"/><path fill="#000000" fill-opacity="0.0" clip-path="url(#id_0)" d="M541.3223 288.4329C541.3223 290.08972 539.9792 291.4329 538.3223 291.4329C536.66547 291.4329 535.3223 290.08972 535.3223 288.4329C535.3223 286.77603 536.66547 285.4329 538.3223 285.4329C539.9792 285.4329 541.3223 286.77603 541.3223 288.4329Z" fill-rule="nonzero"/><path fill="#000000" fill-opacity="0.0" clip-path="url(#id_0)" d="M577.6392 288.4329C577.6392 290.08972 576.2961 291.4329 574.6392 291.4329C572.98236 291.4329 571.6392 290.08972 571.6392 288.4329C571.6392 286.77603 572.98236 285.4329 574.6392 285.4329C576.2961 285.4329 577.6392 286.77603 577.6392 288.4329Z" fill-rule="nonzero"/><path fill="#000000" d="M299.26562 349.45L299.26562 340.85626L300.32812 340.85626L300.32812 349.45L299.26562 349.45ZM306.35938 348.6844Q305.76562 349.1844 305.21875 349.3875Q304.6875 349.59064 304.0625 349.59064Q303.03125 349.59064 302.48438 349.09064Q301.9375 348.59064 301.9375 347.8094Q301.9375 347.35626 302.14062 346.98126Q302.34375 346.59064 302.6875 346.3719Q303.03125 346.1375 303.45312 346.02814Q303.75 345.9344 304.39062 345.85626Q305.65625 345.71564 306.26562 345.4969Q306.26562 345.27814 306.26562 345.23126Q306.26562 344.575 305.96875 344.3094Q305.5625 343.96564 304.76562 343.96564Q304.03125 343.96564 303.67188 344.23126Q303.3125 344.48126 303.14062 345.1375L302.10938 344.9969Q302.25 344.34064 302.57812 343.9344Q302.90625 343.52814 303.51562 343.3094Q304.125 343.09064 304.92188 343.09064Q305.71875 343.09064 306.21875 343.27814Q306.71875 343.46564 306.95312 343.7469Q307.1875 344.02814 307.28125 344.46564Q307.32812 344.73126 307.32812 345.4344L307.32812 346.84064Q307.32812 348.3094 307.39062 348.7Q307.46875 349.09064 307.67188 349.45L306.5625 349.45Q306.40625 349.1219 306.35938 348.6844ZM306.26562 346.325Q305.6875 346.5594 304.54688 346.73126Q303.89062 346.825 303.625 346.95Q303.35938 347.0594 303.20312 347.27814Q303.0625 347.4969 303.0625 347.77814Q303.0625 348.2 303.375 348.48126Q303.70312 348.7625 304.3125 348.7625Q304.92188 348.7625 305.39062 348.4969Q305.875 348.23126 306.09375 347.7625Q306.26562 347.40314 306.26562 346.71564L306.26562 346.325ZM309.25 351.84064L309.125 350.85626Q309.46875 350.95 309.73438 350.95Q310.07812 350.95 310.28125 350.825Q310.5 350.71564 310.64062 350.5125Q310.73438 350.34064 310.96875 349.71564Q310.98438 349.6375 311.0625 349.46564L308.6875 343.23126L309.82812 343.23126L311.125 346.825Q311.375 347.5125 311.57812 348.27814Q311.76562 347.54376 312.01562 346.85626L313.34375 343.23126L314.39062 343.23126L312.03125 349.5594Q311.64062 350.575 311.4375 350.96564Q311.15625 351.4969 310.78125 351.73126Q310.42188 351.98126 309.92188 351.98126Q309.625 351.98126 309.25 351.84064ZM318.54688 347.45L319.64062 347.575Q319.39062 348.52814 318.6875 349.0594Q317.98438 349.59064 316.90625 349.59064Q315.54688 349.59064 314.73438 348.7469Q313.9375 347.90314 313.9375 346.3875Q313.9375 344.825 314.75 343.96564Q315.5625 343.09064 316.84375 343.09064Q318.09375 343.09064 318.875 343.9344Q319.67188 344.77814 319.67188 346.325Q319.67188 346.41876 319.67188 346.60626L315.03125 346.60626Q315.09375 347.6375 315.60938 348.1844Q316.125 348.71564 316.90625 348.71564Q317.48438 348.71564 317.89062 348.41876Q318.3125 348.10626 318.54688 347.45ZM315.09375 345.7469L318.5625 345.7469Q318.5 344.95 318.17188 344.5594Q317.65625 343.95 316.85938 343.95Q316.125 343.95 315.625 344.4344Q315.14062 344.91876 315.09375 345.7469ZM321.28125 349.45L321.28125 343.23126L322.23438 343.23126L322.23438 344.16876Q322.59375 343.5125 322.89062 343.3094Q323.20312 343.09064 323.57812 343.09064Q324.10938 343.09064 324.65625 343.41876L324.29688 344.40314Q323.90625 344.16876 323.53125 344.16876Q323.17188 344.16876 322.89062 344.3875Q322.625 344.59064 322.51562 344.96564Q322.32812 345.52814 322.32812 346.1844L322.32812 349.45L321.28125 349.45ZM324.875 347.59064L325.90625 347.4344Q326.0 348.0594 326.39062 348.3875Q326.79688 348.71564 327.53125 348.71564Q328.25 348.71564 328.59375 348.4344Q328.95312 348.1375 328.95312 347.73126Q328.95312 347.3719 328.64062 347.16876Q328.42188 347.02814 327.5625 346.8094Q326.40625 346.5125 325.95312 346.3094Q325.51562 346.09064 325.28125 345.71564Q325.04688 345.34064 325.04688 344.8719Q325.04688 344.46564 325.23438 344.10626Q325.42188 343.7469 325.75 343.5125Q326.0 343.34064 326.42188 343.21564Q326.84375 343.09064 327.34375 343.09064Q328.0625 343.09064 328.60938 343.3094Q329.17188 343.5125 329.4375 343.8719Q329.70312 344.23126 329.79688 344.825L328.76562 344.96564Q328.70312 344.4969 328.35938 344.23126Q328.03125 343.95 327.40625 343.95Q326.6875 343.95 326.375 344.2Q326.0625 344.4344 326.0625 344.7625Q326.0625 344.96564 326.1875 345.1219Q326.32812 345.29376 326.59375 345.40314Q326.75 345.46564 327.53125 345.66876Q328.65625 345.98126 329.09375 346.16876Q329.53125 346.35626 329.78125 346.71564Q330.03125 347.075 330.03125 347.6219Q330.03125 348.15314 329.71875 348.6219Q329.42188 349.075 328.84375 349.34064Q328.26562 349.59064 327.53125 349.59064Q326.3125 349.59064 325.67188 349.09064Q325.04688 348.575 324.875 347.59064ZM339.45312 346.075L339.45312 345.075L343.07812 345.0594L343.07812 348.2469Q342.25 348.91876 341.35938 349.2625Q340.46875 349.59064 339.53125 349.59064Q338.26562 349.59064 337.21875 349.0594Q336.1875 348.5125 335.65625 347.4969Q335.14062 346.46564 335.14062 345.2Q335.14062 343.9344 335.65625 342.85626Q336.1875 341.7625 337.17188 341.2469Q338.15625 340.71564 339.4375 340.71564Q340.375 340.71564 341.125 341.0125Q341.875 341.3094 342.29688 341.85626Q342.73438 342.3875 342.95312 343.2625L341.9375 343.54376Q341.73438 342.8875 341.4375 342.5125Q341.15625 342.1375 340.625 341.91876Q340.09375 341.6844 339.45312 341.6844Q338.67188 341.6844 338.09375 341.91876Q337.53125 342.15314 337.17188 342.54376Q336.82812 342.9344 336.64062 343.40314Q336.3125 344.2 336.3125 345.1219Q336.3125 346.27814 336.70312 347.0594Q337.10938 347.825 337.85938 348.2Q338.60938 348.575 339.46875 348.575Q340.20312 348.575 340.90625 348.29376Q341.60938 347.9969 341.96875 347.6844L341.96875 346.075L339.45312 346.075ZM344.42188 349.45L344.42188 340.85626L347.67188 340.85626Q348.51562 340.85626 348.96875 340.9344Q349.60938 341.04376 350.03125 341.34064Q350.46875 341.6375 350.71875 342.16876Q350.98438 342.7 350.98438 343.34064Q350.98438 344.4344 350.28125 345.2Q349.59375 345.95 347.76562 345.95L345.5625 345.95L345.5625 349.45L344.42188 349.45ZM345.5625 344.95L347.78125 344.95Q348.89062 344.95 349.34375 344.54376Q349.8125 344.1219 349.8125 343.3719Q349.8125 342.84064 349.53125 342.46564Q349.26562 342.075 348.82812 341.95Q348.53125 341.8719 347.76562 341.8719L345.5625 341.8719L345.5625 344.95ZM358.0625 340.85626L359.20312 340.85626L359.20312 345.825Q359.20312 347.1219 358.90625 347.8875Q358.60938 348.6375 357.84375 349.1219Q357.07812 349.59064 355.84375 349.59064Q354.64062 349.59064 353.85938 349.1844Q353.09375 348.7625 352.76562 347.98126Q352.4375 347.1844 352.4375 345.825L352.4375 340.85626L353.57812 340.85626L353.57812 345.8094Q353.57812 346.9344 353.78125 347.46564Q354.0 347.9969 354.5 348.29376Q355.01562 348.575 355.75 348.575Q357.0 348.575 357.53125 348.0125Q358.0625 347.4344 358.0625 345.8094L358.0625 340.85626Z" fill-rule="nonzero"/><path fill="#000000" d="M31.940638 252.0698L23.331263 252.0698L23.331263 251.11667L24.128138 251.11667Q23.659388 250.77292 23.425013 250.35104Q23.190638 249.91354 23.190638 249.30417Q23.190638 248.5073 23.596888 247.89792Q24.003138 247.28854 24.753138 246.99167Q25.503138 246.67917 26.393763 246.67917Q27.346888 246.67917 28.112513 247.02292Q28.878138 247.35104 29.284388 248.0073Q29.690638 248.66354 29.690638 249.3823Q29.690638 249.91354 29.471888 250.33542Q29.237513 250.7573 28.909388 251.02292L31.940638 251.02292L31.940638 252.0698ZM26.471888 251.11667Q27.675013 251.11667 28.253138 250.6323Q28.815638 250.14792 28.815638 249.46042Q28.815638 248.7573 28.221888 248.2573Q27.628138 247.7573 26.378138 247.7573Q25.190638 247.7573 24.612513 248.24167Q24.018763 248.72604 24.018763 249.41354Q24.018763 250.08542 24.643763 250.60104Q25.268763 251.11667 26.471888 251.11667ZM29.550013 245.08542L23.331263 245.08542L23.331263 244.1323L24.268763 244.1323Q23.612513 243.77292 23.409388 243.47604Q23.190638 243.16354 23.190638 242.78854Q23.190638 242.2573 23.518763 241.71042L24.503138 242.0698Q24.268763 242.46042 24.268763 242.83542Q24.268763 243.1948 24.487513 243.47604Q24.690638 243.74167 25.065638 243.85104Q25.628138 244.03854 26.284388 244.03854L29.550013 244.03854L29.550013 245.08542ZM26.440638 241.46042Q24.706263 241.46042 23.878138 240.5073Q23.190638 239.71042 23.190638 238.55417Q23.190638 237.27292 24.034388 236.46042Q24.862513 235.6323 26.346888 235.6323Q27.550013 235.6323 28.237513 235.99167Q28.925013 236.35104 29.315638 237.05417Q29.690638 237.74167 29.690638 238.55417Q29.690638 239.85104 28.862513 240.66354Q28.018763 241.46042 26.440638 241.46042ZM26.440638 240.3823Q27.628138 240.3823 28.221888 239.86667Q28.815638 239.33542 28.815638 238.55417Q28.815638 237.7573 28.221888 237.24167Q27.628138 236.72604 26.409388 236.72604Q25.253138 236.72604 24.659388 237.2573Q24.065638 237.77292 24.065638 238.55417Q24.065638 239.33542 24.659388 239.86667Q25.237513 240.3823 26.440638 240.3823ZM29.550013 234.0698L23.331263 234.0698L23.331263 233.1323L24.206263 233.1323Q23.737513 232.83542 23.471888 232.35104Q23.190638 231.86667 23.190638 231.24167Q23.190638 230.55417 23.471888 230.11667Q23.753138 229.66354 24.268763 229.49167Q23.190638 228.74167 23.190638 227.5698Q23.190638 226.6323 23.706263 226.14792Q24.206263 225.64792 25.284388 225.64792L29.550013 225.64792L29.550013 226.6948L25.628138 226.6948Q25.003138 226.6948 24.721888 226.80417Q24.440638 226.89792 24.268763 227.16354Q24.096888 227.42917 24.096888 227.80417Q24.096888 228.46042 24.534388 228.89792Q24.971888 229.3198 25.940638 229.3198L29.550013 229.3198L29.550013 230.3823L25.503138 230.3823Q24.800013 230.3823 24.456263 230.64792Q24.096888 230.89792 24.096888 231.47604Q24.096888 231.92917 24.331263 232.30417Q24.565638 232.67917 25.018763 232.85104Q25.471888 233.02292 26.315638 233.02292L29.550013 233.02292L29.550013 234.0698ZM31.940638 223.0698L23.331263 223.0698L23.331263 222.11667L24.128138 222.11667Q23.659388 221.77292 23.425013 221.35104Q23.190638 220.91354 23.190638 220.30417Q23.190638 219.5073 23.596888 218.89792Q24.003138 218.28854 24.753138 217.99167Q25.503138 217.67917 26.393763 217.67917Q27.346888 217.67917 28.112513 218.02292Q28.878138 218.35104 29.284388 219.0073Q29.690638 219.66354 29.690638 220.3823Q29.690638 220.91354 29.471888 221.33542Q29.237513 221.7573 28.909388 222.02292L31.940638 222.02292L31.940638 223.0698ZM26.471888 222.11667Q27.675013 222.11667 28.253138 221.6323Q28.815638 221.14792 28.815638 220.46042Q28.815638 219.7573 28.221888 219.2573Q27.628138 218.7573 26.378138 218.7573Q25.190638 218.7573 24.612513 219.24167Q24.018763 219.72604 24.018763 220.41354Q24.018763 221.08542 24.643763 221.60104Q25.268763 222.11667 26.471888 222.11667ZM28.612513 213.77292L29.534388 213.61667Q29.628138 214.0698 29.628138 214.41354Q29.628138 214.99167 29.456263 215.30417Q29.268763 215.61667 28.971888 215.7573Q28.675013 215.8823 27.721888 215.8823L24.143763 215.8823L24.143763 216.64792L23.331263 216.64792L23.331263 215.8823L21.784388 215.8823L21.159388 214.83542L23.331263 214.83542L23.331263 213.77292L24.143763 213.77292L24.143763 214.83542L27.784388 214.83542Q28.237513 214.83542 28.362513 214.78854Q28.487513 214.72604 28.565638 214.60104Q28.643763 214.47604 28.643763 214.24167Q28.643763 214.05417 28.612513 213.77292ZM31.940638 210.0698L23.331263 210.0698L23.331263 209.11667L24.128138 209.11667Q23.659388 208.77292 23.425013 208.35104Q23.190638 207.91354 23.190638 207.30417Q23.190638 206.5073 23.596888 205.89792Q24.003138 205.28854 24.753138 204.99167Q25.503138 204.67917 26.393763 204.67917Q27.346888 204.67917 28.112513 205.02292Q28.878138 205.35104 29.284388 206.0073Q29.690638 206.66354 29.690638 207.3823Q29.690638 207.91354 29.471888 208.33542Q29.237513 208.7573 28.909388 209.02292L31.940638 209.02292L31.940638 210.0698ZM26.471888 209.11667Q27.675013 209.11667 28.253138 208.6323Q28.815638 208.14792 28.815638 207.46042Q28.815638 206.7573 28.221888 206.2573Q27.628138 205.7573 26.378138 205.7573Q25.190638 205.7573 24.612513 206.24167Q24.018763 206.72604 24.018763 207.41354Q24.018763 208.08542 24.643763 208.60104Q25.268763 209.11667 26.471888 209.11667ZM29.550013 203.08542L23.331263 203.08542L23.331263 202.1323L24.268763 202.1323Q23.612513 201.77292 23.409388 201.47604Q23.190638 201.16354 23.190638 200.78854Q23.190638 200.2573 23.518763 199.71042L24.503138 200.0698Q24.268763 200.46042 24.268763 200.83542Q24.268763 201.1948 24.487513 201.47604Q24.690638 201.74167 25.065638 201.85104Q25.628138 202.03854 26.284388 202.03854L29.550013 202.03854L29.550013 203.08542ZM26.440638 199.46042Q24.706263 199.46042 23.878138 198.5073Q23.190638 197.71042 23.190638 196.55417Q23.190638 195.27292 24.034388 194.46042Q24.862513 193.6323 26.346888 193.6323Q27.550013 193.6323 28.237513 193.99167Q28.925013 194.35104 29.315638 195.05417Q29.690638 195.74167 29.690638 196.55417Q29.690638 197.85104 28.862513 198.66354Q28.018763 199.46042 26.440638 199.46042ZM26.440638 198.3823Q27.628138 198.3823 28.221888 197.86667Q28.815638 197.33542 28.815638 196.55417Q28.815638 195.7573 28.221888 195.24167Q27.628138 194.72604 26.409388 194.72604Q25.253138 194.72604 24.659388 195.2573Q24.065638 195.77292 24.065638 196.55417Q24.065638 197.33542 24.659388 197.86667Q25.237513 198.3823 26.440638 198.3823ZM27.268763 188.0073L27.409388 186.97604Q28.471888 187.14792 29.081263 187.85104Q29.690638 188.55417 29.690638 189.5698Q29.690638 190.85104 28.862513 191.6323Q28.018763 192.39792 26.456263 192.39792Q25.456263 192.39792 24.706263 192.0698Q23.940638 191.72604 23.565638 191.05417Q23.190638 190.36667 23.190638 189.55417Q23.190638 188.55417 23.706263 187.91354Q24.206263 187.2573 25.159388 187.0698L25.315638 188.10104Q24.690638 188.24167 24.378138 188.61667Q24.050013 188.99167 24.050013 189.52292Q24.050013 190.3198 24.628138 190.8198Q25.190638 191.3198 26.425013 191.3198Q27.690638 191.3198 28.253138 190.83542Q28.815638 190.35104 28.815638 189.58542Q28.815638 188.96042 28.440638 188.55417Q28.065638 188.1323 27.268763 188.0073ZM27.550013 181.8198L27.675013 180.72604Q28.628138 180.97604 29.159388 181.67917Q29.690638 182.3823 29.690638 183.46042Q29.690638 184.8198 28.846888 185.6323Q28.003138 186.42917 26.487513 186.42917Q24.925013 186.42917 24.065638 185.61667Q23.190638 184.80417 23.190638 183.52292Q23.190638 182.27292 24.034388 181.49167Q24.878138 180.6948 26.425013 180.6948Q26.518763 180.6948 26.706263 180.6948L26.706263 185.33542Q27.737513 185.27292 28.284388 184.7573Q28.815638 184.24167 28.815638 183.46042Q28.815638 182.8823 28.518763 182.47604Q28.206263 182.05417 27.550013 181.8198ZM25.846888 185.27292L25.846888 181.80417Q25.050013 181.86667 24.659388 182.1948Q24.050013 182.71042 24.050013 183.5073Q24.050013 184.24167 24.534388 184.74167Q25.018763 185.22604 25.846888 185.27292ZM27.690638 179.49167L27.534388 178.46042Q28.159388 178.36667 28.487513 177.97604Q28.815638 177.5698 28.815638 176.83542Q28.815638 176.11667 28.534388 175.77292Q28.237513 175.41354 27.831263 175.41354Q27.471888 175.41354 27.268763 175.72604Q27.128138 175.9448 26.909388 176.80417Q26.612513 177.96042 26.409388 178.41354Q26.190638 178.85104 25.815638 179.08542Q25.440638 179.3198 24.971888 179.3198Q24.565638 179.3198 24.206263 179.1323Q23.846888 178.9448 23.612513 178.61667Q23.440638 178.36667 23.315638 177.9448Q23.190638 177.52292 23.190638 177.02292Q23.190638 176.30417 23.409388 175.7573Q23.612513 175.1948 23.971888 174.92917Q24.331263 174.66354 24.925013 174.5698L25.065638 175.60104Q24.596888 175.66354 24.331263 176.0073Q24.050013 176.33542 24.050013 176.96042Q24.050013 177.67917 24.300013 177.99167Q24.534388 178.30417 24.862513 178.30417Q25.065638 178.30417 25.221888 178.17917Q25.393763 178.03854 25.503138 177.77292Q25.565638 177.61667 25.768763 176.83542Q26.081263 175.71042 26.268763 175.27292Q26.456263 174.83542 26.815638 174.58542Q27.175013 174.33542 27.721888 174.33542Q28.253138 174.33542 28.721888 174.64792Q29.175013 174.9448 29.440638 175.52292Q29.690638 176.10104 29.690638 176.83542Q29.690638 178.05417 29.190638 178.6948Q28.675013 179.3198 27.690638 179.49167ZM27.690638 172.49167L27.534388 171.46042Q28.159388 171.36667 28.487513 170.97604Q28.815638 170.5698 28.815638 169.83542Q28.815638 169.11667 28.534388 168.77292Q28.237513 168.41354 27.831263 168.41354Q27.471888 168.41354 27.268763 168.72604Q27.128138 168.9448 26.909388 169.80417Q26.612513 170.96042 26.409388 171.41354Q26.190638 171.85104 25.815638 172.08542Q25.440638 172.3198 24.971888 172.3198Q24.565638 172.3198 24.206263 172.1323Q23.846888 171.9448 23.612513 171.61667Q23.440638 171.36667 23.315638 170.9448Q23.190638 170.52292 23.190638 170.02292Q23.190638 169.30417 23.409388 168.7573Q23.612513 168.1948 23.971888 167.92917Q24.331263 167.66354 24.925013 167.5698L25.065638 168.60104Q24.596888 168.66354 24.331263 169.0073Q24.050013 169.33542 24.050013 169.96042Q24.050013 170.67917 24.300013 170.99167Q24.534388 171.30417 24.862513 171.30417Q25.065638 171.30417 25.221888 171.17917Q25.393763 171.03854 25.503138 170.77292Q25.565638 170.61667 25.768763 169.83542Q26.081263 168.71042 26.268763 168.27292Q26.456263 167.83542 26.815638 167.58542Q27.175013 167.33542 27.721888 167.33542Q28.253138 167.33542 28.721888 167.64792Q29.175013 167.9448 29.440638 168.52292Q29.690638 169.10104 29.690638 169.83542Q29.690638 171.05417 29.190638 171.6948Q28.675013 172.3198 27.690638 172.49167ZM22.175013 165.0698L20.956263 165.0698L20.956263 164.0073L22.175013 164.0073L22.175013 165.0698ZM29.550013 165.0698L23.331263 165.0698L23.331263 164.0073L29.550013 164.0073L29.550013 165.0698ZM29.550013 162.0698L23.331263 162.0698L23.331263 161.1323L24.206263 161.1323Q23.190638 160.4448 23.190638 159.14792Q23.190638 158.58542 23.393763 158.11667Q23.596888 157.6323 23.925013 157.39792Q24.253138 157.16354 24.690638 157.0698Q24.987513 157.02292 25.721888 157.02292L29.550013 157.02292L29.550013 158.0698L25.768763 158.0698Q25.112513 158.0698 24.800013 158.1948Q24.487513 158.3198 24.300013 158.6323Q24.096888 158.9448 24.096888 159.36667Q24.096888 160.03854 24.534388 160.53854Q24.956263 161.02292 26.143763 161.02292L29.550013 161.02292L29.550013 162.0698ZM30.065638 155.27292L30.221888 154.24167Q30.690638 154.17917 30.909388 153.8823Q31.206263 153.49167 31.206263 152.8198Q31.206263 152.08542 30.909388 151.6948Q30.612513 151.28854 30.096888 151.14792Q29.768763 151.05417 28.737513 151.0698Q29.550013 151.7573 29.550013 152.78854Q29.550013 154.0698 28.628138 154.77292Q27.690638 155.47604 26.409388 155.47604Q25.518763 155.47604 24.768763 155.16354Q24.003138 154.83542 23.596888 154.22604Q23.190638 153.61667 23.190638 152.78854Q23.190638 151.67917 24.081263 150.96042L23.331263 150.96042L23.331263 149.99167L28.706263 149.99167Q30.159388 149.99167 30.768763 150.28854Q31.378138 150.58542 31.721888 151.22604Q32.08126 151.86667 32.08126 152.80417Q32.08126 153.91354 31.581263 154.60104Q31.081263 155.28854 30.065638 155.27292ZM26.331263 154.39792Q27.550013 154.39792 28.112513 153.91354Q28.675013 153.42917 28.675013 152.6948Q28.675013 151.96042 28.112513 151.47604Q27.550013 150.97604 26.362513 150.97604Q25.221888 150.97604 24.643763 151.49167Q24.065638 151.99167 24.065638 152.71042Q24.065638 153.41354 24.643763 153.91354Q25.206263 154.39792 26.331263 154.39792Z" fill-rule="nonzero"/><path fill="#000000" d="M65.05 300.21564Q65.05 298.6844 65.3625 297.7625Q65.675 296.825 66.28438 296.325Q66.90938 295.825 67.84688 295.825Q68.53438 295.825 69.05 296.10626Q69.58125 296.3875 69.925 296.91876Q70.26875 297.4344 70.45625 298.1844Q70.64375 298.9344 70.64375 300.21564Q70.64375 301.73126 70.33125 302.65314Q70.03438 303.575 69.40938 304.09064Q68.8 304.59064 67.84688 304.59064Q66.6125 304.59064 65.89375 303.7Q65.05 302.6375 65.05 300.21564ZM66.12813 300.21564Q66.12813 302.325 66.62813 303.02814Q67.12813 303.73126 67.84688 303.73126Q68.58125 303.73126 69.06563 303.02814Q69.56563 302.325 69.56563 300.21564Q69.56563 298.09064 69.06563 297.40314Q68.58125 296.7 67.83125 296.7Q67.1125 296.7 66.675 297.3094Q66.12813 298.09064 66.12813 300.21564Z" fill-rule="nonzero"/><path fill="#000000" d="M63.596874 261.00104L63.596874 262.01666L57.909374 262.01666Q57.909374 261.64166 58.034374 261.2823Q58.253124 260.70416 58.721874 260.14166Q59.20625 259.57916 60.1125 258.8448Q61.51875 257.68854 62.003124 257.01666Q62.503124 256.3448 62.503124 255.75104Q62.503124 255.12604 62.05 254.70416Q61.596874 254.26666 60.878124 254.26666Q60.1125 254.26666 59.659374 254.71979Q59.20625 255.17291 59.190624 255.98541L58.1125 255.87604Q58.221874 254.65729 58.940624 254.03229Q59.675 253.39166 60.909374 253.39166Q62.14375 253.39166 62.8625 254.07916Q63.58125 254.76666 63.58125 255.78229Q63.58125 256.2979 63.3625 256.7979Q63.159374 257.2823 62.659374 257.8448Q62.175 258.39166 61.05 259.3448Q60.096874 260.14166 59.815624 260.43854Q59.55 260.7198 59.378124 261.00104L63.596874 261.00104ZM65.05 259.76666L66.15938 259.6729Q66.28438 260.4854 66.72188 260.89166Q67.175 261.2979 67.81563 261.2979Q68.56563 261.2979 69.09688 260.7198Q69.62813 260.14166 69.62813 259.20416Q69.62813 258.2979 69.1125 257.7823Q68.6125 257.25104 67.78438 257.25104Q67.28438 257.25104 66.8625 257.4854Q66.45625 257.7198 66.22188 258.07916L65.2375 257.95416L66.06563 253.54791L70.34688 253.54791L70.34688 254.54791L66.90938 254.54791L66.45625 256.8604Q67.22188 256.31354 68.06563 256.31354Q69.19063 256.31354 69.95625 257.0948Q70.7375 257.87604 70.7375 259.1104Q70.7375 260.26666 70.06563 261.12604Q69.2375 262.1573 67.81563 262.1573Q66.64375 262.1573 65.89375 261.50104Q65.15938 260.8448 65.05 259.76666Z" fill-rule="nonzero"/><path fill="#000000" d="M58.05 217.33333L59.159374 217.23958Q59.284374 218.05208 59.721874 218.45833Q60.175 218.86458 60.815624 218.86458Q61.565624 218.86458 62.096874 218.28645Q62.628124 217.70833 62.628124 216.77083Q62.628124 215.86458 62.1125 215.34895Q61.6125 214.8177 60.784374 214.8177Q60.284374 214.8177 59.8625 215.05208Q59.45625 215.28645 59.221874 215.64583L58.2375 215.52083L59.065624 211.11458L63.346874 211.11458L63.346874 212.11458L59.909374 212.11458L59.45625 214.42708Q60.221874 213.8802 61.065624 213.8802Q62.190624 213.8802 62.95625 214.66145Q63.7375 215.4427 63.7375 216.67708Q63.7375 217.83333 63.065624 218.6927Q62.2375 219.72395 60.815624 219.72395Q59.64375 219.72395 58.89375 219.0677Q58.159374 218.41145 58.05 217.33333ZM65.05 215.34895Q65.05 213.8177 65.3625 212.89583Q65.675 211.95833 66.28438 211.45833Q66.90938 210.95833 67.84688 210.95833Q68.53438 210.95833 69.05 211.23958Q69.58125 211.52083 69.925 212.05208Q70.26875 212.5677 70.45625 213.3177Q70.64375 214.0677 70.64375 215.34895Q70.64375 216.86458 70.33125 217.78645Q70.03438 218.70833 69.40938 219.22395Q68.8 219.72395 67.84688 219.72395Q66.6125 219.72395 65.89375 218.83333Q65.05 217.77083 65.05 215.34895ZM66.12813 215.34895Q66.12813 217.45833 66.62813 218.16145Q67.12813 218.86458 67.84688 218.86458Q68.58125 218.86458 69.06563 218.16145Q69.56563 217.45833 69.56563 215.34895Q69.56563 213.22395 69.06563 212.53645Q68.58125 211.83333 67.83125 211.83333Q67.1125 211.83333 66.675 212.4427Q66.12813 213.22395 66.12813 215.34895Z" fill-rule="nonzero"/><path fill="#000000" d="M58.1125 169.68124L58.1125 168.66562L63.675 168.66562L63.675 169.49374Q62.8625 170.36874 62.05 171.82187Q61.253124 173.25937 60.815624 174.79062Q60.4875 175.86874 60.409374 177.15L59.315624 177.15Q59.33125 176.13437 59.70625 174.69687Q60.096874 173.25937 60.8 171.93124Q61.51875 170.60312 62.33125 169.68124L58.1125 169.68124ZM65.05 174.9L66.15938 174.80624Q66.28438 175.61874 66.72188 176.025Q67.175 176.43124 67.81563 176.43124Q68.56563 176.43124 69.09688 175.85312Q69.62813 175.275 69.62813 174.3375Q69.62813 173.43124 69.1125 172.91562Q68.6125 172.38437 67.78438 172.38437Q67.28438 172.38437 66.8625 172.61874Q66.45625 172.85312 66.22188 173.2125L65.2375 173.0875L66.06563 168.68124L70.34688 168.68124L70.34688 169.68124L66.90938 169.68124L66.45625 171.99374Q67.22188 171.44687 68.06563 171.44687Q69.19063 171.44687 69.95625 172.22812Q70.7375 173.00937 70.7375 174.24374Q70.7375 175.4 70.06563 176.25937Q69.2375 177.29062 67.81563 177.29062Q66.64375 177.29062 65.89375 176.63437Q65.15938 175.97812 65.05 174.9Z" fill-rule="nonzero"/><path fill="#000000" d="M55.01875 134.71666L53.971874 134.71666L53.971874 127.99791Q53.58125 128.35728 52.95625 128.73228Q52.346874 129.09166 51.8625 129.26353L51.8625 128.24791Q52.7375 127.826035 53.39375 127.24791Q54.065624 126.65416 54.346874 126.09166L55.01875 126.09166L55.01875 134.71666ZM58.05 130.48228Q58.05 128.95103 58.3625 128.02916Q58.675 127.09166 59.284374 126.59166Q59.909374 126.09166 60.846874 126.09166Q61.534374 126.09166 62.05 126.37291Q62.58125 126.65416 62.925 127.18541Q63.26875 127.701035 63.45625 128.45103Q63.64375 129.20103 63.64375 130.48228Q63.64375 131.99791 63.33125 132.91978Q63.034374 133.84166 62.409374 134.35728Q61.8 134.85728 60.846874 134.85728Q59.6125 134.85728 58.89375 133.96666Q58.05 132.90416 58.05 130.48228ZM59.128124 130.48228Q59.128124 132.59166 59.628124 133.29478Q60.128124 133.99791 60.846874 133.99791Q61.58125 133.99791 62.065624 133.29478Q62.565624 132.59166 62.565624 130.48228Q62.565624 128.35728 62.065624 127.669785Q61.58125 126.96666 60.83125 126.96666Q60.1125 126.96666 59.675 127.576035Q59.128124 128.35728 59.128124 130.48228ZM65.05 130.48228Q65.05 128.95103 65.3625 128.02916Q65.675 127.09166 66.28438 126.59166Q66.90938 126.09166 67.84688 126.09166Q68.53438 126.09166 69.05 126.37291Q69.58125 126.65416 69.925 127.18541Q70.26875 127.701035 70.45625 128.45103Q70.64375 129.20103 70.64375 130.48228Q70.64375 131.99791 70.33125 132.91978Q70.03438 133.84166 69.40938 134.35728Q68.8 134.85728 67.84688 134.85728Q66.6125 134.85728 65.89375 133.96666Q65.05 132.90416 65.05 130.48228ZM66.12813 130.48228Q66.12813 132.59166 66.62813 133.29478Q67.12813 133.99791 67.84688 133.99791Q68.58125 133.99791 69.06563 133.29478Q69.56563 132.59166 69.56563 130.48228Q69.56563 128.35728 69.06563 127.669785Q68.58125 126.96666 67.83125 126.96666Q67.1125 126.96666 66.675 127.576035Q66.12813 128.35728 66.12813 130.48228Z" fill-rule="nonzero"/><path fill="#000000" d="M55.01875 92.28333L53.971874 92.28333L53.971874 85.56458Q53.58125 85.92396 52.95625 86.29896Q52.346874 86.65833 51.8625 86.83021L51.8625 85.81458Q52.7375 85.39271 53.39375 84.81458Q54.065624 84.22083 54.346874 83.65833L55.01875 83.65833L55.01875 92.28333ZM63.596874 91.26771L63.596874 92.28333L57.909374 92.28333Q57.909374 91.90833 58.034374 91.54896Q58.253124 90.97083 58.721874 90.40833Q59.20625 89.84583 60.1125 89.11146Q61.51875 87.95521 62.003124 87.28333Q62.503124 86.61146 62.503124 86.01771Q62.503124 85.39271 62.05 84.97083Q61.596874 84.53333 60.878124 84.53333Q60.1125 84.53333 59.659374 84.98646Q59.20625 85.43958 59.190624 86.25208L58.1125 86.14271Q58.221874 84.92396 58.940624 84.29896Q59.675 83.65833 60.909374 83.65833Q62.14375 83.65833 62.8625 84.34583Q63.58125 85.03333 63.58125 86.04896Q63.58125 86.56458 63.3625 87.06458Q63.159374 87.54896 62.659374 88.11146Q62.175 88.65833 61.05 89.61146Q60.096874 90.40833 59.815624 90.70521Q59.55 90.98646 59.378124 91.26771L63.596874 91.26771ZM65.05 90.03333L66.15938 89.93958Q66.28438 90.75208 66.72188 91.15833Q67.175 91.56458 67.81563 91.56458Q68.56563 91.56458 69.09688 90.98646Q69.62813 90.40833 69.62813 89.47083Q69.62813 88.56458 69.1125 88.04896Q68.6125 87.51771 67.78438 87.51771Q67.28438 87.51771 66.8625 87.75208Q66.45625 87.98646 66.22188 88.34583L65.2375 88.22083L66.06563 83.81458L70.34688 83.81458L70.34688 84.81458L66.90938 84.81458L66.45625 87.12708Q67.22188 86.58021 68.06563 86.58021Q69.19063 86.58021 69.95625 87.36146Q70.7375 88.14271 70.7375 89.37708Q70.7375 90.53333 70.06563 91.39271Q69.2375 92.42396 67.81563 92.42396Q66.64375 92.42396 65.89375 91.76771Q65.15938 91.11146 65.05 90.03333Z" fill-rule="nonzero"/><path fill="#000000" d="M81.36077 313.21564Q81.36077 311.6844 81.67327 310.7625Q81.98577 309.825 82.595146 309.325Q83.220146 308.825 84.157646 308.825Q84.845146 308.825 85.36077 309.10626Q85.89202 309.3875 86.23577 309.91876Q86.57952 310.4344 86.76702 311.1844Q86.95452 311.9344 86.95452 313.21564Q86.95452 314.73126 86.64202 315.65314Q86.345146 316.575 85.720146 317.09064Q85.11077 317.59064 84.157646 317.59064Q82.92327 317.59064 82.20452 316.7Q81.36077 315.6375 81.36077 313.21564ZM82.438896 313.21564Q82.438896 315.325 82.938896 316.02814Q83.438896 316.73126 84.157646 316.73126Q84.89202 316.73126 85.376396 316.02814Q85.876396 315.325 85.876396 313.21564Q85.876396 311.09064 85.376396 310.40314Q84.89202 309.7 84.14202 309.7Q83.42327 309.7 82.98577 310.3094Q82.438896 311.09064 82.438896 313.21564Z" fill-rule="nonzero"/><path fill="#000000" d="M172.15308 315.2L173.26245 315.10626Q173.38745 315.91876 173.82495 316.325Q174.27808 316.73126 174.9187 316.73126Q175.6687 316.73126 176.19995 316.15314Q176.7312 315.575 176.7312 314.6375Q176.7312 313.73126 176.21558 313.21564Q175.71558 312.6844 174.88745 312.6844Q174.38745 312.6844 173.96558 312.91876Q173.55933 313.15314 173.32495 313.5125L172.34058 313.3875L173.1687 308.98126L177.44995 308.98126L177.44995 309.98126L174.01245 309.98126L173.55933 312.29376Q174.32495 311.7469 175.1687 311.7469Q176.2937 311.7469 177.05933 312.52814Q177.84058 313.3094 177.84058 314.54376Q177.84058 315.7 177.1687 316.5594Q176.34058 317.59064 174.9187 317.59064Q173.74683 317.59064 172.99683 316.9344Q172.26245 316.27814 172.15308 315.2Z" fill-rule="nonzero"/><path fill="#000000" d="M263.41412 317.45L262.36725 317.45L262.36725 310.73126Q261.97662 311.09064 261.35162 311.46564Q260.74225 311.825 260.25787 311.9969L260.25787 310.98126Q261.13287 310.5594 261.78912 309.98126Q262.461 309.3875 262.74225 308.825L263.41412 308.825L263.41412 317.45ZM266.44537 313.21564Q266.44537 311.6844 266.75787 310.7625Q267.07037 309.825 267.67975 309.325Q268.30475 308.825 269.24225 308.825Q269.92975 308.825 270.44537 309.10626Q270.97662 309.3875 271.32037 309.91876Q271.66412 310.4344 271.85162 311.1844Q272.03912 311.9344 272.03912 313.21564Q272.03912 314.73126 271.72662 315.65314Q271.42975 316.575 270.80475 317.09064Q270.19537 317.59064 269.24225 317.59064Q268.00787 317.59064 267.28912 316.7Q266.44537 315.6375 266.44537 313.21564ZM267.5235 313.21564Q267.5235 315.325 268.0235 316.02814Q268.5235 316.73126 269.24225 316.73126Q269.97662 316.73126 270.461 316.02814Q270.961 315.325 270.961 313.21564Q270.961 311.09064 270.461 310.40314Q269.97662 309.7 269.22662 309.7Q268.50787 309.7 268.07037 310.3094Q267.5235 311.09064 267.5235 313.21564Z" fill-rule="nonzero"/><path fill="#000000" d="M354.20645 317.45L353.15958 317.45L353.15958 310.73126Q352.76895 311.09064 352.14395 311.46564Q351.53458 311.825 351.0502 311.9969L351.0502 310.98126Q351.9252 310.5594 352.58145 309.98126Q353.25333 309.3875 353.53458 308.825L354.20645 308.825L354.20645 317.45ZM357.2377 315.2L358.34708 315.10626Q358.47208 315.91876 358.90958 316.325Q359.3627 316.73126 360.00333 316.73126Q360.75333 316.73126 361.28458 316.15314Q361.81583 315.575 361.81583 314.6375Q361.81583 313.73126 361.3002 313.21564Q360.8002 312.6844 359.97208 312.6844Q359.47208 312.6844 359.0502 312.91876Q358.64395 313.15314 358.40958 313.5125L357.4252 313.3875L358.25333 308.98126L362.53458 308.98126L362.53458 309.98126L359.09708 309.98126L358.64395 312.29376Q359.40958 311.7469 360.25333 311.7469Q361.37833 311.7469 362.14395 312.52814Q362.9252 313.3094 362.9252 314.54376Q362.9252 315.7 362.25333 316.5594Q361.4252 317.59064 360.00333 317.59064Q358.83145 317.59064 358.08145 316.9344Q357.34708 316.27814 357.2377 315.2Z" fill-rule="nonzero"/><path fill="#000000" d="M446.57687 316.4344L446.57687 317.45L440.88937 317.45Q440.88937 317.075 441.01437 316.71564Q441.23312 316.1375 441.70187 315.575Q442.18625 315.0125 443.0925 314.27814Q444.49875 313.1219 444.98312 312.45Q445.48312 311.77814 445.48312 311.1844Q445.48312 310.5594 445.03 310.1375Q444.57687 309.7 443.85812 309.7Q443.0925 309.7 442.63937 310.15314Q442.18625 310.60626 442.17062 311.41876L441.0925 311.3094Q441.20187 310.09064 441.92062 309.46564Q442.655 308.825 443.88937 308.825Q445.12375 308.825 445.8425 309.5125Q446.56125 310.2 446.56125 311.21564Q446.56125 311.73126 446.3425 312.23126Q446.13937 312.71564 445.63937 313.27814Q445.155 313.825 444.03 314.77814Q443.07687 315.575 442.79562 315.8719Q442.53 316.15314 442.35812 316.4344L446.57687 316.4344ZM448.03 313.21564Q448.03 311.6844 448.3425 310.7625Q448.655 309.825 449.26437 309.325Q449.88937 308.825 450.82687 308.825Q451.51437 308.825 452.03 309.10626Q452.56125 309.3875 452.905 309.91876Q453.24875 310.4344 453.43625 311.1844Q453.62375 311.9344 453.62375 313.21564Q453.62375 314.73126 453.31125 315.65314Q453.01437 316.575 452.38937 317.09064Q451.78 317.59064 450.82687 317.59064Q449.5925 317.59064 448.87375 316.7Q448.03 315.6375 448.03 313.21564ZM449.10812 313.21564Q449.10812 315.325 449.60812 316.02814Q450.10812 316.73126 450.82687 316.73126Q451.56125 316.73126 452.04562 316.02814Q452.54562 315.325 452.54562 313.21564Q452.54562 311.09064 452.04562 310.40314Q451.56125 309.7 450.81125 309.7Q450.0925 309.7 449.655 310.3094Q449.10812 311.09064 449.10812 313.21564Z" fill-rule="nonzero"/><path fill="#000000" d="M537.3692 316.4344L537.3692 317.45L531.6817 317.45Q531.6817 317.075 531.8067 316.71564Q532.02545 316.1375 532.4942 315.575Q532.9786 315.0125 533.8848 314.27814Q535.2911 313.1219 535.77545 312.45Q536.27545 311.77814 536.27545 311.1844Q536.27545 310.5594 535.8223 310.1375Q535.3692 309.7 534.65045 309.7Q533.8848 309.7 533.4317 310.15314Q532.9786 310.60626 532.96295 311.41876L531.8848 311.3094Q531.9942 310.09064 532.71295 309.46564Q533.4473 308.825 534.6817 308.825Q535.9161 308.825 536.6348 309.5125Q537.3536 310.2 537.3536 311.21564Q537.3536 311.73126 537.1348 312.23126Q536.9317 312.71564 536.4317 313.27814Q535.9473 313.825 534.8223 314.77814Q533.8692 315.575 533.58795 315.8719Q533.3223 316.15314 533.15045 316.4344L537.3692 316.4344ZM538.8223 315.2L539.9317 315.10626Q540.0567 315.91876 540.4942 316.325Q540.9473 316.73126 541.58795 316.73126Q542.33795 316.73126 542.8692 316.15314Q543.40045 315.575 543.40045 314.6375Q543.40045 313.73126 542.8848 313.21564Q542.3848 312.6844 541.5567 312.6844Q541.0567 312.6844 540.6348 312.91876Q540.2286 313.15314 539.9942 313.5125L539.0098 313.3875L539.83795 308.98126L544.1192 308.98126L544.1192 309.98126L540.6817 309.98126L540.2286 312.29376Q540.9942 311.7469 541.83795 311.7469Q542.96295 311.7469 543.7286 312.52814Q544.5098 313.3094 544.5098 314.54376Q544.5098 315.7 543.83795 316.5594Q543.0098 317.59064 541.58795 317.59064Q540.4161 317.59064 539.6661 316.9344Q538.9317 316.27814 538.8223 315.2Z" fill-rule="nonzero"/><path fill="#4285f4" d="M258.0 61.916668C258.0 65.23038 255.3137 67.916664 252.0 67.916664C248.6863 67.916664 246.0 65.23038 246.0 61.916668C246.0 58.60296 248.6863 55.916668 252.0 55.916668C255.3137 55.916668 258.0 58.60296 258.0 61.916668Z" fill-rule="nonzero"/><path fill="#1a1a1a" d="M270.95312 62.541664L270.95312 61.541664L274.57812 61.52604L274.57812 64.71354Q273.75 65.385414 272.85938 65.729164Q271.96875 66.05729 271.03125 66.05729Q269.76562 66.05729 268.71875 65.52604Q267.6875 64.979164 267.15625 63.96354Q266.64062 62.93229 266.64062 61.666664Q266.64062 60.40104 267.15625 59.322914Q267.6875 58.229164 268.67188 57.71354Q269.65625 57.18229 270.9375 57.18229Q271.875 57.18229 272.625 57.479164Q273.375 57.77604 273.79688 58.322914Q274.23438 58.854164 274.45312 59.729164L273.4375 60.010414Q273.23438 59.354164 272.9375 58.979164Q272.65625 58.604164 272.125 58.385414Q271.59375 58.15104 270.95312 58.15104Q270.17188 58.15104 269.59375 58.385414Q269.03125 58.61979 268.67188 59.010414Q268.32812 59.40104 268.14062 59.86979Q267.8125 60.666664 267.8125 61.58854Q267.8125 62.74479 268.20312 63.52604Q268.60938 64.291664 269.35938 64.666664Q270.10938 65.041664 270.96875 65.041664Q271.70312 65.041664 272.40625 64.760414Q273.10938 64.46354 273.46875 64.15104L273.46875 62.541664L270.95312 62.541664ZM275.92188 65.916664L275.92188 57.322914L279.17188 57.322914Q280.01562 57.322914 280.46875 57.40104Q281.10938 57.510414 281.53125 57.80729Q281.96875 58.104164 282.21875 58.635414Q282.48438 59.166664 282.48438 59.80729Q282.48438 60.90104 281.78125 61.666664Q281.09375 62.416664 279.26562 62.416664L277.0625 62.416664L277.0625 65.916664L275.92188 65.916664ZM277.0625 61.416664L279.28125 61.416664Q280.39062 61.416664 280.84375 61.010414Q281.3125 60.58854 281.3125 59.83854Q281.3125 59.30729 281.03125 58.93229Q280.76562 58.541664 280.32812 58.416664Q280.03125 58.33854 279.26562 58.33854L277.0625 58.33854L277.0625 61.416664ZM289.5625 57.322914L290.70312 57.322914L290.70312 62.291664Q290.70312 63.58854 290.40625 64.354164Q290.10938 65.104164 289.34375 65.58854Q288.57812 66.05729 287.34375 66.05729Q286.14062 66.05729 285.35938 65.65104Q284.59375 65.229164 284.26562 64.447914Q283.9375 63.65104 283.9375 62.291664L283.9375 57.322914L285.07812 57.322914L285.07812 62.27604Q285.07812 63.40104 285.28125 63.93229Q285.5 64.46354 286.0 64.760414Q286.51562 65.041664 287.25 65.041664Q288.5 65.041664 289.03125 64.479164Q289.5625 63.90104 289.5625 62.27604L289.5625 57.322914Z" fill-rule="nonzero"/><path stroke="#ea4335" stroke-width="4.0" stroke-linecap="butt" d="M308.0 61.916668L320.0 61.916668" fill-rule="nonzero"/><path fill="#1a1a1a" d="M335.0625 62.90104L336.1875 63.197914Q335.82812 64.58854 334.90625 65.322914Q333.98438 66.05729 332.64062 66.05729Q331.25 66.05729 330.375 65.49479Q329.5 64.93229 329.04688 63.86979Q328.59375 62.791664 328.59375 61.55729Q328.59375 60.21354 329.10938 59.21354Q329.625 58.21354 330.5625 57.697914Q331.51562 57.18229 332.65625 57.18229Q333.9375 57.18229 334.8125 57.83854Q335.70312 58.49479 336.04688 59.68229L334.92188 59.947914Q334.625 59.010414 334.04688 58.58854Q333.48438 58.15104 332.625 58.15104Q331.64062 58.15104 330.96875 58.635414Q330.3125 59.104164 330.03125 59.90104Q329.76562 60.697914 329.76562 61.55729Q329.76562 62.65104 330.07812 63.46354Q330.40625 64.27604 331.07812 64.68229Q331.75 65.08854 332.54688 65.08854Q333.5 65.08854 334.15625 64.541664Q334.82812 63.99479 335.0625 62.90104ZM337.92188 65.916664L337.92188 57.322914L341.17188 57.322914Q342.01562 57.322914 342.46875 57.40104Q343.10938 57.510414 343.53125 57.80729Q343.96875 58.104164 344.21875 58.635414Q344.48438 59.166664 344.48438 59.80729Q344.48438 60.90104 343.78125 61.666664Q343.09375 62.416664 341.26562 62.416664L339.0625 62.416664L339.0625 65.916664L337.92188 65.916664ZM339.0625 61.416664L341.28125 61.416664Q342.39062 61.416664 342.84375 61.010414Q343.3125 60.58854 343.3125 59.83854Q343.3125 59.30729 343.03125 58.93229Q342.76562 58.541664 342.32812 58.416664Q342.03125 58.33854 341.26562 58.33854L339.0625 58.33854L339.0625 61.416664ZM351.5625 57.322914L352.70312 57.322914L352.70312 62.291664Q352.70312 63.58854 352.40625 64.354164Q352.10938 65.104164 351.34375 65.58854Q350.57812 66.05729 349.34375 66.05729Q348.14062 66.05729 347.35938 65.65104Q346.59375 65.229164 346.26562 64.447914Q345.9375 63.65104 345.9375 62.291664L345.9375 57.322914L347.07812 57.322914L347.07812 62.27604Q347.07812 63.40104 347.28125 63.93229Q347.5 64.46354 348.0 64.760414Q348.51562 65.041664 349.25 65.041664Q350.5 65.041664 351.03125 64.479164Q351.5625 63.90104 351.5625 62.27604L351.5625 57.322914Z" fill-rule="nonzero"/><path fill="#757575" d="M20.096874 37.55L20.096874 23.2375L25.4875 23.2375Q26.925 23.2375 27.675 23.3625Q28.721874 23.55 29.440624 24.05Q30.159374 24.534374 30.58125 25.425Q31.01875 26.315624 31.01875 27.378124Q31.01875 29.20625 29.846874 30.471874Q28.690624 31.721874 25.659374 31.721874L21.9875 31.721874L21.9875 37.55L20.096874 37.55ZM21.9875 30.034374L25.690624 30.034374Q27.51875 30.034374 28.284374 29.3625Q29.065624 28.675 29.065624 27.425Q29.065624 26.534374 28.6125 25.89375Q28.159374 25.253124 27.425 25.05Q26.940624 24.925 25.64375 24.925L21.9875 24.925L21.9875 30.034374ZM32.846874 37.55L32.846874 27.175L34.425 27.175L34.425 28.753124Q35.034374 27.64375 35.55 27.3Q36.065624 26.940624 36.675 26.940624Q37.565624 26.940624 38.4875 27.503124L37.878124 29.14375Q37.2375 28.753124 36.596874 28.753124Q36.01875 28.753124 35.55 29.1125Q35.096874 29.45625 34.89375 30.065624Q34.6125 31.003124 34.6125 32.1125L34.6125 37.55L32.846874 37.55ZM39.221874 32.3625Q39.221874 29.4875 40.815624 28.096874Q42.159374 26.940624 44.08125 26.940624Q46.221874 26.940624 47.565624 28.346874Q48.925 29.753124 48.925 32.221874Q48.925 34.221874 48.33125 35.378124Q47.7375 36.51875 46.58125 37.159374Q45.440624 37.784374 44.08125 37.784374Q41.89375 37.784374 40.55 36.39375Q39.221874 34.9875 39.221874 32.3625ZM41.01875 32.3625Q41.01875 34.3625 41.878124 35.346874Q42.753124 36.33125 44.08125 36.33125Q45.39375 36.33125 46.253124 35.346874Q47.128124 34.346874 47.128124 32.3Q47.128124 30.378124 46.253124 29.39375Q45.378124 28.39375 44.08125 28.39375Q42.753124 28.39375 41.878124 29.39375Q41.01875 30.378124 41.01875 32.3625ZM50.8625 37.55L50.8625 27.175L52.440624 27.175L52.440624 28.628124Q52.925 27.878124 53.7375 27.409374Q54.55 26.940624 55.58125 26.940624Q56.7375 26.940624 57.471874 27.425Q58.20625 27.89375 58.51875 28.753124Q59.753124 26.940624 61.721874 26.940624Q63.26875 26.940624 64.09688 27.8Q64.925 28.659374 64.925 30.425L64.925 37.55L63.175 37.55L63.175 31.01875Q63.175 29.95625 63.003124 29.503124Q62.83125 29.034374 62.378124 28.753124Q61.940624 28.471874 61.33125 28.471874Q60.2375 28.471874 59.503124 29.20625Q58.784374 29.925 58.784374 31.51875L58.784374 37.55L57.034374 37.55L57.034374 30.815624Q57.034374 29.64375 56.596874 29.065624Q56.175 28.471874 55.190624 28.471874Q54.45625 28.471874 53.815624 28.8625Q53.190624 29.253124 52.909374 30.003124Q52.628124 30.753124 52.628124 32.175L52.628124 37.55L50.8625 37.55ZM66.8625 41.51875L66.8625 27.175L68.47188 27.175L68.47188 28.51875Q69.03438 27.7375 69.7375 27.346874Q70.45625 26.940624 71.47188 26.940624Q72.8 26.940624 73.81563 27.628124Q74.83125 28.315624 75.34688 29.565624Q75.87813 30.8 75.87813 32.284374Q75.87813 33.878124 75.3 35.159374Q74.7375 36.425 73.64375 37.1125Q72.55 37.784374 71.34688 37.784374Q70.47188 37.784374 69.76875 37.409374Q69.08125 37.034374 68.62813 36.471874L68.62813 41.51875L66.8625 41.51875ZM68.45625 32.425Q68.45625 34.425 69.26875 35.378124Q70.08125 36.33125 71.2375 36.33125Q72.40938 36.33125 73.2375 35.346874Q74.08125 34.3625 74.08125 32.26875Q74.08125 30.3 73.25313 29.315624Q72.44063 28.315624 71.31563 28.315624Q70.19063 28.315624 69.31563 29.378124Q68.45625 30.425 68.45625 32.425ZM81.70625 35.971874L81.95625 37.534374Q81.22188 37.690624 80.62813 37.690624Q79.675 37.690624 79.14375 37.39375Q78.62813 37.08125 78.40938 36.596874Q78.19063 36.096874 78.19063 34.51875L78.19063 28.55L76.90938 28.55L76.90938 27.175L78.19063 27.175L78.19063 24.6125L79.94063 23.55L79.94063 27.175L81.70625 27.175L81.70625 28.55L79.94063 28.55L79.94063 34.6125Q79.94063 35.3625 80.03438 35.58125Q80.12813 35.784374 80.33125 35.925Q80.55 36.05 80.94063 36.05Q81.22188 36.05 81.70625 35.971874ZM90.09688 37.55L90.09688 23.2375L95.4875 23.2375Q96.925 23.2375 97.675 23.3625Q98.72188 23.55 99.44063 24.05Q100.15938 24.534374 100.58125 25.425Q101.01875 26.315624 101.01875 27.378124Q101.01875 29.20625 99.84688 30.471874Q98.69063 31.721874 95.65938 31.721874L91.9875 31.721874L91.9875 37.55L90.09688 37.55ZM91.9875 30.034374L95.69063 30.034374Q97.51875 30.034374 98.28438 29.3625Q99.06563 28.675 99.06563 27.425Q99.06563 26.534374 98.6125 25.89375Q98.15938 25.253124 97.425 25.05Q96.94063 24.925 95.64375 24.925L91.9875 24.925L91.9875 30.034374ZM102.84688 37.55L102.84688 27.175L104.425 27.175L104.425 28.753124Q105.03438 27.64375 105.55 27.3Q106.06563 26.940624 106.675 26.940624Q107.56563 26.940624 108.4875 27.503124L107.87813 29.14375Q107.2375 28.753124 106.59688 28.753124Q106.01875 28.753124 105.55 29.1125Q105.09688 29.45625 104.89375 30.065624Q104.6125 31.003124 104.6125 32.1125L104.6125 37.55L102.84688 37.55ZM109.22188 32.3625Q109.22188 29.4875 110.81563 28.096874Q112.15938 26.940624 114.08125 26.940624Q116.22188 26.940624 117.56563 28.346874Q118.925 29.753124 118.925 32.221874Q118.925 34.221874 118.33125 35.378124Q117.7375 36.51875 116.58125 37.159374Q115.44063 37.784374 114.08125 37.784374Q111.89375 37.784374 110.55 36.39375Q109.22188 34.9875 109.22188 32.3625ZM111.01875 32.3625Q111.01875 34.3625 111.87813 35.346874Q112.75313 36.33125 114.08125 36.33125Q115.39375 36.33125 116.25313 35.346874Q117.12813 34.346874 117.12813 32.3Q117.12813 30.378124 116.25313 29.39375Q115.37813 28.39375 114.08125 28.39375Q112.75313 28.39375 111.87813 29.39375Q111.01875 30.378124 111.01875 32.3625ZM127.64375 33.753124L129.3625 33.971874Q129.08125 35.76875 127.90938 36.784374Q126.75313 37.784374 125.05 37.784374Q122.925 37.784374 121.62813 36.39375Q120.33125 35.003124 120.33125 32.409374Q120.33125 30.721874 120.87813 29.471874Q121.44063 28.20625 122.58125 27.58125Q123.72188 26.940624 125.06563 26.940624Q126.75313 26.940624 127.81563 27.8Q128.89375 28.659374 129.20625 30.221874L127.4875 30.4875Q127.25313 29.440624 126.62813 28.925Q126.00313 28.39375 125.12813 28.39375Q123.8 28.39375 122.97188 29.346874Q122.14375 30.3 122.14375 32.346874Q122.14375 34.440624 122.94063 35.39375Q123.7375 36.33125 125.03438 36.33125Q126.06563 36.33125 126.75313 35.70625Q127.45625 35.065624 127.64375 33.753124ZM137.97188 34.20625L139.78438 34.440624Q139.3625 36.01875 138.19063 36.909374Q137.03438 37.784374 135.22188 37.784374Q132.95625 37.784374 131.6125 36.39375Q130.28438 34.9875 130.28438 32.45625Q130.28438 29.83125 131.62813 28.39375Q132.97188 26.940624 135.12813 26.940624Q137.20625 26.940624 138.51875 28.3625Q139.84688 29.76875 139.84688 32.346874Q139.84688 32.503124 139.83125 32.815624L132.09688 32.815624Q132.19063 34.51875 133.06563 35.425Q133.94063 36.33125 135.2375 36.33125Q136.20625 36.33125 136.87813 35.83125Q137.56563 35.315624 137.97188 34.20625ZM132.19063 31.3625L137.9875 31.3625Q137.87813 30.065624 137.33125 29.409374Q136.4875 28.39375 135.14375 28.39375Q133.94063 28.39375 133.1125 29.20625Q132.28438 30.003124 132.19063 31.3625ZM141.15938 34.45625L142.90938 34.175Q143.05 35.221874 143.72188 35.784374Q144.39375 36.33125 145.59688 36.33125Q146.8 36.33125 147.37813 35.846874Q147.97188 35.346874 147.97188 34.690624Q147.97188 34.096874 147.45625 33.753124Q147.09688 33.51875 145.65938 33.159374Q143.72188 32.659374 142.97188 32.315624Q142.2375 31.95625 141.84688 31.33125Q141.45625 30.690624 141.45625 29.925Q141.45625 29.2375 141.76875 28.64375Q142.09688 28.05 142.64375 27.659374Q143.05 27.3625 143.75313 27.159374Q144.47188 26.940624 145.28438 26.940624Q146.50313 26.940624 147.425 27.3Q148.34688 27.64375 148.78438 28.253124Q149.22188 28.846874 149.39375 29.846874L147.675 30.08125Q147.55 29.284374 146.9875 28.846874Q146.425 28.39375 145.40938 28.39375Q144.19063 28.39375 143.675 28.8Q143.15938 29.190624 143.15938 29.721874Q143.15938 30.065624 143.37813 30.346874Q143.58125 30.628124 144.05 30.815624Q144.31563 30.909374 145.59688 31.253124Q147.47188 31.753124 148.20625 32.08125Q148.94063 32.39375 149.3625 33.003124Q149.78438 33.596874 149.78438 34.503124Q149.78438 35.378124 149.26875 36.159374Q148.75313 36.940624 147.78438 37.3625Q146.81563 37.784374 145.59688 37.784374Q143.58125 37.784374 142.51875 36.940624Q141.45625 36.096874 141.15938 34.45625ZM151.15938 34.45625L152.90938 34.175Q153.05 35.221874 153.72188 35.784374Q154.39375 36.33125 155.59688 36.33125Q156.8 36.33125 157.37813 35.846874Q157.97188 35.346874 157.97188 34.690624Q157.97188 34.096874 157.45625 33.753124Q157.09688 33.51875 155.65938 33.159374Q153.72188 32.659374 152.97188 32.315624Q152.2375 31.95625 151.84688 31.33125Q151.45625 30.690624 151.45625 29.925Q151.45625 29.2375 151.76875 28.64375Q152.09688 28.05 152.64375 27.659374Q153.05 27.3625 153.75313 27.159374Q154.47188 26.940624 155.28438 26.940624Q156.50313 26.940624 157.425 27.3Q158.34688 27.64375 158.78438 28.253124Q159.22188 28.846874 159.39375 29.846874L157.675 30.08125Q157.55 29.284374 156.9875 28.846874Q156.425 28.39375 155.40938 28.39375Q154.19063 28.39375 153.675 28.8Q153.15938 29.190624 153.15938 29.721874Q153.15938 30.065624 153.37813 30.346874Q153.58125 30.628124 154.05 30.815624Q154.31563 30.909374 155.59688 31.253124Q157.47188 31.753124 158.20625 32.08125Q158.94063 32.39375 159.3625 33.003124Q159.78438 33.596874 159.78438 34.503124Q159.78438 35.378124 159.26875 36.159374Q158.75313 36.940624 157.78438 37.3625Q156.81563 37.784374 155.59688 37.784374Q153.58125 37.784374 152.51875 36.940624Q151.45625 36.096874 151.15938 34.45625ZM161.87813 25.253124L161.87813 23.2375L163.64375 23.2375L163.64375 25.253124L161.87813 25.253124ZM161.87813 37.55L161.87813 27.175L163.64375 27.175L163.64375 37.55L161.87813 37.55ZM165.8625 37.55L165.8625 27.175L167.45625 27.175L167.45625 28.659374Q168.59688 26.940624 170.75313 26.940624Q171.69063 26.940624 172.47188 27.284374Q173.26875 27.6125 173.65938 28.159374Q174.05 28.70625 174.20625 29.45625Q174.3 29.95625 174.3 31.175L174.3 37.55L172.53438 37.55L172.53438 31.2375Q172.53438 30.159374 172.33125 29.628124Q172.12813 29.096874 171.59688 28.784374Q171.08125 28.471874 170.37813 28.471874Q169.25313 28.471874 168.44063 29.190624Q167.62813 29.89375 167.62813 31.878124L167.62813 37.55L165.8625 37.55ZM175.55 38.409374L177.25313 38.659374Q177.3625 39.45625 177.84688 39.815624Q178.50313 40.3 179.64375 40.3Q180.8625 40.3 181.51875 39.815624Q182.19063 39.33125 182.425 38.45625Q182.56563 37.909374 182.55 36.190624Q181.39375 37.55 179.675 37.55Q177.53438 37.55 176.3625 36.003124Q175.19063 34.45625 175.19063 32.3Q175.19063 30.815624 175.72188 29.565624Q176.26875 28.315624 177.28438 27.628124Q178.31563 26.940624 179.69063 26.940624Q181.51875 26.940624 182.72188 28.425L182.72188 27.175L184.33125 27.175L184.33125 36.14375Q184.33125 38.565624 183.83125 39.565624Q183.34688 40.58125 182.26875 41.159374Q181.20625 41.753124 179.64375 41.753124Q177.8 41.753124 176.64375 40.925Q175.50313 40.096874 175.55 38.409374ZM177.00313 32.175Q177.00313 34.221874 177.81563 35.159374Q178.62813 36.096874 179.84688 36.096874Q181.05 36.096874 181.8625 35.159374Q182.69063 34.221874 182.69063 32.2375Q182.69063 30.33125 181.84688 29.3625Q181.00313 28.39375 179.81563 28.39375Q178.64375 28.39375 177.81563 29.346874Q177.00313 30.3 177.00313 32.175ZM195.75313 37.55L191.8 27.175L193.65938 27.175L195.89375 33.39375Q196.25313 34.39375 196.55 35.471874Q196.78438 34.659374 197.20625 33.503124L199.50313 27.175L201.31563 27.175L197.39375 37.55L195.75313 37.55ZM201.15938 34.45625L202.90938 34.175Q203.05 35.221874 203.72188 35.784374Q204.39375 36.33125 205.59688 36.33125Q206.8 36.33125 207.37813 35.846874Q207.97188 35.346874 207.97188 34.690624Q207.97188 34.096874 207.45625 33.753124Q207.09688 33.51875 205.65938 33.159374Q203.72188 32.659374 202.97188 32.315624Q202.2375 31.95625 201.84688 31.33125Q201.45625 30.690624 201.45625 29.925Q201.45625 29.2375 201.76875 28.64375Q202.09688 28.05 202.64375 27.659374Q203.05 27.3625 203.75313 27.159374Q204.47188 26.940624 205.28438 26.940624Q206.50313 26.940624 207.425 27.3Q208.34688 27.64375 208.78438 28.253124Q209.22188 28.846874 209.39375 29.846874L207.675 30.08125Q207.55 29.284374 206.9875 28.846874Q206.425 28.39375 205.40938 28.39375Q204.19063 28.39375 203.675 28.8Q203.15938 29.190624 203.15938 29.721874Q203.15938 30.065624 203.37813 30.346874Q203.58125 30.628124 204.05 30.815624Q204.31563 30.909374 205.59688 31.253124Q207.47188 31.753124 208.20625 32.08125Q208.94063 32.39375 209.3625 33.003124Q209.78438 33.596874 209.78438 34.503124Q209.78438 35.378124 209.26875 36.159374Q208.75313 36.940624 207.78438 37.3625Q206.81563 37.784374 205.59688 37.784374Q203.58125 37.784374 202.51875 36.940624Q201.45625 36.096874 201.15938 34.45625ZM212.3625 37.55L212.3625 35.55L214.3625 35.55L214.3625 37.55L212.3625 37.55ZM223.55 37.8L224.40938 33.628124L222.75313 33.628124L222.75313 32.175L224.70625 32.175L225.425 28.628124L222.75313 28.628124L222.75313 27.175L225.72188 27.175L226.56563 22.9875L228.03438 22.9875L227.175 27.175L230.25313 27.175L231.1125 22.9875L232.58125 22.9875L231.7375 27.175L233.425 27.175L233.425 28.628124L231.44063 28.628124L230.70625 32.175L233.425 32.175L233.425 33.628124L230.40938 33.628124L229.56563 37.8L228.09688 37.8L228.94063 33.628124L225.87813 33.628124L225.01875 37.8L223.55 37.8ZM226.15938 32.175L229.2375 32.175L229.95625 28.628124L226.89375 28.628124L226.15938 32.175ZM240.22188 32.3625Q240.22188 29.4875 241.81563 28.096874Q243.15938 26.940624 245.08125 26.940624Q247.22188 26.940624 248.56563 28.346874Q249.925 29.753124 249.925 32.221874Q249.925 34.221874 249.33125 35.378124Q248.7375 36.51875 247.58125 37.159374Q246.44063 37.784374 245.08125 37.784374Q242.89375 37.784374 241.55 36.39375Q240.22188 34.9875 240.22188 32.3625ZM242.01875 32.3625Q242.01875 34.3625 242.87813 35.346874Q243.75313 36.33125 245.08125 36.33125Q246.39375 36.33125 247.25313 35.346874Q248.12813 34.346874 248.12813 32.3Q248.12813 30.378124 247.25313 29.39375Q246.37813 28.39375 245.08125 28.39375Q243.75313 28.39375 242.87813 29.39375Q242.01875 30.378124 242.01875 32.3625ZM252.28438 37.55L252.28438 28.55L250.7375 28.55L250.7375 27.175L252.28438 27.175L252.28438 26.08125Q252.28438 25.034374 252.47188 24.51875Q252.72188 23.83125 253.3625 23.409374Q254.00313 22.9875 255.15938 22.9875Q255.90938 22.9875 256.8 23.159374L256.53436 24.690624Q255.9875 24.596874 255.50313 24.596874Q254.70625 24.596874 254.3625 24.940624Q254.03438 25.284374 254.03438 26.221874L254.03438 27.175L256.0656 27.175L256.0656 28.55L254.03438 28.55L254.03438 37.55L252.28438 37.55ZM264.01874 37.55L264.01874 23.2375L265.90936 23.2375L265.90936 35.8625L272.95624 35.8625L272.95624 37.55L264.01874 37.55ZM281.64374 36.26875Q280.65936 37.096874 279.7531 37.440624Q278.84686 37.784374 277.8156 37.784374Q276.1125 37.784374 275.1906 36.95625Q274.26874 36.1125 274.26874 34.815624Q274.26874 34.05 274.6125 33.425Q274.97186 32.8 275.53436 32.425Q276.09686 32.034374 276.8 31.83125Q277.3156 31.70625 278.3625 31.565624Q280.4875 31.315624 281.4875 30.971874Q281.5031 30.6125 281.5031 30.503124Q281.5031 29.440624 281.0031 28.9875Q280.33124 28.39375 279.0031 28.39375Q277.7531 28.39375 277.15936 28.83125Q276.58124 29.26875 276.3 30.378124L274.58124 30.14375Q274.8156 29.034374 275.34686 28.3625Q275.8781 27.675 276.89374 27.315624Q277.90936 26.940624 279.2531 26.940624Q280.58124 26.940624 281.40936 27.253124Q282.2375 27.565624 282.6281 28.05Q283.01874 28.51875 283.175 29.2375Q283.26874 29.690624 283.26874 30.8625L283.26874 33.20625Q283.26874 35.659374 283.3781 36.315624Q283.4875 36.95625 283.83124 37.55L281.9875 37.55Q281.72186 37.003124 281.64374 36.26875ZM281.4875 32.346874Q280.53436 32.7375 278.6125 33.003124Q277.53436 33.159374 277.08124 33.3625Q276.64374 33.55 276.39374 33.925Q276.14374 34.3 276.14374 34.76875Q276.14374 35.471874 276.675 35.940624Q277.20624 36.409374 278.2375 36.409374Q279.2531 36.409374 280.03436 35.971874Q280.83124 35.51875 281.20624 34.753124Q281.4875 34.14375 281.4875 32.9875L281.4875 32.346874ZM285.78436 41.55L285.59686 39.89375Q286.175 40.05 286.59686 40.05Q287.1906 40.05 287.53436 39.846874Q287.89374 39.659374 288.1125 39.315624Q288.28436 39.05 288.65936 38.003124Q288.70624 37.846874 288.8156 37.565624L284.8781 27.175L286.76874 27.175L288.925 33.190624Q289.34686 34.33125 289.675 35.58125Q289.9875 34.378124 290.39374 33.221874L292.6125 27.175L294.3781 27.175L290.425 37.721874Q289.8 39.440624 289.4406 40.08125Q288.97186 40.95625 288.3625 41.346874Q287.76874 41.753124 286.925 41.753124Q286.40936 41.753124 285.78436 41.55ZM302.97186 34.20625L304.78436 34.440624Q304.3625 36.01875 303.1906 36.909374Q302.03436 37.784374 300.22186 37.784374Q297.95624 37.784374 296.6125 36.39375Q295.28436 34.9875 295.28436 32.45625Q295.28436 29.83125 296.6281 28.39375Q297.97186 26.940624 300.1281 26.940624Q302.20624 26.940624 303.51874 28.3625Q304.84686 29.76875 304.84686 32.346874Q304.84686 32.503124 304.83124 32.815624L297.09686 32.815624Q297.1906 34.51875 298.0656 35.425Q298.9406 36.33125 300.2375 36.33125Q301.20624 36.33125 301.8781 35.83125Q302.5656 35.315624 302.97186 34.20625ZM297.1906 31.3625L302.9875 31.3625Q302.8781 30.065624 302.33124 29.409374Q301.4875 28.39375 300.14374 28.39375Q298.9406 28.39375 298.1125 29.20625Q297.28436 30.003124 297.1906 31.3625ZM306.84686 37.55L306.84686 27.175L308.425 27.175L308.425 28.753124Q309.03436 27.64375 309.55 27.3Q310.0656 26.940624 310.675 26.940624Q311.5656 26.940624 312.4875 27.503124L311.8781 29.14375Q311.2375 28.753124 310.59686 28.753124Q310.01874 28.753124 309.55 29.1125Q309.09686 29.45625 308.89374 30.065624Q308.6125 31.003124 308.6125 32.1125L308.6125 37.55L306.84686 37.55ZM313.15936 34.45625L314.90936 34.175Q315.05 35.221874 315.72186 35.784374Q316.39374 36.33125 317.59686 36.33125Q318.8 36.33125 319.3781 35.846874Q319.97186 35.346874 319.97186 34.690624Q319.97186 34.096874 319.45624 33.753124Q319.09686 33.51875 317.65936 33.159374Q315.72186 32.659374 314.97186 32.315624Q314.2375 31.95625 313.84686 31.33125Q313.45624 30.690624 313.45624 29.925Q313.45624 29.2375 313.76874 28.64375Q314.09686 28.05 314.64374 27.659374Q315.05 27.3625 315.7531 27.159374Q316.47186 26.940624 317.28436 26.940624Q318.5031 26.940624 319.425 27.3Q320.34686 27.64375 320.78436 28.253124Q321.22186 28.846874 321.39374 29.846874L319.675 30.08125Q319.55 29.284374 318.9875 28.846874Q318.425 28.39375 317.40936 28.39375Q316.1906 28.39375 315.675 28.8Q315.15936 29.190624 315.15936 29.721874Q315.15936 30.065624 315.3781 30.346874Q315.58124 30.628124 316.05 30.815624Q316.3156 30.909374 317.59686 31.253124Q319.47186 31.753124 320.20624 32.08125Q320.9406 32.39375 321.3625 33.003124Q321.78436 33.596874 321.78436 34.503124Q321.78436 35.378124 321.26874 36.159374Q320.7531 36.940624 319.78436 37.3625Q318.8156 37.784374 317.59686 37.784374Q315.58124 37.784374 314.51874 36.940624Q313.45624 36.096874 313.15936 34.45625ZM329.22186 32.3625Q329.22186 29.4875 330.8156 28.096874Q332.15936 26.940624 334.08124 26.940624Q336.22186 26.940624 337.5656 28.346874Q338.925 29.753124 338.925 32.221874Q338.925 34.221874 338.33124 35.378124Q337.7375 36.51875 336.58124 37.159374Q335.4406 37.784374 334.08124 37.784374Q331.89374 37.784374 330.55 36.39375Q329.22186 34.9875 329.22186 32.3625ZM331.01874 32.3625Q331.01874 34.3625 331.8781 35.346874Q332.7531 36.33125 334.08124 36.33125Q335.39374 36.33125 336.2531 35.346874Q337.1281 34.346874 337.1281 32.3Q337.1281 30.378124 336.2531 29.39375Q335.3781 28.39375 334.08124 28.39375Q332.7531 28.39375 331.8781 29.39375Q331.01874 30.378124 331.01874 32.3625ZM341.28436 37.55L341.28436 28.55L339.7375 28.55L339.7375 27.175L341.28436 27.175L341.28436 26.08125Q341.28436 25.034374 341.47186 24.51875Q341.72186 23.83125 342.3625 23.409374Q343.0031 22.9875 344.15936 22.9875Q344.90936 22.9875 345.8 23.159374L345.53436 24.690624Q344.9875 24.596874 344.5031 24.596874Q343.70624 24.596874 343.3625 24.940624Q343.03436 25.284374 343.03436 26.221874L343.03436 27.175L345.0656 27.175L345.0656 28.55L343.03436 28.55L343.03436 37.55L341.28436 37.55ZM347.28436 37.55L347.28436 28.55L345.7375 28.55L345.7375 27.175L347.28436 27.175L347.28436 26.08125Q347.28436 25.034374 347.47186 24.51875Q347.72186 23.83125 348.3625 23.409374Q349.0031 22.9875 350.15936 22.9875Q350.90936 22.9875 351.8 23.159374L351.53436 24.690624Q350.9875 24.596874 350.5031 24.596874Q349.70624 24.596874 349.3625 24.940624Q349.03436 25.284374 349.03436 26.221874L349.03436 27.175L351.0656 27.175L351.0656 28.55L349.03436 28.55L349.03436 37.55L347.28436 37.55ZM352.83124 37.55L352.83124 23.2375L354.58124 23.2375L354.58124 37.55L352.83124 37.55ZM356.22186 32.3625Q356.22186 29.4875 357.8156 28.096874Q359.15936 26.940624 361.08124 26.940624Q363.22186 26.940624 364.5656 28.346874Q365.925 29.753124 365.925 32.221874Q365.925 34.221874 365.33124 35.378124Q364.7375 36.51875 363.58124 37.159374Q362.4406 37.784374 361.08124 37.784374Q358.89374 37.784374 357.55 36.39375Q356.22186 34.9875 356.22186 32.3625ZM358.01874 32.3625Q358.01874 34.3625 358.8781 35.346874Q359.7531 36.33125 361.08124 36.33125Q362.39374 36.33125 363.2531 35.346874Q364.1281 34.346874 364.1281 32.3Q364.1281 30.378124 363.2531 29.39375Q362.3781 28.39375 361.08124 28.39375Q359.7531 28.39375 358.8781 29.39375Q358.01874 30.378124 358.01874 32.3625ZM374.64374 36.26875Q373.65936 37.096874 372.7531 37.440624Q371.84686 37.784374 370.8156 37.784374Q369.1125 37.784374 368.1906 36.95625Q367.26874 36.1125 367.26874 34.815624Q367.26874 34.05 367.6125 33.425Q367.97186 32.8 368.53436 32.425Q369.09686 32.034374 369.8 31.83125Q370.3156 31.70625 371.3625 31.565624Q373.4875 31.315624 374.4875 30.971874Q374.5031 30.6125 374.5031 30.503124Q374.5031 29.440624 374.0031 28.9875Q373.33124 28.39375 372.0031 28.39375Q370.7531 28.39375 370.15936 28.83125Q369.58124 29.26875 369.3 30.378124L367.58124 30.14375Q367.8156 29.034374 368.34686 28.3625Q368.8781 27.675 369.89374 27.315624Q370.90936 26.940624 372.2531 26.940624Q373.58124 26.940624 374.40936 27.253124Q375.2375 27.565624 375.6281 28.05Q376.01874 28.51875 376.175 29.2375Q376.26874 29.690624 376.26874 30.8625L376.26874 33.20625Q376.26874 35.659374 376.3781 36.315624Q376.4875 36.95625 376.83124 37.55L374.9875 37.55Q374.72186 37.003124 374.64374 36.26875ZM374.4875 32.346874Q373.53436 32.7375 371.6125 33.003124Q370.53436 33.159374 370.08124 33.3625Q369.64374 33.55 369.39374 33.925Q369.14374 34.3 369.14374 34.76875Q369.14374 35.471874 369.675 35.940624Q370.20624 36.409374 371.2375 36.409374Q372.2531 36.409374 373.03436 35.971874Q373.83124 35.51875 374.20624 34.753124Q374.4875 34.14375 374.4875 32.9875L374.4875 32.346874ZM385.59686 37.55L385.59686 36.2375Q384.6125 37.784374 382.6906 37.784374Q381.45624 37.784374 380.40936 37.096874Q379.3781 36.409374 378.8 35.190624Q378.2375 33.971874 378.2375 32.378124Q378.2375 30.815624 378.7531 29.55Q379.26874 28.284374 380.3 27.6125Q381.34686 26.940624 382.6125 26.940624Q383.55 26.940624 384.28436 27.346874Q385.01874 27.7375 385.4875 28.3625L385.4875 23.2375L387.22186 23.2375L387.22186 37.55L385.59686 37.55ZM380.03436 32.378124Q380.03436 34.3625 380.8781 35.346874Q381.72186 36.33125 382.8625 36.33125Q384.01874 36.33125 384.8156 35.39375Q385.6281 34.45625 385.6281 32.51875Q385.6281 30.39375 384.8 29.39375Q383.9875 28.39375 382.78436 28.39375Q381.6125 28.39375 380.8156 29.3625Q380.03436 30.315624 380.03436 32.378124ZM396.97186 34.20625L398.78436 34.440624Q398.3625 36.01875 397.1906 36.909374Q396.03436 37.784374 394.22186 37.784374Q391.95624 37.784374 390.6125 36.39375Q389.28436 34.9875 389.28436 32.45625Q389.28436 29.83125 390.6281 28.39375Q391.97186 26.940624 394.1281 26.940624Q396.20624 26.940624 397.51874 28.3625Q398.84686 29.76875 398.84686 32.346874Q398.84686 32.503124 398.83124 32.815624L391.09686 32.815624Q391.1906 34.51875 392.0656 35.425Q392.9406 36.33125 394.2375 36.33125Q395.20624 36.33125 395.8781 35.83125Q396.5656 35.315624 396.97186 34.20625ZM391.1906 31.3625L396.9875 31.3625Q396.8781 30.065624 396.33124 29.409374Q395.4875 28.39375 394.14374 28.39375Q392.9406 28.39375 392.1125 29.20625Q391.28436 30.003124 391.1906 31.3625ZM407.59686 37.55L407.59686 36.2375Q406.6125 37.784374 404.6906 37.784374Q403.45624 37.784374 402.40936 37.096874Q401.3781 36.409374 400.8 35.190624Q400.2375 33.971874 400.2375 32.378124Q400.2375 30.815624 400.7531 29.55Q401.26874 28.284374 402.3 27.6125Q403.34686 26.940624 404.6125 26.940624Q405.55 26.940624 406.28436 27.346874Q407.01874 27.7375 407.4875 28.3625L407.4875 23.2375L409.22186 23.2375L409.22186 37.55L407.59686 37.55ZM402.03436 32.378124Q402.03436 34.3625 402.8781 35.346874Q403.72186 36.33125 404.8625 36.33125Q406.01874 36.33125 406.8156 35.39375Q407.6281 34.45625 407.6281 32.51875Q407.6281 30.39375 406.8 29.39375Q405.9875 28.39375 404.78436 28.39375Q403.6125 28.39375 402.8156 29.3625Q402.03436 30.315624 402.03436 32.378124ZM421.70624 35.971874L421.95624 37.534374Q421.22186 37.690624 420.6281 37.690624Q419.675 37.690624 419.14374 37.39375Q418.6281 37.08125 418.40936 36.596874Q418.1906 36.096874 418.1906 34.51875L418.1906 28.55L416.90936 28.55L416.90936 27.175L418.1906 27.175L418.1906 24.6125L419.9406 23.55L419.9406 27.175L421.70624 27.175L421.70624 28.55L419.9406 28.55L419.9406 34.6125Q419.9406 35.3625 420.03436 35.58125Q420.1281 35.784374 420.33124 35.925Q420.55 36.05 420.9406 36.05Q421.22186 36.05 421.70624 35.971874ZM423.22186 32.3625Q423.22186 29.4875 424.8156 28.096874Q426.15936 26.940624 428.08124 26.940624Q430.22186 26.940624 431.5656 28.346874Q432.925 29.753124 432.925 32.221874Q432.925 34.221874 432.33124 35.378124Q431.7375 36.51875 430.58124 37.159374Q429.4406 37.784374 428.08124 37.784374Q425.89374 37.784374 424.55 36.39375Q423.22186 34.9875 423.22186 32.3625ZM425.01874 32.3625Q425.01874 34.3625 425.8781 35.346874Q426.7531 36.33125 428.08124 36.33125Q429.39374 36.33125 430.2531 35.346874Q431.1281 34.346874 431.1281 32.3Q431.1281 30.378124 430.2531 29.39375Q429.3781 28.39375 428.08124 28.39375Q426.7531 28.39375 425.8781 29.39375Q425.01874 30.378124 425.01874 32.3625ZM444.70624 35.971874L444.95624 37.534374Q444.22186 37.690624 443.6281 37.690624Q442.675 37.690624 442.14374 37.39375Q441.6281 37.08125 441.40936 36.596874Q441.1906 36.096874 441.1906 34.51875L441.1906 28.55L439.90936 28.55L439.90936 27.175L441.1906 27.175L441.1906 24.6125L442.9406 23.55L442.9406 27.175L444.70624 27.175L444.70624 28.55L442.9406 28.55L442.9406 34.6125Q442.9406 35.3625 443.03436 35.58125Q443.1281 35.784374 443.33124 35.925Q443.55 36.05 443.9406 36.05Q444.22186 36.05 444.70624 35.971874ZM446.8625 37.55L446.8625 23.2375L448.6281 23.2375L448.6281 28.3625Q449.8625 26.940624 451.7375 26.940624Q452.8781 26.940624 453.72186 27.39375Q454.58124 27.846874 454.9406 28.659374Q455.3156 29.45625 455.3156 30.971874L455.3156 37.55L453.5656 37.55L453.5656 30.971874Q453.5656 29.659374 452.9875 29.065624Q452.40936 28.45625 451.3781 28.45625Q450.59686 28.45625 449.89374 28.8625Q449.20624 29.26875 448.90936 29.971874Q448.6281 30.659374 448.6281 31.878124L448.6281 37.55L446.8625 37.55ZM463.97186 34.20625L465.78436 34.440624Q465.3625 36.01875 464.1906 36.909374Q463.03436 37.784374 461.22186 37.784374Q458.95624 37.784374 457.6125 36.39375Q456.28436 34.9875 456.28436 32.45625Q456.28436 29.83125 457.6281 28.39375Q458.97186 26.940624 461.1281 26.940624Q463.20624 26.940624 464.51874 28.3625Q465.84686 29.76875 465.84686 32.346874Q465.84686 32.503124 465.83124 32.815624L458.09686 32.815624Q458.1906 34.51875 459.0656 35.425Q459.9406 36.33125 461.2375 36.33125Q462.20624 36.33125 462.8781 35.83125Q463.5656 35.315624 463.97186 34.20625ZM458.1906 31.3625L463.9875 31.3625Q463.8781 30.065624 463.33124 29.409374Q462.4875 28.39375 461.14374 28.39375Q459.9406 28.39375 459.1125 29.20625Q458.28436 30.003124 458.1906 31.3625ZM480.8 31.940624L480.8 30.253124L486.8625 30.2375L486.8625 35.55Q485.45624 36.675 483.97186 37.2375Q482.4875 37.8 480.925 37.8Q478.8156 37.8 477.09686 36.89375Q475.3781 35.9875 474.4875 34.284374Q473.6125 32.565624 473.6125 30.45625Q473.6125 28.3625 474.4875 26.565624Q475.3625 24.753124 477.0031 23.878124Q478.64374 22.9875 480.78436 22.9875Q482.33124 22.9875 483.58124 23.4875Q484.84686 23.9875 485.55 24.89375Q486.26874 25.784374 486.64374 27.2375L484.9406 27.70625Q484.6125 26.6125 484.1281 25.9875Q483.65936 25.3625 482.76874 24.9875Q481.8781 24.6125 480.8 24.6125Q479.4875 24.6125 478.53436 25.003124Q477.59686 25.39375 477.01874 26.05Q476.4406 26.690624 476.1125 27.45625Q475.5656 28.784374 475.5656 30.346874Q475.5656 32.253124 476.22186 33.55Q476.89374 34.83125 478.14374 35.45625Q479.40936 36.08125 480.8156 36.08125Q482.05 36.08125 483.22186 35.6125Q484.39374 35.14375 485.0031 34.596874L485.0031 31.940624L480.8 31.940624ZM490.09686 37.55L490.09686 23.2375L495.4875 23.2375Q496.925 23.2375 497.675 23.3625Q498.72186 23.55 499.4406 24.05Q500.15936 24.534374 500.58124 25.425Q501.01874 26.315624 501.01874 27.378124Q501.01874 29.20625 499.84686 30.471874Q498.6906 31.721874 495.65936 31.721874L491.9875 31.721874L491.9875 37.55L490.09686 37.55ZM491.9875 30.034374L495.6906 30.034374Q497.51874 30.034374 498.28436 29.3625Q499.0656 28.675 499.0656 27.425Q499.0656 26.534374 498.6125 25.89375Q498.15936 25.253124 497.425 25.05Q496.9406 24.925 495.64374 24.925L491.9875 24.925L491.9875 30.034374ZM512.4875 23.2375L514.3781 23.2375L514.3781 31.503124Q514.3781 33.659374 513.89374 34.940624Q513.40936 36.20625 512.1281 37.003124Q510.8625 37.8 508.78436 37.8Q506.76874 37.8 505.4875 37.1125Q504.22186 36.409374 503.675 35.096874Q503.1281 33.784374 503.1281 31.503124L503.1281 23.2375L505.01874 23.2375L505.01874 31.4875Q505.01874 33.3625 505.3625 34.253124Q505.70624 35.128124 506.55 35.6125Q507.39374 36.08125 508.6281 36.08125Q510.70624 36.08125 511.59686 35.14375Q512.4875 34.190624 512.4875 31.4875L512.4875 23.2375Z" fill-rule="nonzero"/></svg>