<svg version="1.1" viewBox="0.0 0.0 600.0 371.0" fill="none" stroke="none" stroke-linecap="square" stroke-miterlimit="10" width="600" height="371" xmlns:xlink="http://www.w3.org/1999/xlink" xmlns="http://www.w3.org/2000/svg"><path fill="#ffffff" d="M0 0L600.0 0L600.0 371.0L0 371.0L0 0Z" fill-rule="nonzero"/><path stroke="#333333" stroke-width="1.0" stroke-linecap="butt" d="M84.5 61.5L84.5 300.5" fill-rule="nonzero"/><path stroke="#cccccc" stroke-width="1.0" stroke-linecap="butt" d="M175.5 61.5L175.5 300.5" fill-rule="nonzero"/><path stroke="#cccccc" stroke-width="1.0" stroke-linecap="butt" d="M265.5 61.5L265.5 300.5" fill-rule="nonzero"/><path stroke="#cccccc" stroke-width="1.0" stroke-linecap="butt" d="M356.5 61.5L356.5 300.5" fill-rule="nonzero"/><path stroke="#cccccc" stroke-width="1.0" stroke-linecap="butt" d="M447.5 61.5L447.5 300.5" fill-rule="nonzero"/><path stroke="#cccccc" stroke-width="1.0" stroke-linecap="butt" d="M538.5 61.5L538.5 300.5" fill-rule="nonzero"/><path stroke="#333333" stroke-width="1.0" stroke-linecap="butt" d="M77.5 300.5L581.5 300.5" fill-rule="nonzero"/><path stroke="#cccccc" stroke-width="1.0" stroke-linecap="butt" d="M77.5 252.5L581.5 252.5" fill-rule="nonzero"/><path stroke="#cccccc" stroke-width="1.0" stroke-linecap="butt" d="M77.5 205.5L581.5 205.5" fill-rule="nonzero"/><path stroke="#cccccc" stroke-width="1.0" stroke-linecap="butt" d="M77.5 157.5L581.5 157.5" fill-rule="nonzero"/><path stroke="#cccccc" stroke-width="1.0" stroke-linecap="butt" d="M77.5 109.5L581.5 109.5" fill-rule="nonzero"/><path stroke="#cccccc" stroke-width="1.0" stroke-linecap="butt" d="M77.5 61.5L581.5 61.5" fill-rule="nonzero"/><clipPath id="id_0"><path d="M77.55 61.916668L581.45 61.916668L581.45 300.45L77.55 300.45L77.55 61.916668Z" clip-rule="nonzero"/></clipPath><path stroke="#4285f4" stroke-width="2.0" stroke-linecap="butt" clip-path="url(#id_0)" d="M84.36077 122.56138L175.15308 116.93199L265.94537 109.18443L356.7377 100.768974L447.53 90.71241L538.3223 80.98025L574.6392 78.95749" fill-rule="nonzero"/><path fill="#4285f4" clip-path="url(#id_0)" d="M88.86077 122.56138C88.86077 125.04666 86.846054 127.06138 84.36077 127.06138C81.875496 127.06138 79.86077 125.04666 79.86077 122.56138C79.86077 120.0761 81.875496 118.06138 84.36077 118.06138C86.846054 118.06138 88.86077 120.0761 88.86077 122.56138Z" fill-rule="nonzero"/><path fill="#4285f4" clip-path="url(#id_0)" d="M179.65308 116.93199C179.65308 119.417274 177.63837 121.43199 175.15308 121.43199C172.6678 121.43199 170.65308 119.417274 170.65308 116.93199C170.65308 114.44672 172.6678 112.43199 175.15308 112.43199C177.63837 112.43199 179.65308 114.44672 179.65308 116.93199Z" fill-rule="nonzero"/><path fill="#4285f4" clip-path="url(#id_0)" d="M270.44537 109.18443C270.44537 111.669716 268.43066 113.68443 265.94537 113.68443C263.4601 113.68443 261.44537 111.669716 261.44537 109.18443C261.44537 106.69915 263.4601 104.68443 265.94537 104.68443C268.43066 104.68443 270.44537 106.69915 270.44537 109.18443Z" fill-rule="nonzero"/><path fill="#4285f4" clip-path="url(#id_0)" d="M361.2377 100.768974C361.2377 103.25426 359.22296 105.268974 356.7377 105.268974C354.2524 105.268974 352.2377 103.25426 352.2377 100.768974C352.2377 98.28369 354.2524 96.268974 356.7377 96.268974C359.22296 96.268974 361.2377 98.28369 361.2377 100.768974Z" fill-rule="nonzero"/><path fill="#4285f4" clip-path="url(#id_0)" d="M452.03 90.71241C452.03 93.19769 450.0153 95.21241 447.53 95.21241C445.0447 95.21241 443.03 93.19769 443.03 90.71241C443.03 88.22713 445.0447 86.21241 447.53 86.21241C450.0153 86.21241 452.03 88.22713 452.03 90.71241Z" fill-rule="nonzero"/><path fill="#4285f4" clip-path="url(#id_0)" d="M542.8223 80.98025C542.8223 83.46553 540.80756 85.48025 538.3223 85.48025C535.83704 85.48025 533.8223 83.46553 533.8223 80.98025C533.8223 78.49497 535.83704 76.48025 538.3223 76.48025C540.80756 76.48025 542.8223 78.49497 542.8223 80.98025Z" fill-rule="nonzero"/><path fill="#4285f4" clip-path="url(#id_0)" d="M579.1392 78.95749C579.1392 81.44277 577.1245 83.45749 574.6392 83.45749C572.15393 83.45749 570.1392 81.44277 570.1392 78.95749C570.1392 76.472206 572.15393 74.45749 574.6392 74.45749C577.1245 74.45749 579.1392 76.472206 579.1392 78.95749Z" fill-rule="nonzero"/><path fill="#000000" d="M299.26562 349.45L299.26562 340.85626L300.32812 340.85626L300.32812 349.45L299.26562 349.45ZM306.35938 348.6844Q305.76562 349.1844 305.21875 349.3875Q304.6875 349.59064 304.0625 349.59064Q303.03125 349.59064 302.48438 349.09064Q301.9375 348.59064 301.9375 347.8094Q301.9375 347.35626 302.14062 346.98126Q302.34375 346.59064 302.6875 346.3719Q303.03125 346.1375 303.45312 346.02814Q303.75 345.9344 304.39062 345.85626Q305.65625 345.71564 306.26562 345.4969Q306.26562 345.27814 306.26562 345.23126Q306.26562 344.575 305.96875 344.3094Q305.5625 343.96564 304.76562 343.96564Q304.03125 343.96564 303.67188 344.23126Q303.3125 344.48126 303.14062 345.1375L302.10938 344.9969Q302.25 344.34064 302.57812 343.9344Q302.90625 343.52814 303.51562 343.3094Q304.125 343.09064 304.92188 343.09064Q305.71875 343.09064 306.21875 343.27814Q306.71875 343.46564 306.95312 343.7469Q307.1875 344.02814 307.28125 344.46564Q307.32812 344.73126 307.32812 345.4344L307.32812 346.84064Q307.32812 348.3094 307.39062 348.7Q307.46875 349.09064 307.67188 349.45L306.5625 349.45Q306.40625 349.1219 306.35938 348.6844ZM306.26562 346.325Q305.6875 346.5594 304.54688 346.73126Q303.89062 346.825 303.625 346.95Q303.35938 347.0594 303.20312 347.27814Q303.0625 347.4969 303.0625 347.77814Q303.0625 348.2 303.375 348.48126Q303.70312 348.7625 304.3125 348.7625Q304.92188 348.7625 305.39062 348.4969Q305.875 348.23126 306.09375 347.7625Q306.26562 347.40314 306.26562 346.71564L306.26562 346.325ZM309.25 351.84064L309.125 350.85626Q309.46875 350.95 309.73438 350.95Q310.07812 350.95 310.28125 350.825Q310.5 350.71564 310.64062 350.5125Q310.73438 350.34064 310.96875 349.71564Q310.98438 349.6375 311.0625 349.46564L308.6875 343.23126L309.82812 343.23126L311.125 346.825Q311.375 347.5125 311.57812 348.27814Q311.76562 347.54376 312.01562 346.85626L313.34375 343.23126L314.39062 343.23126L312.03125 349.5594Q311.64062 350.575 311.4375 350.96564Q311.15625 351.4969 310.78125 351.73126Q310.42188 351.98126 309.92188 351.98126Q309.625 351.98126 309.25 351.84064ZM318.54688 347.45L319.64062 347.575Q319.39062 348.52814 318.6875 349.0594Q317.98438 349.59064 316.90625 349.59064Q315.54688 349.59064 314.73438 348.7469Q313.9375 347.90314 313.9375 346.3875Q313.9375 344.825 314.75 343.96564Q315.5625 343.09064 316.84375 343.09064Q318.09375 343.09064 318.875 343.9344Q319.67188 344.77814 319.67188 346.325Q319.67188 346.41876 319.67188 346.60626L315.03125 346.60626Q315.09375 347.6375 315.60938 348.1844Q316.125 348.71564 316.90625 348.71564Q317.48438 348.71564 317.89062 348.41876Q318.3125 348.10626 318.54688 347.45ZM315.09375 345.7469L318.5625 345.7469Q318.5 344.95 318.17188 344.5594Q317.65625 343.95 316.85938 343.95Q316.125 343.95 315.625 344.4344Q315.14062 344.91876 315.09375 345.7469ZM321.28125 349.45L321.28125 343.23126L322.23438 343.23126L322.23438 344.16876Q322.59375 343.5125 322.89062 343.3094Q323.20312 343.09064 323.57812 343.09064Q324.10938 343.09064 324.65625 343.41876L324.29688 344.40314Q323.90625 344.16876 323.53125 344.16876Q323.17188 344.16876 322.89062 344.3875Q322.625 344.59064 322.51562 344.96564Q322.32812 345.52814 322.32812 346.1844L322.32812 349.45L321.28125 349.45ZM324.875 347.59064L325.90625 347.4344Q326.0 348.0594 326.39062 348.3875Q326.79688 348.71564 327.53125 348.71564Q328.25 348.71564 328.59375 348.4344Q328.95312 348.1375 328.95312 347.73126Q328.95312 347.3719 328.64062 347.16876Q328.42188 347.02814 327.5625 346.8094Q326.40625 346.5125 325.95312 346.3094Q325.51562 346.09064 325.28125 345.71564Q325.04688 345.34064 325.04688 344.8719Q325.04688 344.46564 325.23438 344.10626Q325.42188 343.7469 325.75 343.5125Q326.0 343.34064 326.42188 343.21564Q326.84375 343.09064 327.34375 343.09064Q328.0625 343.09064 328.60938 343.3094Q329.17188 343.5125 329.4375 343.8719Q329.70312 344.23126 329.79688 344.825L328.76562 344.96564Q328.70312 344.4969 328.35938 344.23126Q328.03125 343.95 327.40625 343.95Q326.6875 343.95 326.375 344.2Q326.0625 344.4344 326.0625 344.7625Q326.0625 344.96564 326.1875 345.1219Q326.32812 345.29376 326.59375 345.40314Q326.75 345.46564 327.53125 345.66876Q328.65625 345.98126 329.09375 346.16876Q329.53125 346.35626 329.78125 346.71564Q330.03125 347.075 330.03125 347.6219Q330.03125 348.15314 329.71875 348.6219Q329.42188 349.075 328.84375 349.34064Q328.26562 349.59064 327.53125 349.59064Q326.3125 349.59064 325.67188 349.09064Q325.04688 348.575 324.875 347.59064ZM339.45312 346.075L339.45312 345.075L343.07812 345.0594L343.07812 348.2469Q342.25 348.91876 341.35938 349.2625Q340.46875 349.59064 339.53125 349.59064Q338.26562 349.59064 337.21875 349.0594Q336.1875 348.5125 335.65625 347.4969Q335.14062 346.46564 335.14062 345.2Q335.14062 343.9344 335.65625 342.85626Q336.1875 341.7625 337.17188 341.2469Q338.15625 340.71564 339.4375 340.71564Q340.375 340.71564 341.125 341.0125Q341.875 341.3094 342.29688 341.85626Q342.73438 342.3875 342.95312 343.2625L341.9375 343.54376Q341.73438 342.8875 341.4375 342.5125Q341.15625 342.1375 340.625 341.91876Q340.09375 341.6844 339.45312 341.6844Q338.67188 341.6844 338.09375 341.91876Q337.53125 342.15314 337.17188 342.54376Q336.82812 342.9344 336.64062 343.40314Q336.3125 344.2 336.3125 345.1219Q336.3125 346.27814 336.70312 347.0594Q337.10938 347.825 337.85938 348.2Q338.60938 348.575 339.46875 348.575Q340.20312 348.575 340.90625 348.29376Q341.60938 347.9969 341.96875 347.6844L341.96875 346.075L339.45312 346.075ZM344.42188 349.45L344.42188 340.85626L347.67188 340.85626Q348.51562 340.85626 348.96875 340.9344Q349.60938 341.04376 350.03125 341.34064Q350.46875 341.6375 350.71875 342.16876Q350.98438 342.7 350.98438 343.34064Q350.98438 344.4344 350.28125 345.2Q349.59375 345.95 347.76562 345.95L345.5625 345.95L345.5625 349.45L344.42188 349.45ZM345.5625 344.95L347.78125 344.95Q348.89062 344.95 349.34375 344.54376Q349.8125 344.1219 349.8125 343.3719Q349.8125 342.84064 349.53125 342.46564Q349.26562 342.075 348.82812 341.95Q348.53125 341.8719 347.76562 341.8719L345.5625 341.8719L345.5625 344.95ZM358.0625 340.85626L359.20312 340.85626L359.20312 345.825Q359.20312 347.1219 358.90625 347.8875Q358.60938 348.6375 357.84375 349.1219Q357.07812 349.59064 355.84375 349.59064Q354.64062 349.59064 353.85938 349.1844Q353.09375 348.7625 352.76562 347.98126Q352.4375 347.1844 352.4375 345.825L352.4375 340.85626L353.57812 340.85626L353.57812 345.8094Q353.57812 346.9344 353.78125 347.46564Q354.0 347.9969 354.5 348.29376Q355.01562 348.575 355.75 348.575Q357.0 348.575 357.53125 348.0125Q358.0625 347.4344 358.0625 345.8094L358.0625 340.85626Z" fill-rule="nonzero"/><path fill="#000000" d="M31.940638 238.88646L23.331263 238.88646L23.331263 237.93333L24.128138 237.93333Q23.659388 237.58958 23.425013 237.16771Q23.190638 236.73021 23.190638 236.12083Q23.190638 235.32396 23.596888 234.71458Q24.003138 234.10521 24.753138 233.80833Q25.503138 233.49583 26.393763 233.49583Q27.346888 233.49583 28.112513 233.83958Q28.878138 234.16771 29.284388 234.82396Q29.690638 235.48021 29.690638 236.19896Q29.690638 236.73021 29.471888 237.15208Q29.237513 237.57396 28.909388 237.83958L31.940638 237.83958L31.940638 238.88646ZM26.471888 237.93333Q27.675013 237.93333 28.253138 237.44896Q28.815638 236.96458 28.815638 236.27708Q28.815638 235.57396 28.221888 235.07396Q27.628138 234.57396 26.378138 234.57396Q25.190638 234.57396 24.612513 235.05833Q24.018763 235.54271 24.018763 236.23021Q24.018763 236.90208 24.643763 237.41771Q25.268763 237.93333 26.471888 237.93333ZM29.550013 231.90208L23.331263 231.90208L23.331263 230.94896L24.268763 230.94896Q23.612513 230.58958 23.409388 230.29271Q23.190638 229.98021 23.190638 229.60521Q23.190638 229.07396 23.518763 228.52708L24.503138 228.88646Q24.268763 229.27708 24.268763 229.65208Q24.268763 230.01146 24.487513 230.29271Q24.690638 230.55833 25.065638 230.66771Q25.628138 230.85521 26.284388 230.85521L29.550013 230.85521L29.550013 231.90208ZM26.440638 228.27708Q24.706263 228.27708 23.878138 227.32396Q23.190638 226.52708 23.190638 225.37083Q23.190638 224.08958 24.034388 223.27708Q24.862513 222.44896 26.346888 222.44896Q27.550013 222.44896 28.237513 222.80833Q28.925013 223.16771 29.315638 223.87083Q29.690638 224.55833 29.690638 225.37083Q29.690638 226.66771 28.862513 227.48021Q28.018763 228.27708 26.440638 228.27708ZM26.440638 227.19896Q27.628138 227.19896 28.221888 226.68333Q28.815638 226.15208 28.815638 225.37083Q28.815638 224.57396 28.221888 224.05833Q27.628138 223.54271 26.409388 223.54271Q25.253138 223.54271 24.659388 224.07396Q24.065638 224.58958 24.065638 225.37083Q24.065638 226.15208 24.659388 226.68333Q25.237513 227.19896 26.440638 227.19896ZM29.550013 220.88646L23.331263 220.88646L23.331263 219.94896L24.206263 219.94896Q23.737513 219.65208 23.471888 219.16771Q23.190638 218.68333 23.190638 218.05833Q23.190638 217.37083 23.471888 216.93333Q23.753138 216.48021 24.268763 216.30833Q23.190638 215.55833 23.190638 214.38646Q23.190638 213.44896 23.706263 212.96458Q24.206263 212.46458 25.284388 212.46458L29.550013 212.46458L29.550013 213.51146L25.628138 213.51146Q25.003138 213.51146 24.721888 213.62083Q24.440638 213.71458 24.268763 213.98021Q24.096888 214.24583 24.096888 214.62083Q24.096888 215.27708 24.534388 215.71458Q24.971888 216.13646 25.940638 216.13646L29.550013 216.13646L29.550013 217.19896L25.503138 217.19896Q24.800013 217.19896 24.456263 217.46458Q24.096888 217.71458 24.096888 218.29271Q24.096888 218.74583 24.331263 219.12083Q24.565638 219.49583 25.018763 219.66771Q25.471888 219.83958 26.315638 219.83958L29.550013 219.83958L29.550013 220.88646ZM31.940638 209.88646L23.331263 209.88646L23.331263 208.93333L24.128138 208.93333Q23.659388 208.58958 23.425013 208.16771Q23.190638 207.73021 23.190638 207.12083Q23.190638 206.32396 23.596888 205.71458Q24.003138 205.10521 24.753138 204.80833Q25.503138 204.49583 26.393763 204.49583Q27.346888 204.49583 28.112513 204.83958Q28.878138 205.16771 29.284388 205.82396Q29.690638 206.48021 29.690638 207.19896Q29.690638 207.73021 29.471888 208.15208Q29.237513 208.57396 28.909388 208.83958L31.940638 208.83958L31.940638 209.88646ZM26.471888 208.93333Q27.675013 208.93333 28.253138 208.44896Q28.815638 207.96458 28.815638 207.27708Q28.815638 206.57396 28.221888 206.07396Q27.628138 205.57396 26.378138 205.57396Q25.190638 205.57396 24.612513 206.05833Q24.018763 206.54271 24.018763 207.23021Q24.018763 207.90208 24.643763 208.41771Q25.268763 208.93333 26.471888 208.93333ZM28.612513 200.58958L29.534388 200.43333Q29.628138 200.88646 29.628138 201.23021Q29.628138 201.80833 29.456263 202.12083Q29.268763 202.43333 28.971888 202.57396Q28.675013 202.69896 27.721888 202.69896L24.143763 202.69896L24.143763 203.46458L23.331263 203.46458L23.331263 202.69896L21.784388 202.69896L21.159388 201.65208L23.331263 201.65208L23.331263 200.58958L24.143763 200.58958L24.143763 201.65208L27.784388 201.65208Q28.237513 201.65208 28.362513 201.60521Q28.487513 201.54271 28.565638 201.41771Q28.643763 201.29271 28.643763 201.05833Q28.643763 200.87083 28.612513 200.58958ZM31.940638 196.88646L23.331263 196.88646L23.331263 195.93333L24.128138 195.93333Q23.659388 195.58958 23.425013 195.16771Q23.190638 194.73021 23.190638 194.12083Q23.190638 193.32396 23.596888 192.71458Q24.003138 192.10521 24.753138 191.80833Q25.503138 191.49583 26.393763 191.49583Q27.346888 191.49583 28.112513 191.83958Q28.878138 192.16771 29.284388 192.82396Q29.690638 193.48021 29.690638 194.19896Q29.690638 194.73021 29.471888 195.15208Q29.237513 195.57396 28.909388 195.83958L31.940638 195.83958L31.940638 196.88646ZM26.471888 195.93333Q27.675013 195.93333 28.253138 195.44896Q28.815638 194.96458 28.815638 194.27708Q28.815638 193.57396 28.221888 193.07396Q27.628138 192.57396 26.378138 192.57396Q25.190638 192.57396 24.612513 193.05833Q24.018763 193.54271 24.018763 194.23021Q24.018763 194.90208 24.643763 195.41771Q25.268763 195.93333 26.471888 195.93333ZM29.550013 189.90208L23.331263 189.90208L23.331263 188.94896L24.268763 188.94896Q23.612513 188.58958 23.409388 188.29271Q23.190638 187.98021 23.190638 187.60521Q23.190638 187.07396 23.518763 186.52708L24.503138 186.88646Q24.268763 187.27708 24.268763 187.65208Q24.268763 188.01146 24.487513 188.29271Q24.690638 188.55833 25.065638 188.66771Q25.628138 188.85521 26.284388 188.85521L29.550013 188.85521L29.550013 189.90208ZM26.440638 186.27708Q24.706263 186.27708 23.878138 185.32396Q23.190638 184.52708 23.190638 183.37083Q23.190638 182.08958 24.034388 181.27708Q24.862513 180.44896 26.346888 180.44896Q27.550013 180.44896 28.237513 180.80833Q28.925013 181.16771 29.315638 181.87083Q29.690638 182.55833 29.690638 183.37083Q29.690638 184.66771 28.862513 185.48021Q28.018763 186.27708 26.440638 186.27708ZM26.440638 185.19896Q27.628138 185.19896 28.221888 184.68333Q28.815638 184.15208 28.815638 183.37083Q28.815638 182.57396 28.221888 182.05833Q27.628138 181.54271 26.409388 181.54271Q25.253138 181.54271 24.659388 182.07396Q24.065638 182.58958 24.065638 183.37083Q24.065638 184.15208 24.659388 184.68333Q25.237513 185.19896 26.440638 185.19896ZM27.268763 174.82396L27.409388 173.79271Q28.471888 173.96458 29.081263 174.66771Q29.690638 175.37083 29.690638 176.38646Q29.690638 177.66771 28.862513 178.44896Q28.018763 179.21458 26.456263 179.21458Q25.456263 179.21458 24.706263 178.88646Q23.940638 178.54271 23.565638 177.87083Q23.190638 177.18333 23.190638 176.37083Q23.190638 175.37083 23.706263 174.73021Q24.206263 174.07396 25.159388 173.88646L25.315638 174.91771Q24.690638 175.05833 24.378138 175.43333Q24.050013 175.80833 24.050013 176.33958Q24.050013 177.13646 24.628138 177.63646Q25.190638 178.13646 26.425013 178.13646Q27.690638 178.13646 28.253138 177.65208Q28.815638 177.16771 28.815638 176.40208Q28.815638 175.77708 28.440638 175.37083Q28.065638 174.94896 27.268763 174.82396ZM27.550013 168.63646L27.675013 167.54271Q28.628138 167.79271 29.159388 168.49583Q29.690638 169.19896 29.690638 170.27708Q29.690638 171.63646 28.846888 172.44896Q28.003138 173.24583 26.487513 173.24583Q24.925013 173.24583 24.065638 172.43333Q23.190638 171.62083 23.190638 170.33958Q23.190638 169.08958 24.034388 168.30833Q24.878138 167.51146 26.425013 167.51146Q26.518763 167.51146 26.706263 167.51146L26.706263 172.15208Q27.737513 172.08958 28.284388 171.57396Q28.815638 171.05833 28.815638 170.27708Q28.815638 169.69896 28.518763 169.29271Q28.206263 168.87083 27.550013 168.63646ZM25.846888 172.08958L25.846888 168.62083Q25.050013 168.68333 24.659388 169.01146Q24.050013 169.52708 24.050013 170.32396Q24.050013 171.05833 24.534388 171.55833Q25.018763 172.04271 25.846888 172.08958ZM27.690638 166.30833L27.534388 165.27708Q28.159388 165.18333 28.487513 164.79271Q28.815638 164.38646 28.815638 163.65208Q28.815638 162.93333 28.534388 162.58958Q28.237513 162.23021 27.831263 162.23021Q27.471888 162.23021 27.268763 162.54271Q27.128138 162.76146 26.909388 163.62083Q26.612513 164.77708 26.409388 165.23021Q26.190638 165.66771 25.815638 165.90208Q25.440638 166.13646 24.971888 166.13646Q24.565638 166.13646 24.206263 165.94896Q23.846888 165.76146 23.612513 165.43333Q23.440638 165.18333 23.315638 164.76146Q23.190638 164.33958 23.190638 163.83958Q23.190638 163.12083 23.409388 162.57396Q23.612513 162.01146 23.971888 161.74583Q24.331263 161.48021 24.925013 161.38646L25.065638 162.41771Q24.596888 162.48021 24.331263 162.82396Q24.050013 163.15208 24.050013 163.77708Q24.050013 164.49583 24.300013 164.80833Q24.534388 165.12083 24.862513 165.12083Q25.065638 165.12083 25.221888 164.99583Q25.393763 164.85521 25.503138 164.58958Q25.565638 164.43333 25.768763 163.65208Q26.081263 162.52708 26.268763 162.08958Q26.456263 161.65208 26.815638 161.40208Q27.175013 161.15208 27.721888 161.15208Q28.253138 161.15208 28.721888 161.46458Q29.175013 161.76146 29.440638 162.33958Q29.690638 162.91771 29.690638 163.65208Q29.690638 164.87083 29.190638 165.51146Q28.675013 166.13646 27.690638 166.30833ZM27.690638 159.30833L27.534388 158.27708Q28.159388 158.18333 28.487513 157.79271Q28.815638 157.38646 28.815638 156.65208Q28.815638 155.93333 28.534388 155.58958Q28.237513 155.23021 27.831263 155.23021Q27.471888 155.23021 27.268763 155.54271Q27.128138 155.76146 26.909388 156.62083Q26.612513 157.77708 26.409388 158.23021Q26.190638 158.66771 25.815638 158.90208Q25.440638 159.13646 24.971888 159.13646Q24.565638 159.13646 24.206263 158.94896Q23.846888 158.76146 23.612513 158.43333Q23.440638 158.18333 23.315638 157.76146Q23.190638 157.33958 23.190638 156.83958Q23.190638 156.12083 23.409388 155.57396Q23.612513 155.01146 23.971888 154.74583Q24.331263 154.48021 24.925013 154.38646L25.065638 155.41771Q24.596888 155.48021 24.331263 155.82396Q24.050013 156.15208 24.050013 156.77708Q24.050013 157.49583 24.300013 157.80833Q24.534388 158.12083 24.862513 158.12083Q25.065638 158.12083 25.221888 157.99583Q25.393763 157.85521 25.503138 157.58958Q25.565638 157.43333 25.768763 156.65208Q26.081263 155.52708 26.268763 155.08958Q26.456263 154.65208 26.815638 154.40208Q27.175013 154.15208 27.721888 154.15208Q28.253138 154.15208 28.721888 154.46458Q29.175013 154.76146 29.440638 155.33958Q29.690638 155.91771 29.690638 156.65208Q29.690638 157.87083 29.190638 158.51146Q28.675013 159.13646 27.690638 159.30833ZM22.175013 151.88646L20.956263 151.88646L20.956263 150.82396L22.175013 150.82396L22.175013 151.88646ZM29.550013 151.88646L23.331263 151.88646L23.331263 150.82396L29.550013 150.82396L29.550013 151.88646ZM29.550013 148.88646L23.331263 148.88646L23.331263 147.94896L24.206263 147.94896Q23.190638 147.26146 23.190638 145.96458Q23.190638 145.40208 23.393763 144.93333Q23.596888 144.44896 23.925013 144.21458Q24.253138 143.98021 24.690638 143.88646Q24.987513 143.83958 25.721888 143.83958L29.550013 143.83958L29.550013 144.88646L25.768763 144.88646Q25.112513 144.88646 24.800013 145.01146Q24.487513 145.13646 24.300013 145.44896Q24.096888 145.76146 24.096888 146.18333Q24.096888 146.85521 24.534388 147.35521Q24.956263 147.83958 26.143763 147.83958L29.550013 147.83958L29.550013 148.88646ZM30.065638 142.08958L30.221888 141.05833Q30.690638 140.99583 30.909388 140.69896Q31.206263 140.30833 31.206263 139.63646Q31.206263 138.90208 30.909388 138.51146Q30.612513 138.10521 30.096888 137.96458Q29.768763 137.87083 28.737513 137.88646Q29.550013 138.57396 29.550013 139.60521Q29.550013 140.88646 28.628138 141.58958Q27.690638 142.29271 26.409388 142.29271Q25.518763 142.29271 24.768763 141.98021Q24.003138 141.65208 23.596888 141.04271Q23.190638 140.43333 23.190638 139.60521Q23.190638 138.49583 24.081263 137.77708L23.331263 137.77708L23.331263 136.80833L28.706263 136.80833Q30.159388 136.80833 30.768763 137.10521Q31.378138 137.40208 31.721888 138.04271Q32.08126 138.68333 32.08126 139.62083Q32.08126 140.73021 31.581263 141.41771Q31.081263 142.10521 30.065638 142.08958ZM26.331263 141.21458Q27.550013 141.21458 28.112513 140.73021Q28.675013 140.24583 28.675013 139.51146Q28.675013 138.77708 28.112513 138.29271Q27.550013 137.79271 26.362513 137.79271Q25.221888 137.79271 24.643763 138.30833Q24.065638 138.80833 24.065638 139.52708Q24.065638 140.23021 24.643763 140.73021Q25.206263 141.21458 26.331263 141.21458Z" fill-rule="nonzero"/><path fill="#000000" d="M65.05 300.21564Q65.05 298.6844 65.3625 297.7625Q65.675 296.825 66.28438 296.325Q66.90938 295.825 67.84688 295.825Q68.53438 295.825 69.05 296.10626Q69.58125 296.3875 69.925 296.91876Q70.26875 297.4344 70.45625 298.1844Q70.64375 298.9344 70.64375 300.21564Q70.64375 301.73126 70.33125 302.65314Q70.03438 303.575 69.40938 304.09064Q68.8 304.59064 67.84688 304.59064Q66.6125 304.59064 65.89375 303.7Q65.05 302.6375 65.05 300.21564ZM66.12813 300.21564Q66.12813 302.325 66.62813 303.02814Q67.12813 303.73126 67.84688 303.73126Q68.58125 303.73126 69.06563 303.02814Q69.56563 302.325 69.56563 300.21564Q69.56563 298.09064 69.06563 297.40314Q68.58125 296.7 67.83125 296.7Q67.1125 296.7 66.675 297.3094Q66.12813 298.09064 66.12813 300.21564Z" fill-rule="nonzero"/><path fill="#000000" d="M63.596874 255.72772L63.596874 256.74335L57.909374 256.74335Q57.909374 256.36835 58.034374 256.00897Q58.253124 255.43085 58.721874 254.86835Q59.20625 254.30585 60.1125 253.57147Q61.51875 252.41522 62.003124 251.74335Q62.503124 251.07147 62.503124 250.47772Q62.503124 249.85272 62.05 249.43085Q61.596874 248.99335 60.878124 248.99335Q60.1125 248.99335 59.659374 249.44647Q59.20625 249.8996 59.190624 250.7121L58.1125 250.60272Q58.221874 249.38397 58.940624 248.75897Q59.675 248.11835 60.909374 248.11835Q62.14375 248.11835 62.8625 248.80585Q63.58125 249.49335 63.58125 250.50897Q63.58125 251.0246 63.3625 251.5246Q63.159374 252.00897 62.659374 252.57147Q62.175 253.11835 61.05 254.07147Q60.096874 254.86835 59.815624 255.16522Q59.55 255.44647 59.378124 255.72772L63.596874 255.72772ZM65.05 254.49335L66.15938 254.3996Q66.28438 255.2121 66.72188 255.61835Q67.175 256.0246 67.81563 256.0246Q68.56563 256.0246 69.09688 255.44647Q69.62813 254.86835 69.62813 253.93085Q69.62813 253.0246 69.1125 252.50897Q68.6125 251.97772 67.78438 251.97772Q67.28438 251.97772 66.8625 252.2121Q66.45625 252.44647 66.22188 252.80585L65.2375 252.68085L66.06563 248.2746L70.34688 248.2746L70.34688 249.2746L66.90938 249.2746L66.45625 251.5871Q67.22188 251.04022 68.06563 251.04022Q69.19063 251.04022 69.95625 251.82147Q70.7375 252.60272 70.7375 253.8371Q70.7375 254.99335 70.06563 255.85272Q69.2375 256.88397 67.81563 256.88397Q66.64375 256.88397 65.89375 256.22772Q65.15938 255.57147 65.05 254.49335Z" fill-rule="nonzero"/><path fill="#000000" d="M58.05 206.78667L59.159374 206.69292Q59.284374 207.50542 59.721874 207.91167Q60.175 208.31792 60.815624 208.31792Q61.565624 208.31792 62.096874 207.73979Q62.628124 207.16167 62.628124 206.22417Q62.628124 205.31792 62.1125 204.80229Q61.6125 204.27104 60.784374 204.27104Q60.284374 204.27104 59.8625 204.50542Q59.45625 204.73979 59.221874 205.09917L58.2375 204.97417L59.065624 200.56792L63.346874 200.56792L63.346874 201.56792L59.909374 201.56792L59.45625 203.88042Q60.221874 203.33354 61.065624 203.33354Q62.190624 203.33354 62.95625 204.11479Q63.7375 204.89604 63.7375 206.13042Q63.7375 207.28667 63.065624 208.14604Q62.2375 209.17729 60.815624 209.17729Q59.64375 209.17729 58.89375 208.52104Q58.159374 207.86479 58.05 206.78667ZM65.05 204.80229Q65.05 203.27104 65.3625 202.34917Q65.675 201.41167 66.28438 200.91167Q66.90938 200.41167 67.84688 200.41167Q68.53438 200.41167 69.05 200.69292Q69.58125 200.97417 69.925 201.50542Q70.26875 202.02104 70.45625 202.77104Q70.64375 203.52104 70.64375 204.80229Q70.64375 206.31792 70.33125 207.23979Q70.03438 208.16167 69.40938 208.67729Q68.8 209.17729 67.84688 209.17729Q66.6125 209.17729 65.89375 208.28667Q65.05 207.22417 65.05 204.80229ZM66.12813 204.80229Q66.12813 206.91167 66.62813 207.61479Q67.12813 208.31792 67.84688 208.31792Q68.58125 208.31792 69.06563 207.61479Q69.56563 206.91167 69.56563 204.80229Q69.56563 202.67729 69.06563 201.98979Q68.58125 201.28667 67.83125 201.28667Q67.1125 201.28667 66.675 201.89604Q66.12813 202.67729 66.12813 204.80229Z" fill-rule="nonzero"/><path fill="#000000" d="M58.1125 153.86125L58.1125 152.84563L63.675 152.84563L63.675 153.67375Q62.8625 154.54875 62.05 156.00188Q61.253124 157.43938 60.815624 158.97063Q60.4875 160.04875 60.409374 161.33L59.315624 161.33Q59.33125 160.31438 59.70625 158.87688Q60.096874 157.43938 60.8 156.11125Q61.51875 154.78313 62.33125 153.86125L58.1125 153.86125ZM65.05 159.08L66.15938 158.98625Q66.28438 159.79875 66.72188 160.205Q67.175 160.61125 67.81563 160.61125Q68.56563 160.61125 69.09688 160.03313Q69.62813 159.455 69.62813 158.5175Q69.62813 157.61125 69.1125 157.09563Q68.6125 156.56438 67.78438 156.56438Q67.28438 156.56438 66.8625 156.79875Q66.45625 157.03313 66.22188 157.3925L65.2375 157.2675L66.06563 152.86125L70.34688 152.86125L70.34688 153.86125L66.90938 153.86125L66.45625 156.17375Q67.22188 155.62688 68.06563 155.62688Q69.19063 155.62688 69.95625 156.40813Q70.7375 157.18938 70.7375 158.42375Q70.7375 159.58 70.06563 160.43938Q69.2375 161.47063 67.81563 161.47063Q66.64375 161.47063 65.89375 160.81438Q65.15938 160.15813 65.05 159.08Z" fill-rule="nonzero"/><path fill="#000000" d="M55.01875 113.62334L53.971874 113.62334L53.971874 106.90459Q53.58125 107.26396 52.95625 107.63896Q52.346874 107.99834 51.8625 108.17021L51.8625 107.15459Q52.7375 106.73271 53.39375 106.15459Q54.065624 105.56084 54.346874 104.99834L55.01875 104.99834L55.01875 113.62334ZM58.05 109.38896Q58.05 107.85771 58.3625 106.93584Q58.675 105.99834 59.284374 105.49834Q59.909374 104.99834 60.846874 104.99834Q61.534374 104.99834 62.05 105.27959Q62.58125 105.56084 62.925 106.09209Q63.26875 106.60771 63.45625 107.35771Q63.64375 108.10771 63.64375 109.38896Q63.64375 110.90459 63.33125 111.82646Q63.034374 112.74834 62.409374 113.26396Q61.8 113.76396 60.846874 113.76396Q59.6125 113.76396 58.89375 112.87334Q58.05 111.81084 58.05 109.38896ZM59.128124 109.38896Q59.128124 111.49834 59.628124 112.20146Q60.128124 112.90459 60.846874 112.90459Q61.58125 112.90459 62.065624 112.20146Q62.565624 111.49834 62.565624 109.38896Q62.565624 107.26396 62.065624 106.57646Q61.58125 105.87334 60.83125 105.87334Q60.1125 105.87334 59.675 106.48271Q59.128124 107.26396 59.128124 109.38896ZM65.05 109.38896Q65.05 107.85771 65.3625 106.93584Q65.675 105.99834 66.28438 105.49834Q66.90938 104.99834 67.84688 104.99834Q68.53438 104.99834 69.05 105.27959Q69.58125 105.56084 69.925 106.09209Q70.26875 106.60771 70.45625 107.35771Q70.64375 108.10771 70.64375 109.38896Q70.64375 110.90459 70.33125 111.82646Q70.03438 112.74834 69.40938 113.26396Q68.8 113.76396 67.84688 113.76396Q66.6125 113.76396 65.89375 112.87334Q65.05 111.81084 65.05 109.38896ZM66.12813 109.38896Q66.12813 111.49834 66.62813 112.20146Q67.12813 112.90459 67.84688 112.90459Q68.58125 112.90459 69.06563 112.20146Q69.56563 111.49834 69.56563 109.38896Q69.56563 107.26396 69.06563 106.57646Q68.58125 105.87334 67.83125 105.87334Q67.1125 105.87334 66.675 106.48271Q66.12813 107.26396 66.12813 109.38896Z" fill-rule="nonzero"/><path fill="#000000" d="M55.01875 65.916664L53.971874 65.916664L53.971874 59.197914Q53.58125 59.55729 52.95625 59.93229Q52.346874 60.291664 51.8625 60.46354L51.8625 59.447914Q52.7375 59.02604 53.39375 58.447914Q54.065624 57.854164 54.346874 57.291664L55.01875 57.291664L55.01875 65.916664ZM63.596874 64.90104L63.596874 65.916664L57.909374 65.916664Q57.909374 65.541664 58.034374 65.18229Q58.253124 64.604164 58.721874 64.041664Q59.20625 63.479164 60.1125 62.74479Q61.51875 61.58854 62.003124 60.916664Q62.503124 60.24479 62.503124 59.65104Q62.503124 59.02604 62.05 58.604164Q61.596874 58.166664 60.878124 58.166664Q60.1125 58.166664 59.659374 58.61979Q59.20625 59.072914 59.190624 59.885414L58.1125 59.77604Q58.221874 58.55729 58.940624 57.93229Q59.675 57.291664 60.909374 57.291664Q62.14375 57.291664 62.8625 57.979164Q63.58125 58.666664 63.58125 59.68229Q63.58125 60.197914 63.3625 60.697914Q63.159374 61.18229 62.659374 61.74479Q62.175 62.291664 61.05 63.24479Q60.096874 64.041664 59.815624 64.33854Q59.55 64.61979 59.378124 64.90104L63.596874 64.90104ZM65.05 63.666664L66.15938 63.572914Q66.28438 64.385414 66.72188 64.791664Q67.175 65.197914 67.81563 65.197914Q68.56563 65.197914 69.09688 64.61979Q69.62813 64.041664 69.62813 63.104164Q69.62813 62.197914 69.1125 61.68229Q68.6125 61.15104 67.78438 61.15104Q67.28438 61.15104 66.8625 61.385414Q66.45625 61.61979 66.22188 61.979164L65.2375 61.854164L66.06563 57.447914L70.34688 57.447914L70.34688 58.447914L66.90938 58.447914L66.45625 60.760414Q67.22188 60.21354 68.06563 60.21354Q69.19063 60.21354 69.95625 60.99479Q70.7375 61.77604 70.7375 63.010414Q70.7375 64.166664 70.06563 65.02604Q69.2375 66.05729 67.81563 66.05729Q66.64375 66.05729 65.89375 65.40104Q65.15938 64.74479 65.05 63.666664Z" fill-rule="nonzero"/><path fill="#000000" d="M81.36077 313.21564Q81.36077 311.6844 81.67327 310.7625Q81.98577 309.825 82.595146 309.325Q83.220146 308.825 84.157646 308.825Q84.845146 308.825 85.36077 309.10626Q85.89202 309.3875 86.23577 309.91876Q86.57952 310.4344 86.76702 311.1844Q86.95452 311.9344 86.95452 313.21564Q86.95452 314.73126 86.64202 315.65314Q86.345146 316.575 85.720146 317.09064Q85.11077 317.59064 84.157646 317.59064Q82.92327 317.59064 82.20452 316.7Q81.36077 315.6375 81.36077 313.21564ZM82.438896 313.21564Q82.438896 315.325 82.938896 316.02814Q83.438896 316.73126 84.157646 316.73126Q84.89202 316.73126 85.376396 316.02814Q85.876396 315.325 85.876396 313.21564Q85.876396 311.09064 85.376396 310.40314Q84.89202 309.7 84.14202 309.7Q83.42327 309.7 82.98577 310.3094Q82.438896 311.09064 82.438896 313.21564Z" fill-rule="nonzero"/><path fill="#000000" d="M172.15308 315.2L173.26245 315.10626Q173.38745 315.91876 173.82495 316.325Q174.27808 316.73126 174.9187 316.73126Q175.6687 316.73126 176.19995 316.15314Q176.7312 315.575 176.7312 314.6375Q176.7312 313.73126 176.21558 313.21564Q175.71558 312.6844 174.88745 312.6844Q174.38745 312.6844 173.96558 312.91876Q173.55933 313.15314 173.32495 313.5125L172.34058 313.3875L173.1687 308.98126L177.44995 308.98126L177.44995 309.98126L174.01245 309.98126L173.55933 312.29376Q174.32495 311.7469 175.1687 311.7469Q176.2937 311.7469 177.05933 312.52814Q177.84058 313.3094 177.84058 314.54376Q177.84058 315.7 177.1687 316.5594Q176.34058 317.59064 174.9187 317.59064Q173.74683 317.59064 172.99683 316.9344Q172.26245 316.27814 172.15308 315.2Z" fill-rule="nonzero"/><path fill="#000000" d="M263.41412 317.45L262.36725 317.45L262.36725 310.73126Q261.97662 311.09064 261.35162 311.46564Q260.74225 311.825 260.25787 311.9969L260.25787 310.98126Q261.13287 310.5594 261.78912 309.98126Q262.461 309.3875 262.74225 308.825L263.41412 308.825L263.41412 317.45ZM266.44537 313.21564Q266.44537 311.6844 266.75787 310.7625Q267.07037 309.825 267.67975 309.325Q268.30475 308.825 269.24225 308.825Q269.92975 308.825 270.44537 309.10626Q270.97662 309.3875 271.32037 309.91876Q271.66412 310.4344 271.85162 311.1844Q272.03912 311.9344 272.03912 313.21564Q272.03912 314.73126 271.72662 315.65314Q271.42975 316.575 270.80475 317.09064Q270.19537 317.59064 269.24225 317.59064Q268.00787 317.59064 267.28912 316.7Q266.44537 315.6375 266.44537 313.21564ZM267.5235 313.21564Q267.5235 315.325 268.0235 316.02814Q268.5235 316.73126 269.24225 316.73126Q269.97662 316.73126 270.461 316.02814Q270.961 315.325 270.961 313.21564Q270.961 311.09064 270.461 310.40314Q269.97662 309.7 269.22662 309.7Q268.50787 309.7 268.07037 310.3094Q267.5235 311.09064 267.5235 313.21564Z" fill-rule="nonzero"/><path fill="#000000" d="M354.20645 317.45L353.15958 317.45L353.15958 310.73126Q352.76895 311.09064 352.14395 311.46564Q351.53458 311.825 351.0502 311.9969L351.0502 310.98126Q351.9252 310.5594 352.58145 309.98126Q353.25333 309.3875 353.53458 308.825L354.20645 308.825L354.20645 317.45ZM357.2377 315.2L358.34708 315.10626Q358.47208 315.91876 358.90958 316.325Q359.3627 316.73126 360.00333 316.73126Q360.75333 316.73126 361.28458 316.15314Q361.81583 315.575 361.81583 314.6375Q361.81583 313.73126 361.3002 313.21564Q360.8002 312.6844 359.97208 312.6844Q359.47208 312.6844 359.0502 312.91876Q358.64395 313.15314 358.40958 313.5125L357.4252 313.3875L358.25333 308.98126L362.53458 308.98126L362.53458 309.98126L359.09708 309.98126L358.64395 312.29376Q359.40958 311.7469 360.25333 311.7469Q361.37833 311.7469 362.14395 312.52814Q362.9252 313.3094 362.9252 314.54376Q362.9252 315.7 362.25333 316.5594Q361.4252 317.59064 360.00333 317.59064Q358.83145 317.59064 358.08145 316.9344Q357.34708 316.27814 357.2377 315.2Z" fill-rule="nonzero"/><path fill="#000000" d="M446.57687 316.4344L446.57687 317.45L440.88937 317.45Q440.88937 317.075 441.01437 316.71564Q441.23312 316.1375 441.70187 315.575Q442.18625 315.0125 443.0925 314.27814Q444.49875 313.1219 444.98312 312.45Q445.48312 311.77814 445.48312 311.1844Q445.48312 310.5594 445.03 310.1375Q444.57687 309.7 443.85812 309.7Q443.0925 309.7 442.63937 310.15314Q442.18625 310.60626 442.17062 311.41876L441.0925 311.3094Q441.20187 310.09064 441.92062 309.46564Q442.655 308.825 443.88937 308.825Q445.12375 308.825 445.8425 309.5125Q446.56125 310.2 446.56125 311.21564Q446.56125 311.73126 446.3425 312.23126Q446.13937 312.71564 445.63937 313.27814Q445.155 313.825 444.03 314.77814Q443.07687 315.575 442.79562 315.8719Q442.53 316.15314 442.35812 316.4344L446.57687 316.4344ZM448.03 313.21564Q448.03 311.6844 448.3425 310.7625Q448.655 309.825 449.26437 309.325Q449.88937 308.825 450.82687 308.825Q451.51437 308.825 452.03 309.10626Q452.56125 309.3875 452.905 309.91876Q453.24875 310.4344 453.43625 311.1844Q453.62375 311.9344 453.62375 313.21564Q453.62375 314.73126 453.31125 315.65314Q453.01437 316.575 452.38937 317.09064Q451.78 317.59064 450.82687 317.59064Q449.5925 317.59064 448.87375 316.7Q448.03 315.6375 448.03 313.21564ZM449.10812 313.21564Q449.10812 315.325 449.60812 316.02814Q450.10812 316.73126 450.82687 316.73126Q451.56125 316.73126 452.04562 316.02814Q452.54562 315.325 452.54562 313.21564Q452.54562 311.09064 452.04562 310.40314Q451.56125 309.7 450.81125 309.7Q450.0925 309.7 449.655 310.3094Q449.10812 311.09064 449.10812 313.21564Z" fill-rule="nonzero"/><path fill="#000000" d="M537.3692 316.4344L537.3692 317.45L531.6817 317.45Q531.6817 317.075 531.8067 316.71564Q532.02545 316.1375 532.4942 315.575Q532.9786 315.0125 533.8848 314.27814Q535.2911 313.1219 535.77545 312.45Q536.27545 311.77814 536.27545 311.1844Q536.27545 310.5594 535.8223 310.1375Q535.3692 309.7 534.65045 309.7Q533.8848 309.7 533.4317 310.15314Q532.9786 310.60626 532.96295 311.41876L531.8848 311.3094Q531.9942 310.09064 532.71295 309.46564Q533.4473 308.825 534.6817 308.825Q535.9161 308.825 536.6348 309.5125Q537.3536 310.2 537.3536 311.21564Q537.3536 311.73126 537.1348 312.23126Q536.9317 312.71564 536.4317 313.27814Q535.9473 313.825 534.8223 314.77814Q533.8692 315.575 533.58795 315.8719Q533.3223 316.15314 533.15045 316.4344L537.3692 316.4344ZM538.8223 315.2L539.9317 315.10626Q540.0567 315.91876 540.4942 316.325Q540.9473 316.73126 541.58795 316.73126Q542.33795 316.73126 542.8692 316.15314Q543.40045 315.575 543.40045 314.6375Q543.40045 313.73126 542.8848 313.21564Q542.3848 312.6844 541.5567 312.6844Q541.0567 312.6844 540.6348 312.91876Q540.2286 313.15314 539.9942 313.5125L539.0098 313.3875L539.83795 308.98126L544.1192 308.98126L544.1192 309.98126L540.6817 309.98126L540.2286 312.29376Q540.9942 311.7469 541.83795 311.7469Q542.96295 311.7469 543.7286 312.52814Q544.5098 313.3094 544.5098 314.54376Q544.5098 315.7 543.83795 316.5594Q543.0098 317.59064 541.58795 317.59064Q540.4161 317.59064 539.6661 316.9344Q538.9317 316.27814 538.8223 315.2Z" fill-rule="nonzero"/><path fill="#757575" d="M19.8625 41.51875L19.8625 27.175L21.471874 27.175L21.471874 28.51875Q22.034374 27.7375 22.7375 27.346874Q23.45625 26.940624 24.471874 26.940624Q25.8 26.940624 26.815624 27.628124Q27.83125 28.315624 28.346874 29.565624Q28.878124 30.8 28.878124 32.284374Q28.878124 33.878124 28.3 35.159374Q27.7375 36.425 26.64375 37.1125Q25.55 37.784374 24.346874 37.784374Q23.471874 37.784374 22.76875 37.409374Q22.08125 37.034374 21.628124 36.471874L21.628124 41.51875L19.8625 41.51875ZM21.45625 32.425Q21.45625 34.425 22.26875 35.378124Q23.08125 36.33125 24.2375 36.33125Q25.409374 36.33125 26.2375 35.346874Q27.08125 34.3625 27.08125 32.26875Q27.08125 30.3 26.253124 29.315624Q25.440624 28.315624 24.315624 28.315624Q23.190624 28.315624 22.315624 29.378124Q21.45625 30.425 21.45625 32.425ZM30.846874 37.55L30.846874 27.175L32.425 27.175L32.425 28.753124Q33.034374 27.64375 33.55 27.3Q34.065624 26.940624 34.675 26.940624Q35.565624 26.940624 36.4875 27.503124L35.878124 29.14375Q35.2375 28.753124 34.596874 28.753124Q34.01875 28.753124 33.55 29.1125Q33.096874 29.45625 32.89375 30.065624Q32.6125 31.003124 32.6125 32.1125L32.6125 37.55L30.846874 37.55ZM37.221874 32.3625Q37.221874 29.4875 38.815624 28.096874Q40.159374 26.940624 42.08125 26.940624Q44.221874 26.940624 45.565624 28.346874Q46.925 29.753124 46.925 32.221874Q46.925 34.221874 46.33125 35.378124Q45.7375 36.51875 44.58125 37.159374Q43.440624 37.784374 42.08125 37.784374Q39.89375 37.784374 38.55 36.39375Q37.221874 34.9875 37.221874 32.3625ZM39.01875 32.3625Q39.01875 34.3625 39.878124 35.346874Q40.753124 36.33125 42.08125 36.33125Q43.39375 36.33125 44.253124 35.346874Q45.128124 34.346874 45.128124 32.3Q45.128124 30.378124 44.253124 29.39375Q43.378124 28.39375 42.08125 28.39375Q40.753124 28.39375 39.878124 29.39375Q39.01875 30.378124 39.01875 32.3625ZM48.8625 37.55L48.8625 27.175L50.440624 27.175L50.440624 28.628124Q50.925 27.878124 51.7375 27.409374Q52.55 26.940624 53.58125 26.940624Q54.7375 26.940624 55.471874 27.425Q56.20625 27.89375 56.51875 28.753124Q57.753124 26.940624 59.721874 26.940624Q61.26875 26.940624 62.096874 27.8Q62.925 28.659374 62.925 30.425L62.925 37.55L61.175 37.55L61.175 31.01875Q61.175 29.95625 61.003124 29.503124Q60.83125 29.034374 60.378124 28.753124Q59.940624 28.471874 59.33125 28.471874Q58.2375 28.471874 57.503124 29.20625Q56.784374 29.925 56.784374 31.51875L56.784374 37.55L55.034374 37.55L55.034374 30.815624Q55.034374 29.64375 54.596874 29.065624Q54.175 28.471874 53.190624 28.471874Q52.45625 28.471874 51.815624 28.8625Q51.190624 29.253124 50.909374 30.003124Q50.628124 30.753124 50.628124 32.175L50.628124 37.55L48.8625 37.55ZM64.8625 41.51875L64.8625 27.175L66.47188 27.175L66.47188 28.51875Q67.03438 27.7375 67.7375 27.346874Q68.45625 26.940624 69.47188 26.940624Q70.8 26.940624 71.81563 27.628124Q72.83125 28.315624 73.34688 29.565624Q73.87813 30.8 73.87813 32.284374Q73.87813 33.878124 73.3 35.159374Q72.7375 36.425 71.64375 37.1125Q70.55 37.784374 69.34688 37.784374Q68.47188 37.784374 67.76875 37.409374Q67.08125 37.034374 66.62813 36.471874L66.62813 41.51875L64.8625 41.51875ZM66.45625 32.425Q66.45625 34.425 67.26875 35.378124Q68.08125 36.33125 69.2375 36.33125Q70.40938 36.33125 71.2375 35.346874Q72.08125 34.3625 72.08125 32.26875Q72.08125 30.3 71.25313 29.315624Q70.44063 28.315624 69.31563 28.315624Q68.19063 28.315624 67.31563 29.378124Q66.45625 30.425 66.45625 32.425ZM79.70625 35.971874L79.95625 37.534374Q79.22188 37.690624 78.62813 37.690624Q77.675 37.690624 77.14375 37.39375Q76.62813 37.08125 76.40938 36.596874Q76.19063 36.096874 76.19063 34.51875L76.19063 28.55L74.90938 28.55L74.90938 27.175L76.19063 27.175L76.19063 24.6125L77.94063 23.55L77.94063 27.175L79.70625 27.175L79.70625 28.55L77.94063 28.55L77.94063 34.6125Q77.94063 35.3625 78.03438 35.58125Q78.12813 35.784374 78.33125 35.925Q78.55 36.05 78.94063 36.05Q79.22188 36.05 79.70625 35.971874ZM87.8625 41.51875L87.8625 27.175L89.47188 27.175L89.47188 28.51875Q90.03438 27.7375 90.7375 27.346874Q91.45625 26.940624 92.47188 26.940624Q93.8 26.940624 94.81563 27.628124Q95.83125 28.315624 96.34688 29.565624Q96.87813 30.8 96.87813 32.284374Q96.87813 33.878124 96.3 35.159374Q95.7375 36.425 94.64375 37.1125Q93.55 37.784374 92.34688 37.784374Q91.47188 37.784374 90.76875 37.409374Q90.08125 37.034374 89.62813 36.471874L89.62813 41.51875L87.8625 41.51875ZM89.45625 32.425Q89.45625 34.425 90.26875 35.378124Q91.08125 36.33125 92.2375 36.33125Q93.40938 36.33125 94.2375 35.346874Q95.08125 34.3625 95.08125 32.26875Q95.08125 30.3 94.25313 29.315624Q93.44063 28.315624 92.31563 28.315624Q91.19063 28.315624 90.31563 29.378124Q89.45625 30.425 89.45625 32.425ZM98.84688 37.55L98.84688 27.175L100.425 27.175L100.425 28.753124Q101.03438 27.64375 101.55 27.3Q102.06563 26.940624 102.675 26.940624Q103.56563 26.940624 104.4875 27.503124L103.87813 29.14375Q103.2375 28.753124 102.59688 28.753124Q102.01875 28.753124 101.55 29.1125Q101.09688 29.45625 100.89375 30.065624Q100.6125 31.003124 100.6125 32.1125L100.6125 37.55L98.84688 37.55ZM105.22188 32.3625Q105.22188 29.4875 106.81563 28.096874Q108.15938 26.940624 110.08125 26.940624Q112.22188 26.940624 113.56563 28.346874Q114.925 29.753124 114.925 32.221874Q114.925 34.221874 114.33125 35.378124Q113.7375 36.51875 112.58125 37.159374Q111.44063 37.784374 110.08125 37.784374Q107.89375 37.784374 106.55 36.39375Q105.22188 34.9875 105.22188 32.3625ZM107.01875 32.3625Q107.01875 34.3625 107.87813 35.346874Q108.75313 36.33125 110.08125 36.33125Q111.39375 36.33125 112.25313 35.346874Q113.12813 34.346874 113.12813 32.3Q113.12813 30.378124 112.25313 29.39375Q111.37813 28.39375 110.08125 28.39375Q108.75313 28.39375 107.87813 29.39375Q107.01875 30.378124 107.01875 32.3625ZM123.64375 33.753124L125.3625 33.971874Q125.08125 35.76875 123.90938 36.784374Q122.75313 37.784374 121.05 37.784374Q118.925 37.784374 117.62813 36.39375Q116.33125 35.003124 116.33125 32.409374Q116.33125 30.721874 116.87813 29.471874Q117.44063 28.20625 118.58125 27.58125Q119.72188 26.940624 121.06563 26.940624Q122.75313 26.940624 123.81563 27.8Q124.89375 28.659374 125.20625 30.221874L123.4875 30.4875Q123.25313 29.440624 122.62813 28.925Q122.00313 28.39375 121.12813 28.39375Q119.8 28.39375 118.97188 29.346874Q118.14375 30.3 118.14375 32.346874Q118.14375 34.440624 118.94063 35.39375Q119.7375 36.33125 121.03438 36.33125Q122.06563 36.33125 122.75313 35.70625Q123.45625 35.065624 123.64375 33.753124ZM133.97188 34.20625L135.78438 34.440624Q135.3625 36.01875 134.19063 36.909374Q133.03438 37.784374 131.22188 37.784374Q128.95625 37.784374 127.6125 36.39375Q126.28438 34.9875 126.28438 32.45625Q126.28438 29.83125 127.62813 28.39375Q128.97188 26.940624 131.12813 26.940624Q133.20625 26.940624 134.51875 28.3625Q135.84688 29.76875 135.84688 32.346874Q135.84688 32.503124 135.83125 32.815624L128.09688 32.815624Q128.19063 34.51875 129.06563 35.425Q129.94063 36.33125 131.2375 36.33125Q132.20625 36.33125 132.87813 35.83125Q133.56563 35.315624 133.97188 34.20625ZM128.19063 31.3625L133.9875 31.3625Q133.87813 30.065624 133.33125 29.409374Q132.4875 28.39375 131.14375 28.39375Q129.94063 28.39375 129.1125 29.20625Q128.28438 30.003124 128.19063 31.3625ZM137.15938 34.45625L138.90938 34.175Q139.05 35.221874 139.72188 35.784374Q140.39375 36.33125 141.59688 36.33125Q142.8 36.33125 143.37813 35.846874Q143.97188 35.346874 143.97188 34.690624Q143.97188 34.096874 143.45625 33.753124Q143.09688 33.51875 141.65938 33.159374Q139.72188 32.659374 138.97188 32.315624Q138.2375 31.95625 137.84688 31.33125Q137.45625 30.690624 137.45625 29.925Q137.45625 29.2375 137.76875 28.64375Q138.09688 28.05 138.64375 27.659374Q139.05 27.3625 139.75313 27.159374Q140.47188 26.940624 141.28438 26.940624Q142.50313 26.940624 143.425 27.3Q144.34688 27.64375 144.78438 28.253124Q145.22188 28.846874 145.39375 29.846874L143.675 30.08125Q143.55 29.284374 142.9875 28.846874Q142.425 28.39375 141.40938 28.39375Q140.19063 28.39375 139.675 28.8Q139.15938 29.190624 139.15938 29.721874Q139.15938 30.065624 139.37813 30.346874Q139.58125 30.628124 140.05 30.815624Q140.31563 30.909374 141.59688 31.253124Q143.47188 31.753124 144.20625 32.08125Q144.94063 32.39375 145.3625 33.003124Q145.78438 33.596874 145.78438 34.503124Q145.78438 35.378124 145.26875 36.159374Q144.75313 36.940624 143.78438 37.3625Q142.81563 37.784374 141.59688 37.784374Q139.58125 37.784374 138.51875 36.940624Q137.45625 36.096874 137.15938 34.45625ZM147.15938 34.45625L148.90938 34.175Q149.05 35.221874 149.72188 35.784374Q150.39375 36.33125 151.59688 36.33125Q152.8 36.33125 153.37813 35.846874Q153.97188 35.346874 153.97188 34.690624Q153.97188 34.096874 153.45625 33.753124Q153.09688 33.51875 151.65938 33.159374Q149.72188 32.659374 148.97188 32.315624Q148.2375 31.95625 147.84688 31.33125Q147.45625 30.690624 147.45625 29.925Q147.45625 29.2375 147.76875 28.64375Q148.09688 28.05 148.64375 27.659374Q149.05 27.3625 149.75313 27.159374Q150.47188 26.940624 151.28438 26.940624Q152.50313 26.940624 153.425 27.3Q154.34688 27.64375 154.78438 28.253124Q155.22188 28.846874 155.39375 29.846874L153.675 30.08125Q153.55 29.284374 152.9875 28.846874Q152.425 28.39375 151.40938 28.39375Q150.19063 28.39375 149.675 28.8Q149.15938 29.190624 149.15938 29.721874Q149.15938 30.065624 149.37813 30.346874Q149.58125 30.628124 150.05 30.815624Q150.31563 30.909374 151.59688 31.253124Q153.47188 31.753124 154.20625 32.08125Q154.94063 32.39375 155.3625 33.003124Q155.78438 33.596874 155.78438 34.503124Q155.78438 35.378124 155.26875 36.159374Q154.75313 36.940624 153.78438 37.3625Q152.81563 37.784374 151.59688 37.784374Q149.58125 37.784374 148.51875 36.940624Q147.45625 36.096874 147.15938 34.45625ZM157.87813 25.253124L157.87813 23.2375L159.64375 23.2375L159.64375 25.253124L157.87813 25.253124ZM157.87813 37.55L157.87813 27.175L159.64375 27.175L159.64375 37.55L157.87813 37.55ZM161.8625 37.55L161.8625 27.175L163.45625 27.175L163.45625 28.659374Q164.59688 26.940624 166.75313 26.940624Q167.69063 26.940624 168.47188 27.284374Q169.26875 27.6125 169.65938 28.159374Q170.05 28.70625 170.20625 29.45625Q170.3 29.95625 170.3 31.175L170.3 37.55L168.53438 37.55L168.53438 31.2375Q168.53438 30.159374 168.33125 29.628124Q168.12813 29.096874 167.59688 28.784374Q167.08125 28.471874 166.37813 28.471874Q165.25313 28.471874 164.44063 29.190624Q163.62813 29.89375 163.62813 31.878124L163.62813 37.55L161.8625 37.55ZM171.55 38.409374L173.25313 38.659374Q173.3625 39.45625 173.84688 39.815624Q174.50313 40.3 175.64375 40.3Q176.8625 40.3 177.51875 39.815624Q178.19063 39.33125 178.425 38.45625Q178.56563 37.909374 178.55 36.190624Q177.39375 37.55 175.675 37.55Q173.53438 37.55 172.3625 36.003124Q171.19063 34.45625 171.19063 32.3Q171.19063 30.815624 171.72188 29.565624Q172.26875 28.315624 173.28438 27.628124Q174.31563 26.940624 175.69063 26.940624Q177.51875 26.940624 178.72188 28.425L178.72188 27.175L180.33125 27.175L180.33125 36.14375Q180.33125 38.565624 179.83125 39.565624Q179.34688 40.58125 178.26875 41.159374Q177.20625 41.753124 175.64375 41.753124Q173.8 41.753124 172.64375 40.925Q171.50313 40.096874 171.55 38.409374ZM173.00313 32.175Q173.00313 34.221874 173.81563 35.159374Q174.62813 36.096874 175.84688 36.096874Q177.05 36.096874 177.8625 35.159374Q178.69063 34.221874 178.69063 32.2375Q178.69063 30.33125 177.84688 29.3625Q177.00313 28.39375 175.81563 28.39375Q174.64375 28.39375 173.81563 29.346874Q173.00313 30.3 173.00313 32.175ZM191.75313 37.55L187.8 27.175L189.65938 27.175L191.89375 33.39375Q192.25313 34.39375 192.55 35.471874Q192.78438 34.659374 193.20625 33.503124L195.50313 27.175L197.31563 27.175L193.39375 37.55L191.75313 37.55ZM197.15938 34.45625L198.90938 34.175Q199.05 35.221874 199.72188 35.784374Q200.39375 36.33125 201.59688 36.33125Q202.8 36.33125 203.37813 35.846874Q203.97188 35.346874 203.97188 34.690624Q203.97188 34.096874 203.45625 33.753124Q203.09688 33.51875 201.65938 33.159374Q199.72188 32.659374 198.97188 32.315624Q198.2375 31.95625 197.84688 31.33125Q197.45625 30.690624 197.45625 29.925Q197.45625 29.2375 197.76875 28.64375Q198.09688 28.05 198.64375 27.659374Q199.05 27.3625 199.75313 27.159374Q200.47188 26.940624 201.28438 26.940624Q202.50313 26.940624 203.425 27.3Q204.34688 27.64375 204.78438 28.253124Q205.22188 28.846874 205.39375 29.846874L203.675 30.08125Q203.55 29.284374 202.9875 28.846874Q202.425 28.39375 201.40938 28.39375Q200.19063 28.39375 199.675 28.8Q199.15938 29.190624 199.15938 29.721874Q199.15938 30.065624 199.37813 30.346874Q199.58125 30.628124 200.05 30.815624Q200.31563 30.909374 201.59688 31.253124Q203.47188 31.753124 204.20625 32.08125Q204.94063 32.39375 205.3625 33.003124Q205.78438 33.596874 205.78438 34.503124Q205.78438 35.378124 205.26875 36.159374Q204.75313 36.940624 203.78438 37.3625Q202.81563 37.784374 201.59688 37.784374Q199.58125 37.784374 198.51875 36.940624Q197.45625 36.096874 197.15938 34.45625ZM213.83125 37.55L213.83125 23.2375L215.58125 23.2375L215.58125 37.55L213.83125 37.55ZM224.64375 36.26875Q223.65938 37.096874 222.75313 37.440624Q221.84688 37.784374 220.81563 37.784374Q219.1125 37.784374 218.19063 36.95625Q217.26875 36.1125 217.26875 34.815624Q217.26875 34.05 217.6125 33.425Q217.97188 32.8 218.53438 32.425Q219.09688 32.034374 219.8 31.83125Q220.31563 31.70625 221.3625 31.565624Q223.4875 31.315624 224.4875 30.971874Q224.50313 30.6125 224.50313 30.503124Q224.50313 29.440624 224.00313 28.9875Q223.33125 28.39375 222.00313 28.39375Q220.75313 28.39375 220.15938 28.83125Q219.58125 29.26875 219.3 30.378124L217.58125 30.14375Q217.81563 29.034374 218.34688 28.3625Q218.87813 27.675 219.89375 27.315624Q220.90938 26.940624 222.25313 26.940624Q223.58125 26.940624 224.40938 27.253124Q225.2375 27.565624 225.62813 28.05Q226.01875 28.51875 226.175 29.2375Q226.26875 29.690624 226.26875 30.8625L226.26875 33.20625Q226.26875 35.659374 226.37813 36.315624Q226.4875 36.95625 226.83125 37.55L224.9875 37.55Q224.72188 37.003124 224.64375 36.26875ZM224.4875 32.346874Q223.53438 32.7375 221.6125 33.003124Q220.53438 33.159374 220.08125 33.3625Q219.64375 33.55 219.39375 33.925Q219.14375 34.3 219.14375 34.76875Q219.14375 35.471874 219.675 35.940624Q220.20625 36.409374 221.2375 36.409374Q222.25313 36.409374 223.03438 35.971874Q223.83125 35.51875 224.20625 34.753124Q224.4875 34.14375 224.4875 32.9875L224.4875 32.346874ZM228.78438 41.55L228.59688 39.89375Q229.175 40.05 229.59688 40.05Q230.19063 40.05 230.53438 39.846874Q230.89375 39.659374 231.1125 39.315624Q231.28438 39.05 231.65938 38.003124Q231.70625 37.846874 231.81563 37.565624L227.87813 27.175L229.76875 27.175L231.925 33.190624Q232.34688 34.33125 232.675 35.58125Q232.9875 34.378124 233.39375 33.221874L235.6125 27.175L237.37813 27.175L233.425 37.721874Q232.8 39.440624 232.44063 40.08125Q231.97188 40.95625 231.3625 41.346874Q230.76875 41.753124 229.925 41.753124Q229.40938 41.753124 228.78438 41.55ZM245.97188 34.20625L247.78438 34.440624Q247.3625 36.01875 246.19063 36.909374Q245.03438 37.784374 243.22188 37.784374Q240.95625 37.784374 239.6125 36.39375Q238.28438 34.9875 238.28438 32.45625Q238.28438 29.83125 239.62813 28.39375Q240.97188 26.940624 243.12813 26.940624Q245.20625 26.940624 246.51875 28.3625Q247.84688 29.76875 247.84688 32.346874Q247.84688 32.503124 247.83125 32.815624L240.09688 32.815624Q240.19063 34.51875 241.06563 35.425Q241.94063 36.33125 243.2375 36.33125Q244.20625 36.33125 244.87813 35.83125Q245.56563 35.315624 245.97188 34.20625ZM240.19063 31.3625L245.9875 31.3625Q245.87813 30.065624 245.33125 29.409374Q244.4875 28.39375 243.14375 28.39375Q241.94063 28.39375 241.1125 29.20625Q240.28438 30.003124 240.19063 31.3625ZM249.84688 37.55L249.84688 27.175L251.425 27.175L251.425 28.753124Q252.03438 27.64375 252.55 27.3Q253.06563 26.940624 253.675 26.940624Q254.56563 26.940624 255.4875 27.503124L254.87813 29.14375Q254.2375 28.753124 253.59688 28.753124Q253.01875 28.753124 252.55 29.1125Q252.09688 29.45625 251.89375 30.065624Q251.6125 31.003124 251.6125 32.1125L251.6125 37.55L249.84688 37.55ZM256.15936 34.45625L257.90936 34.175Q258.05 35.221874 258.72186 35.784374Q259.39374 36.33125 260.59686 36.33125Q261.8 36.33125 262.3781 35.846874Q262.97186 35.346874 262.97186 34.690624Q262.97186 34.096874 262.45624 33.753124Q262.09686 33.51875 260.65936 33.159374Q258.72186 32.659374 257.97186 32.315624Q257.2375 31.95625 256.84686 31.33125Q256.45624 30.690624 256.45624 29.925Q256.45624 29.2375 256.76874 28.64375Q257.09686 28.05 257.64374 27.659374Q258.05 27.3625 258.7531 27.159374Q259.47186 26.940624 260.28436 26.940624Q261.5031 26.940624 262.425 27.3Q263.34686 27.64375 263.78436 28.253124Q264.22186 28.846874 264.39374 29.846874L262.675 30.08125Q262.55 29.284374 261.9875 28.846874Q261.425 28.39375 260.40936 28.39375Q259.1906 28.39375 258.675 28.8Q258.15936 29.190624 258.15936 29.721874Q258.15936 30.065624 258.3781 30.346874Q258.58124 30.628124 259.05 30.815624Q259.3156 30.909374 260.59686 31.253124Q262.47186 31.753124 263.20624 32.08125Q263.9406 32.39375 264.3625 33.003124Q264.78436 33.596874 264.78436 34.503124Q264.78436 35.378124 264.26874 36.159374Q263.7531 36.940624 262.78436 37.3625Q261.8156 37.784374 260.59686 37.784374Q258.58124 37.784374 257.51874 36.940624Q256.45624 36.096874 256.15936 34.45625ZM279.8 31.940624L279.8 30.253124L285.8625 30.2375L285.8625 35.55Q284.45624 36.675 282.97186 37.2375Q281.4875 37.8 279.925 37.8Q277.8156 37.8 276.09686 36.89375Q274.3781 35.9875 273.4875 34.284374Q272.6125 32.565624 272.6125 30.45625Q272.6125 28.3625 273.4875 26.565624Q274.3625 24.753124 276.0031 23.878124Q277.64374 22.9875 279.78436 22.9875Q281.33124 22.9875 282.58124 23.4875Q283.84686 23.9875 284.55 24.89375Q285.26874 25.784374 285.64374 27.2375L283.9406 27.70625Q283.6125 26.6125 283.1281 25.9875Q282.65936 25.3625 281.76874 24.9875Q280.8781 24.6125 279.8 24.6125Q278.4875 24.6125 277.53436 25.003124Q276.59686 25.39375 276.01874 26.05Q275.4406 26.690624 275.1125 27.45625Q274.5656 28.784374 274.5656 30.346874Q274.5656 32.253124 275.22186 33.55Q275.89374 34.83125 277.14374 35.45625Q278.40936 36.08125 279.8156 36.08125Q281.05 36.08125 282.22186 35.6125Q283.39374 35.14375 284.0031 34.596874L284.0031 31.940624L279.8 31.940624ZM289.09686 37.55L289.09686 23.2375L294.4875 23.2375Q295.925 23.2375 296.675 23.3625Q297.72186 23.55 298.4406 24.05Q299.15936 24.534374 299.58124 25.425Q300.01874 26.315624 300.01874 27.378124Q300.01874 29.20625 298.84686 30.471874Q297.6906 31.721874 294.65936 31.721874L290.9875 31.721874L290.9875 37.55L289.09686 37.55ZM290.9875 30.034374L294.6906 30.034374Q296.51874 30.034374 297.28436 29.3625Q298.0656 28.675 298.0656 27.425Q298.0656 26.534374 297.6125 25.89375Q297.15936 25.253124 296.425 25.05Q295.9406 24.925 294.64374 24.925L290.9875 24.925L290.9875 30.034374ZM311.4875 23.2375L313.3781 23.2375L313.3781 31.503124Q313.3781 33.659374 312.89374 34.940624Q312.40936 36.20625 311.1281 37.003124Q309.8625 37.8 307.78436 37.8Q305.76874 37.8 304.4875 37.1125Q303.22186 36.409374 302.675 35.096874Q302.1281 33.784374 302.1281 31.503124L302.1281 23.2375L304.01874 23.2375L304.01874 31.4875Q304.01874 33.3625 304.3625 34.253124Q304.70624 35.128124 305.55 35.6125Q306.39374 36.08125 307.6281 36.08125Q309.70624 36.08125 310.59686 35.14375Q311.4875 34.190624 311.4875 31.4875L311.4875 23.2375Z" fill-rule="nonzero"/></svg>