<svg version="1.1" viewBox="0.0 0.0 600.0 371.0" fill="none" stroke="none" stroke-linecap="square" stroke-miterlimit="10" width="600" height="371" xmlns:xlink="http://www.w3.org/1999/xlink" xmlns="http://www.w3.org/2000/svg"><path fill="#ffffff" d="M0 0L600.0 0L600.0 371.0L0 371.0L0 0Z" fill-rule="nonzero"/><path stroke="#333333" stroke-width="1.0" stroke-linecap="butt" d="M84.5 61.5L84.5 300.5" fill-rule="nonzero"/><path stroke="#cccccc" stroke-width="1.0" stroke-linecap="butt" d="M175.5 61.5L175.5 300.5" fill-rule="nonzero"/><path stroke="#cccccc" stroke-width="1.0" stroke-linecap="butt" d="M265.5 61.5L265.5 300.5" fill-rule="nonzero"/><path stroke="#cccccc" stroke-width="1.0" stroke-linecap="butt" d="M356.5 61.5L356.5 300.5" fill-rule="nonzero"/><path stroke="#cccccc" stroke-width="1.0" stroke-linecap="butt" d="M447.5 61.5L447.5 300.5" fill-rule="nonzero"/><path stroke="#cccccc" stroke-width="1.0" stroke-linecap="butt" d="M538.5 61.5L538.5 300.5" fill-rule="nonzero"/><path stroke="#333333" stroke-width="1.0" stroke-linecap="butt" d="M77.5 300.5L581.5 300.5" fill-rule="nonzero"/><path stroke="#cccccc" stroke-width="1.0" stroke-linecap="butt" d="M77.5 220.5L581.5 220.5" fill-rule="nonzero"/><path stroke="#cccccc" stroke-width="1.0" stroke-linecap="butt" d="M77.5 141.5L581.5 141.5" fill-rule="nonzero"/><path stroke="#cccccc" stroke-width="1.0" stroke-linecap="butt" d="M77.5 61.5L581.5 61.5" fill-rule="nonzero"/><clipPath id="id_0"><path d="M77.55 61.916668L581.45 61.916668L581.45 300.45L77.55 300.45L77.55 61.916668Z" clip-rule="nonzero"/></clipPath><path stroke="#34a853" stroke-width="2.0" stroke-linecap="butt" clip-path="url(#id_0)" d="M84.36077 197.48311L175.15308 187.54422L265.94537 172.83467L356.7377 154.5471L447.53 132.68155L538.3223 100.47955L574.6392 68.27756" fill-rule="nonzero"/><path fill="#34a853" clip-path="url(#id_0)" d="M88.86077 197.48311C88.86077 199.9684 86.846054 201.98311 84.36077 201.98311C81.875496 201.98311 79.86077 199.9684 79.86077 197.48311C79.86077 194.99783 81.875496 192.98311 84.36077 192.98311C86.846054 192.98311 88.86077 194.99783 88.86077 197.48311Z" fill-rule="nonzero"/><path fill="#34a853" clip-path="url(#id_0)" d="M179.65308 187.54422C179.65308 190.02951 177.63837 192.04422 175.15308 192.04422C172.6678 192.04422 170.65308 190.02951 170.65308 187.54422C170.65308 185.05894 172.6678 183.04422 175.15308 183.04422C177.63837 183.04422 179.65308 185.05894 179.65308 187.54422Z" fill-rule="nonzero"/><path fill="#34a853" clip-path="url(#id_0)" d="M270.44537 172.83467C270.44537 175.31995 268.43066 177.33467 265.94537 177.33467C263.4601 177.33467 261.44537 175.31995 261.44537 172.83467C261.44537 170.34938 263.4601 168.33467 265.94537 168.33467C268.43066 168.33467 270.44537 170.34938 270.44537 172.83467Z" fill-rule="nonzero"/><path fill="#34a853" clip-path="url(#id_0)" d="M361.2377 154.5471C361.2377 157.0324 359.22296 159.0471 356.7377 159.0471C354.2524 159.0471 352.2377 157.0324 352.2377 154.5471C352.2377 152.06183 354.2524 150.0471 356.7377 150.0471C359.22296 150.0471 361.2377 152.06183 361.2377 154.5471Z" fill-rule="nonzero"/><path fill="#34a853" clip-path="url(#id_0)" d="M452.03 132.68155C452.03 135.16684 450.0153 137.18155 447.53 137.18155C445.0447 137.18155 443.03 135.16684 443.03 132.68155C443.03 130.19627 445.0447 128.18155 447.53 128.18155C450.0153 128.18155 452.03 130.19627 452.03 132.68155Z" fill-rule="nonzero"/><path fill="#34a853" clip-path="url(#id_0)" d="M542.8223 100.47955C542.8223 102.964836 540.80756 104.97955 538.3223 104.97955C535.83704 104.97955 533.8223 102.964836 533.8223 100.47955C533.8223 97.99428 535.83704 95.97955 538.3223 95.97955C540.80756 95.97955 542.8223 97.99428 542.8223 100.47955Z" fill-rule="nonzero"/><path fill="#34a853" clip-path="url(#id_0)" d="M579.1392 68.27756C579.1392 70.76284 577.1245 72.77756 574.6392 72.77756C572.15393 72.77756 570.1392 70.76284 570.1392 68.27756C570.1392 65.792274 572.15393 63.777557 574.6392 63.777557C577.1245 63.777557 579.1392 65.792274 579.1392 68.27756Z" fill-rule="nonzero"/><path fill="#000000" d="M299.26562 349.45L299.26562 340.85626L300.32812 340.85626L300.32812 349.45L299.26562 349.45ZM306.35938 348.6844Q305.76562 349.1844 305.21875 349.3875Q304.6875 349.59064 304.0625 349.59064Q303.03125 349.59064 302.48438 349.09064Q301.9375 348.59064 301.9375 347.8094Q301.9375 347.35626 302.14062 346.98126Q302.34375 346.59064 302.6875 346.3719Q303.03125 346.1375 303.45312 346.02814Q303.75 345.9344 304.39062 345.85626Q305.65625 345.71564 306.26562 345.4969Q306.26562 345.27814 306.26562 345.23126Q306.26562 344.575 305.96875 344.3094Q305.5625 343.96564 304.76562 343.96564Q304.03125 343.96564 303.67188 344.23126Q303.3125 344.48126 303.14062 345.1375L302.10938 344.9969Q302.25 344.34064 302.57812 343.9344Q302.90625 343.52814 303.51562 343.3094Q304.125 343.09064 304.92188 343.09064Q305.71875 343.09064 306.21875 343.27814Q306.71875 343.46564 306.95312 343.7469Q307.1875 344.02814 307.28125 344.46564Q307.32812 344.73126 307.32812 345.4344L307.32812 346.84064Q307.32812 348.3094 307.39062 348.7Q307.46875 349.09064 307.67188 349.45L306.5625 349.45Q306.40625 349.1219 306.35938 348.6844ZM306.26562 346.325Q305.6875 346.5594 304.54688 346.73126Q303.89062 346.825 303.625 346.95Q303.35938 347.0594 303.20312 347.27814Q303.0625 347.4969 303.0625 347.77814Q303.0625 348.2 303.375 348.48126Q303.70312 348.7625 304.3125 348.7625Q304.92188 348.7625 305.39062 348.4969Q305.875 348.23126 306.09375 347.7625Q306.26562 347.40314 306.26562 346.71564L306.26562 346.325ZM309.25 351.84064L309.125 350.85626Q309.46875 350.95 309.73438 350.95Q310.07812 350.95 310.28125 350.825Q310.5 350.71564 310.64062 350.5125Q310.73438 350.34064 310.96875 349.71564Q310.98438 349.6375 311.0625 349.46564L308.6875 343.23126L309.82812 343.23126L311.125 346.825Q311.375 347.5125 311.57812 348.27814Q311.76562 347.54376 312.01562 346.85626L313.34375 343.23126L314.39062 343.23126L312.03125 349.5594Q311.64062 350.575 311.4375 350.96564Q311.15625 351.4969 310.78125 351.73126Q310.42188 351.98126 309.92188 351.98126Q309.625 351.98126 309.25 351.84064ZM318.54688 347.45L319.64062 347.575Q319.39062 348.52814 318.6875 349.0594Q317.98438 349.59064 316.90625 349.59064Q315.54688 349.59064 314.73438 348.7469Q313.9375 347.90314 313.9375 346.3875Q313.9375 344.825 314.75 343.96564Q315.5625 343.09064 316.84375 343.09064Q318.09375 343.09064 318.875 343.9344Q319.67188 344.77814 319.67188 346.325Q319.67188 346.41876 319.67188 346.60626L315.03125 346.60626Q315.09375 347.6375 315.60938 348.1844Q316.125 348.71564 316.90625 348.71564Q317.48438 348.71564 317.89062 348.41876Q318.3125 348.10626 318.54688 347.45ZM315.09375 345.7469L318.5625 345.7469Q318.5 344.95 318.17188 344.5594Q317.65625 343.95 316.85938 343.95Q316.125 343.95 315.625 344.4344Q315.14062 344.91876 315.09375 345.7469ZM321.28125 349.45L321.28125 343.23126L322.23438 343.23126L322.23438 344.16876Q322.59375 343.5125 322.89062 343.3094Q323.20312 343.09064 323.57812 343.09064Q324.10938 343.09064 324.65625 343.41876L324.29688 344.40314Q323.90625 344.16876 323.53125 344.16876Q323.17188 344.16876 322.89062 344.3875Q322.625 344.59064 322.51562 344.96564Q322.32812 345.52814 322.32812 346.1844L322.32812 349.45L321.28125 349.45ZM324.875 347.59064L325.90625 347.4344Q326.0 348.0594 326.39062 348.3875Q326.79688 348.71564 327.53125 348.71564Q328.25 348.71564 328.59375 348.4344Q328.95312 348.1375 328.95312 347.73126Q328.95312 347.3719 328.64062 347.16876Q328.42188 347.02814 327.5625 346.8094Q326.40625 346.5125 325.95312 346.3094Q325.51562 346.09064 325.28125 345.71564Q325.04688 345.34064 325.04688 344.8719Q325.04688 344.46564 325.23438 344.10626Q325.42188 343.7469 325.75 343.5125Q326.0 343.34064 326.42188 343.21564Q326.84375 343.09064 327.34375 343.09064Q328.0625 343.09064 328.60938 343.3094Q329.17188 343.5125 329.4375 343.8719Q329.70312 344.23126 329.79688 344.825L328.76562 344.96564Q328.70312 344.4969 328.35938 344.23126Q328.03125 343.95 327.40625 343.95Q326.6875 343.95 326.375 344.2Q326.0625 344.4344 326.0625 344.7625Q326.0625 344.96564 326.1875 345.1219Q326.32812 345.29376 326.59375 345.40314Q326.75 345.46564 327.53125 345.66876Q328.65625 345.98126 329.09375 346.16876Q329.53125 346.35626 329.78125 346.71564Q330.03125 347.075 330.03125 347.6219Q330.03125 348.15314 329.71875 348.6219Q329.42188 349.075 328.84375 349.34064Q328.26562 349.59064 327.53125 349.59064Q326.3125 349.59064 325.67188 349.09064Q325.04688 348.575 324.875 347.59064ZM339.45312 346.075L339.45312 345.075L343.07812 345.0594L343.07812 348.2469Q342.25 348.91876 341.35938 349.2625Q340.46875 349.59064 339.53125 349.59064Q338.26562 349.59064 337.21875 349.0594Q336.1875 348.5125 335.65625 347.4969Q335.14062 346.46564 335.14062 345.2Q335.14062 343.9344 335.65625 342.85626Q336.1875 341.7625 337.17188 341.2469Q338.15625 340.71564 339.4375 340.71564Q340.375 340.71564 341.125 341.0125Q341.875 341.3094 342.29688 341.85626Q342.73438 342.3875 342.95312 343.2625L341.9375 343.54376Q341.73438 342.8875 341.4375 342.5125Q341.15625 342.1375 340.625 341.91876Q340.09375 341.6844 339.45312 341.6844Q338.67188 341.6844 338.09375 341.91876Q337.53125 342.15314 337.17188 342.54376Q336.82812 342.9344 336.64062 343.40314Q336.3125 344.2 336.3125 345.1219Q336.3125 346.27814 336.70312 347.0594Q337.10938 347.825 337.85938 348.2Q338.60938 348.575 339.46875 348.575Q340.20312 348.575 340.90625 348.29376Q341.60938 347.9969 341.96875 347.6844L341.96875 346.075L339.45312 346.075ZM344.42188 349.45L344.42188 340.85626L347.67188 340.85626Q348.51562 340.85626 348.96875 340.9344Q349.60938 341.04376 350.03125 341.34064Q350.46875 341.6375 350.71875 342.16876Q350.98438 342.7 350.98438 343.34064Q350.98438 344.4344 350.28125 345.2Q349.59375 345.95 347.76562 345.95L345.5625 345.95L345.5625 349.45L344.42188 349.45ZM345.5625 344.95L347.78125 344.95Q348.89062 344.95 349.34375 344.54376Q349.8125 344.1219 349.8125 343.3719Q349.8125 342.84064 349.53125 342.46564Q349.26562 342.075 348.82812 341.95Q348.53125 341.8719 347.76562 341.8719L345.5625 341.8719L345.5625 344.95ZM358.0625 340.85626L359.20312 340.85626L359.20312 345.825Q359.20312 347.1219 358.90625 347.8875Q358.60938 348.6375 357.84375 349.1219Q357.07812 349.59064 355.84375 349.59064Q354.64062 349.59064 353.85938 349.1844Q353.09375 348.7625 352.76562 347.98126Q352.4375 347.1844 352.4375 345.825L352.4375 340.85626L353.57812 340.85626L353.57812 345.8094Q353.57812 346.9344 353.78125 347.46564Q354.0 347.9969 354.5 348.29376Q355.01562 348.575 355.75 348.575Q357.0 348.575 357.53125 348.0125Q358.0625 347.4344 358.0625 345.8094L358.0625 340.85626Z" fill-rule="nonzero"/><path fill="#000000" d="M28.612513 230.58958L29.534388 230.43333Q29.628138 230.88646 29.628138 231.23021Q29.628138 231.80833 29.456263 232.12083Q29.268763 232.43333 28.971888 232.57396Q28.675013 232.69896 27.721888 232.69896L24.143763 232.69896L24.143763 233.46458L23.331263 233.46458L23.331263 232.69896L21.784388 232.69896L21.159388 231.65208L23.331263 231.65208L23.331263 230.58958L24.143763 230.58958L24.143763 231.65208L27.784388 231.65208Q28.237513 231.65208 28.362513 231.60521Q28.487513 231.54271 28.565638 231.41771Q28.643763 231.29271 28.643763 231.05833Q28.643763 230.87083 28.612513 230.58958ZM26.440638 230.27708Q24.706263 230.27708 23.878138 229.32396Q23.190638 228.52708 23.190638 227.37083Q23.190638 226.08958 24.034388 225.27708Q24.862513 224.44896 26.346888 224.44896Q27.550013 224.44896 28.237513 224.80833Q28.925013 225.16771 29.315638 225.87083Q29.690638 226.55833 29.690638 227.37083Q29.690638 228.66771 28.862513 229.48021Q28.018763 230.27708 26.440638 230.27708ZM26.440638 229.19896Q27.628138 229.19896 28.221888 228.68333Q28.815638 228.15208 28.815638 227.37083Q28.815638 226.57396 28.221888 226.05833Q27.628138 225.54271 26.409388 225.54271Q25.253138 225.54271 24.659388 226.07396Q24.065638 226.58958 24.065638 227.37083Q24.065638 228.15208 24.659388 228.68333Q25.237513 229.19896 26.440638 229.19896ZM29.550013 222.88646L20.956263 222.88646L20.956263 221.82396L25.862513 221.82396L23.331263 219.33958L23.331263 217.96458L25.628138 220.35521L29.550013 217.73021L29.550013 219.02708L26.362513 221.08958L27.081263 221.82396L29.550013 221.82396L29.550013 222.88646ZM27.550013 212.63646L27.675013 211.54271Q28.628138 211.79271 29.159388 212.49583Q29.690638 213.19896 29.690638 214.27708Q29.690638 215.63646 28.846888 216.44896Q28.003138 217.24583 26.487513 217.24583Q24.925013 217.24583 24.065638 216.43333Q23.190638 215.62083 23.190638 214.33958Q23.190638 213.08958 24.034388 212.30833Q24.878138 211.51146 26.425013 211.51146Q26.518763 211.51146 26.706263 211.51146L26.706263 216.15208Q27.737513 216.08958 28.284388 215.57396Q28.815638 215.05833 28.815638 214.27708Q28.815638 213.69896 28.518763 213.29271Q28.206263 212.87083 27.550013 212.63646ZM25.846888 216.08958L25.846888 212.62083Q25.050013 212.68333 24.659388 213.01146Q24.050013 213.52708 24.050013 214.32396Q24.050013 215.05833 24.534388 215.55833Q25.018763 216.04271 25.846888 216.08958ZM29.550013 209.88646L23.331263 209.88646L23.331263 208.94896L24.206263 208.94896Q23.190638 208.26146 23.190638 206.96458Q23.190638 206.40208 23.393763 205.93333Q23.596888 205.44896 23.925013 205.21458Q24.253138 204.98021 24.690638 204.88646Q24.987513 204.83958 25.721888 204.83958L29.550013 204.83958L29.550013 205.88646L25.768763 205.88646Q25.112513 205.88646 24.800013 206.01146Q24.487513 206.13646 24.300013 206.44896Q24.096888 206.76146 24.096888 207.18333Q24.096888 207.85521 24.534388 208.35521Q24.956263 208.83958 26.143763 208.83958L29.550013 208.83958L29.550013 209.88646ZM30.065638 200.08958L30.221888 199.05833Q30.690638 198.99583 30.909388 198.69896Q31.206263 198.30833 31.206263 197.63646Q31.206263 196.90208 30.909388 196.51146Q30.612513 196.10521 30.096888 195.96458Q29.768763 195.87083 28.737513 195.88646Q29.550013 196.57396 29.550013 197.60521Q29.550013 198.88646 28.628138 199.58958Q27.690638 200.29271 26.409388 200.29271Q25.518763 200.29271 24.768763 199.98021Q24.003138 199.65208 23.596888 199.04271Q23.190638 198.43333 23.190638 197.60521Q23.190638 196.49583 24.081263 195.77708L23.331263 195.77708L23.331263 194.80833L28.706263 194.80833Q30.159388 194.80833 30.768763 195.10521Q31.378138 195.40208 31.721888 196.04271Q32.08126 196.68333 32.08126 197.62083Q32.08126 198.73021 31.581263 199.41771Q31.081263 200.10521 30.065638 200.08958ZM26.331263 199.21458Q27.550013 199.21458 28.112513 198.73021Q28.675013 198.24583 28.675013 197.51146Q28.675013 196.77708 28.112513 196.29271Q27.550013 195.79271 26.362513 195.79271Q25.221888 195.79271 24.643763 196.30833Q24.065638 196.80833 24.065638 197.52708Q24.065638 198.23021 24.643763 198.73021Q25.206263 199.21458 26.331263 199.21458ZM27.550013 188.63646L27.675013 187.54271Q28.628138 187.79271 29.159388 188.49583Q29.690638 189.19896 29.690638 190.27708Q29.690638 191.63646 28.846888 192.44896Q28.003138 193.24583 26.487513 193.24583Q24.925013 193.24583 24.065638 192.43333Q23.190638 191.62083 23.190638 190.33958Q23.190638 189.08958 24.034388 188.30833Q24.878138 187.51146 26.425013 187.51146Q26.518763 187.51146 26.706263 187.51146L26.706263 192.15208Q27.737513 192.08958 28.284388 191.57396Q28.815638 191.05833 28.815638 190.27708Q28.815638 189.69896 28.518763 189.29271Q28.206263 188.87083 27.550013 188.63646ZM25.846888 192.08958L25.846888 188.62083Q25.050013 188.68333 24.659388 189.01146Q24.050013 189.52708 24.050013 190.32396Q24.050013 191.05833 24.534388 191.55833Q25.018763 192.04271 25.846888 192.08958ZM29.550013 185.88646L23.331263 185.88646L23.331263 184.94896L24.206263 184.94896Q23.190638 184.26146 23.190638 182.96458Q23.190638 182.40208 23.393763 181.93333Q23.596888 181.44896 23.925013 181.21458Q24.253138 180.98021 24.690638 180.88646Q24.987513 180.83958 25.721888 180.83958L29.550013 180.83958L29.550013 181.88646L25.768763 181.88646Q25.112513 181.88646 24.800013 182.01146Q24.487513 182.13646 24.300013 182.44896Q24.096888 182.76146 24.096888 183.18333Q24.096888 183.85521 24.534388 184.35521Q24.956263 184.83958 26.143763 184.83958L29.550013 184.83958L29.550013 185.88646ZM27.550013 174.63646L27.675013 173.54271Q28.628138 173.79271 29.159388 174.49583Q29.690638 175.19896 29.690638 176.27708Q29.690638 177.63646 28.846888 178.44896Q28.003138 179.24583 26.487513 179.24583Q24.925013 179.24583 24.065638 178.43333Q23.190638 177.62083 23.190638 176.33958Q23.190638 175.08958 24.034388 174.30833Q24.878138 173.51146 26.425013 173.51146Q26.518763 173.51146 26.706263 173.51146L26.706263 178.15208Q27.737513 178.08958 28.284388 177.57396Q28.815638 177.05833 28.815638 176.27708Q28.815638 175.69896 28.518763 175.29271Q28.206263 174.87083 27.550013 174.63646ZM25.846888 178.08958L25.846888 174.62083Q25.050013 174.68333 24.659388 175.01146Q24.050013 175.52708 24.050013 176.32396Q24.050013 177.05833 24.534388 177.55833Q25.018763 178.04271 25.846888 178.08958ZM29.550013 171.90208L23.331263 171.90208L23.331263 170.94896L24.268763 170.94896Q23.612513 170.58958 23.409388 170.29271Q23.190638 169.98021 23.190638 169.60521Q23.190638 169.07396 23.518763 168.52708L24.503138 168.88646Q24.268763 169.27708 24.268763 169.65208Q24.268763 170.01146 24.487513 170.29271Q24.690638 170.55833 25.065638 170.66771Q25.628138 170.85521 26.284388 170.85521L29.550013 170.85521L29.550013 171.90208ZM28.784388 163.82396Q29.284388 164.41771 29.487513 164.96458Q29.690638 165.49583 29.690638 166.12083Q29.690638 167.15208 29.190638 167.69896Q28.690638 168.24583 27.909388 168.24583Q27.456263 168.24583 27.081263 168.04271Q26.690638 167.83958 26.471888 167.49583Q26.237513 167.15208 26.128138 166.73021Q26.034388 166.43333 25.956263 165.79271Q25.815638 164.52708 25.596888 163.91771Q25.378138 163.91771 25.331263 163.91771Q24.675013 163.91771 24.409388 164.21458Q24.065638 164.62083 24.065638 165.41771Q24.065638 166.15208 24.331263 166.51146Q24.581263 166.87083 25.237513 167.04271L25.096888 168.07396Q24.440638 167.93333 24.034388 167.60521Q23.628138 167.27708 23.409388 166.66771Q23.190638 166.05833 23.190638 165.26146Q23.190638 164.46458 23.378138 163.96458Q23.565638 163.46458 23.846888 163.23021Q24.128138 162.99583 24.565638 162.90208Q24.831263 162.85521 25.534388 162.85521L26.940638 162.85521Q28.409388 162.85521 28.800013 162.79271Q29.190638 162.71458 29.550013 162.51146L29.550013 163.62083Q29.221888 163.77708 28.784388 163.82396ZM26.425013 163.91771Q26.659388 164.49583 26.831263 165.63646Q26.925013 166.29271 27.050013 166.55833Q27.159388 166.82396 27.378138 166.98021Q27.596888 167.12083 27.878138 167.12083Q28.300013 167.12083 28.581263 166.80833Q28.862513 166.48021 28.862513 165.87083Q28.862513 165.26146 28.596888 164.79271Q28.331263 164.30833 27.862513 164.08958Q27.503138 163.91771 26.815638 163.91771L26.425013 163.91771ZM28.612513 158.58958L29.534388 158.43333Q29.628138 158.88646 29.628138 159.23021Q29.628138 159.80833 29.456263 160.12083Q29.268763 160.43333 28.971888 160.57396Q28.675013 160.69896 27.721888 160.69896L24.143763 160.69896L24.143763 161.46458L23.331263 161.46458L23.331263 160.69896L21.784388 160.69896L21.159388 159.65208L23.331263 159.65208L23.331263 158.58958L24.143763 158.58958L24.143763 159.65208L27.784388 159.65208Q28.237513 159.65208 28.362513 159.60521Q28.487513 159.54271 28.565638 159.41771Q28.643763 159.29271 28.643763 159.05833Q28.643763 158.87083 28.612513 158.58958ZM22.175013 157.88646L20.956263 157.88646L20.956263 156.82396L22.175013 156.82396L22.175013 157.88646ZM29.550013 157.88646L23.331263 157.88646L23.331263 156.82396L29.550013 156.82396L29.550013 157.88646ZM26.440638 155.27708Q24.706263 155.27708 23.878138 154.32396Q23.190638 153.52708 23.190638 152.37083Q23.190638 151.08958 24.034388 150.27708Q24.862513 149.44896 26.346888 149.44896Q27.550013 149.44896 28.237513 149.80833Q28.925013 150.16771 29.315638 150.87083Q29.690638 151.55833 29.690638 152.37083Q29.690638 153.66771 28.862513 154.48021Q28.018763 155.27708 26.440638 155.27708ZM26.440638 154.19896Q27.628138 154.19896 28.221888 153.68333Q28.815638 153.15208 28.815638 152.37083Q28.815638 151.57396 28.221888 151.05833Q27.628138 150.54271 26.409388 150.54271Q25.253138 150.54271 24.659388 151.07396Q24.065638 151.58958 24.065638 152.37083Q24.065638 153.15208 24.659388 153.68333Q25.237513 154.19896 26.440638 154.19896ZM29.550013 147.88646L23.331263 147.88646L23.331263 146.94896L24.206263 146.94896Q23.190638 146.26146 23.190638 144.96458Q23.190638 144.40208 23.393763 143.93333Q23.596888 143.44896 23.925013 143.21458Q24.253138 142.98021 24.690638 142.88646Q24.987513 142.83958 25.721888 142.83958L29.550013 142.83958L29.550013 143.88646L25.768763 143.88646Q25.112513 143.88646 24.800013 144.01146Q24.487513 144.13646 24.300013 144.44896Q24.096888 144.76146 24.096888 145.18333Q24.096888 145.85521 24.534388 146.35521Q24.956263 146.83958 26.143763 146.83958L29.550013 146.83958L29.550013 147.88646Z" fill-rule="nonzero"/><path fill="#000000" d="M65.05 300.21564Q65.05 298.6844 65.3625 297.7625Q65.675 296.825 66.28438 296.325Q66.90938 295.825 67.84688 295.825Q68.53438 295.825 69.05 296.10626Q69.58125 296.3875 69.925 296.91876Q70.26875 297.4344 70.45625 298.1844Q70.64375 298.9344 70.64375 300.21564Q70.64375 301.73126 70.33125 302.65314Q70.03438 303.575 69.40938 304.09064Q68.8 304.59064 67.84688 304.59064Q66.6125 304.59064 65.89375 303.7Q65.05 302.6375 65.05 300.21564ZM66.12813 300.21564Q66.12813 302.325 66.62813 303.02814Q67.12813 303.73126 67.84688 303.73126Q68.58125 303.73126 69.06563 303.02814Q69.56563 302.325 69.56563 300.21564Q69.56563 298.09064 69.06563 297.40314Q68.58125 296.7 67.83125 296.7Q67.1125 296.7 66.675 297.3094Q66.12813 298.09064 66.12813 300.21564Z" fill-rule="nonzero"/><path fill="#000000" d="M70.59688 223.92326L70.59688 224.93889L64.90938 224.93889Q64.90938 224.56389 65.03438 224.20451Q65.25313 223.62639 65.72188 223.06389Q66.20625 222.50139 67.1125 221.76701Q68.51875 220.61076 69.00313 219.93889Q69.50313 219.26701 69.50313 218.67326Q69.50313 218.04826 69.05 217.62639Q68.59688 217.18889 67.87813 217.18889Q67.1125 217.18889 66.65938 217.64201Q66.20625 218.09514 66.19063 218.90764L65.1125 218.79826Q65.22188 217.57951 65.94063 216.95451Q66.675 216.31389 67.90938 216.31389Q69.14375 216.31389 69.8625 217.00139Q70.58125 217.68889 70.58125 218.70451Q70.58125 219.22014 70.3625 219.72014Q70.15938 220.20451 69.65938 220.76701Q69.175 221.31389 68.05 222.26701Q67.09688 223.06389 66.81563 223.36076Q66.55 223.64201 66.37813 223.92326L70.59688 223.92326Z" fill-rule="nonzero"/><path fill="#000000" d="M68.425 145.42778L68.425 143.36528L64.70625 143.36528L64.70625 142.39653L68.62813 136.83403L69.4875 136.83403L69.4875 142.39653L70.64375 142.39653L70.64375 143.36528L69.4875 143.36528L69.4875 145.42778L68.425 145.42778ZM68.425 142.39653L68.425 138.53716L65.7375 142.39653L68.425 142.39653Z" fill-rule="nonzero"/><path fill="#000000" d="M70.51875 59.43229L69.47188 59.510414Q69.33125 58.885414 69.08125 58.604164Q68.64375 58.15104 68.01875 58.15104Q67.51875 58.15104 67.12813 58.43229Q66.64375 58.80729 66.34688 59.510414Q66.06563 60.197914 66.05 61.479164Q66.425 60.90104 66.97188 60.61979Q67.53438 60.33854 68.14375 60.33854Q69.19063 60.33854 69.925 61.11979Q70.675 61.90104 70.675 63.11979Q70.675 63.93229 70.31563 64.635414Q69.97188 65.322914 69.3625 65.697914Q68.75313 66.05729 67.9875 66.05729Q66.65938 66.05729 65.83125 65.08854Q65.00313 64.11979 65.00313 61.90104Q65.00313 59.40104 65.925 58.27604Q66.72188 57.291664 68.08125 57.291664Q69.09688 57.291664 69.7375 57.86979Q70.39375 58.43229 70.51875 59.43229ZM66.22188 63.135414Q66.22188 63.68229 66.44063 64.18229Q66.675 64.666664 67.08125 64.93229Q67.50313 65.197914 67.97188 65.197914Q68.62813 65.197914 69.1125 64.666664Q69.59688 64.11979 69.59688 63.197914Q69.59688 62.30729 69.1125 61.791664Q68.64375 61.27604 67.925 61.27604Q67.20625 61.27604 66.70625 61.791664Q66.22188 62.30729 66.22188 63.135414Z" fill-rule="nonzero"/><path fill="#000000" d="M81.36077 313.21564Q81.36077 311.6844 81.67327 310.7625Q81.98577 309.825 82.595146 309.325Q83.220146 308.825 84.157646 308.825Q84.845146 308.825 85.36077 309.10626Q85.89202 309.3875 86.23577 309.91876Q86.57952 310.4344 86.76702 311.1844Q86.95452 311.9344 86.95452 313.21564Q86.95452 314.73126 86.64202 315.65314Q86.345146 316.575 85.720146 317.09064Q85.11077 317.59064 84.157646 317.59064Q82.92327 317.59064 82.20452 316.7Q81.36077 315.6375 81.36077 313.21564ZM82.438896 313.21564Q82.438896 315.325 82.938896 316.02814Q83.438896 316.73126 84.157646 316.73126Q84.89202 316.73126 85.376396 316.02814Q85.876396 315.325 85.876396 313.21564Q85.876396 311.09064 85.376396 310.40314Q84.89202 309.7 84.14202 309.7Q83.42327 309.7 82.98577 310.3094Q82.438896 311.09064 82.438896 313.21564Z" fill-rule="nonzero"/><path fill="#000000" d="M172.15308 315.2L173.26245 315.10626Q173.38745 315.91876 173.82495 316.325Q174.27808 316.73126 174.9187 316.73126Q175.6687 316.73126 176.19995 316.15314Q176.7312 315.575 176.7312 314.6375Q176.7312 313.73126 176.21558 313.21564Q175.71558 312.6844 174.88745 312.6844Q174.38745 312.6844 173.96558 312.91876Q173.55933 313.15314 173.32495 313.5125L172.34058 313.3875L173.1687 308.98126L177.44995 308.98126L177.44995 309.98126L174.01245 309.98126L173.55933 312.29376Q174.32495 311.7469 175.1687 311.7469Q176.2937 311.7469 177.05933 312.52814Q177.84058 313.3094 177.84058 314.54376Q177.84058 315.7 177.1687 316.5594Q176.34058 317.59064 174.9187 317.59064Q173.74683 317.59064 172.99683 316.9344Q172.26245 316.27814 172.15308 315.2Z" fill-rule="nonzero"/><path fill="#000000" d="M263.41412 317.45L262.36725 317.45L262.36725 310.73126Q261.97662 311.09064 261.35162 311.46564Q260.74225 311.825 260.25787 311.9969L260.25787 310.98126Q261.13287 310.5594 261.78912 309.98126Q262.461 309.3875 262.74225 308.825L263.41412 308.825L263.41412 317.45ZM266.44537 313.21564Q266.44537 311.6844 266.75787 310.7625Q267.07037 309.825 267.67975 309.325Q268.30475 308.825 269.24225 308.825Q269.92975 308.825 270.44537 309.10626Q270.97662 309.3875 271.32037 309.91876Q271.66412 310.4344 271.85162 311.1844Q272.03912 311.9344 272.03912 313.21564Q272.03912 314.73126 271.72662 315.65314Q271.42975 316.575 270.80475 317.09064Q270.19537 317.59064 269.24225 317.59064Q268.00787 317.59064 267.28912 316.7Q266.44537 315.6375 266.44537 313.21564ZM267.5235 313.21564Q267.5235 315.325 268.0235 316.02814Q268.5235 316.73126 269.24225 316.73126Q269.97662 316.73126 270.461 316.02814Q270.961 315.325 270.961 313.21564Q270.961 311.09064 270.461 310.40314Q269.97662 309.7 269.22662 309.7Q268.50787 309.7 268.07037 310.3094Q267.5235 311.09064 267.5235 313.21564Z" fill-rule="nonzero"/><path fill="#000000" d="M354.20645 317.45L353.15958 317.45L353.15958 310.73126Q352.76895 311.09064 352.14395 311.46564Q351.53458 311.825 351.0502 311.9969L351.0502 310.98126Q351.9252 310.5594 352.58145 309.98126Q353.25333 309.3875 353.53458 308.825L354.20645 308.825L354.20645 317.45ZM357.2377 315.2L358.34708 315.10626Q358.47208 315.91876 358.90958 316.325Q359.3627 316.73126 360.00333 316.73126Q360.75333 316.73126 361.28458 316.15314Q361.81583 315.575 361.81583 314.6375Q361.81583 313.73126 361.3002 313.21564Q360.8002 312.6844 359.97208 312.6844Q359.47208 312.6844 359.0502 312.91876Q358.64395 313.15314 358.40958 313.5125L357.4252 313.3875L358.25333 308.98126L362.53458 308.98126L362.53458 309.98126L359.09708 309.98126L358.64395 312.29376Q359.40958 311.7469 360.25333 311.7469Q361.37833 311.7469 362.14395 312.52814Q362.9252 313.3094 362.9252 314.54376Q362.9252 315.7 362.25333 316.5594Q361.4252 317.59064 360.00333 317.59064Q358.83145 317.59064 358.08145 316.9344Q357.34708 316.27814 357.2377 315.2Z" fill-rule="nonzero"/><path fill="#000000" d="M446.57687 316.4344L446.57687 317.45L440.88937 317.45Q440.88937 317.075 441.01437 316.71564Q441.23312 316.1375 441.70187 315.575Q442.18625 315.0125 443.0925 314.27814Q444.49875 313.1219 444.98312 312.45Q445.48312 311.77814 445.48312 311.1844Q445.48312 310.5594 445.03 310.1375Q444.57687 309.7 443.85812 309.7Q443.0925 309.7 442.63937 310.15314Q442.18625 310.60626 442.17062 311.41876L441.0925 311.3094Q441.20187 310.09064 441.92062 309.46564Q442.655 308.825 443.88937 308.825Q445.12375 308.825 445.8425 309.5125Q446.56125 310.2 446.56125 311.21564Q446.56125 311.73126 446.3425 312.23126Q446.13937 312.71564 445.63937 313.27814Q445.155 313.825 444.03 314.77814Q443.07687 315.575 442.79562 315.8719Q442.53 316.15314 442.35812 316.4344L446.57687 316.4344ZM448.03 313.21564Q448.03 311.6844 448.3425 310.7625Q448.655 309.825 449.26437 309.325Q449.88937 308.825 450.82687 308.825Q451.51437 308.825 452.03 309.10626Q452.56125 309.3875 452.905 309.91876Q453.24875 310.4344 453.43625 311.1844Q453.62375 311.9344 453.62375 313.21564Q453.62375 314.73126 453.31125 315.65314Q453.01437 316.575 452.38937 317.09064Q451.78 317.59064 450.82687 317.59064Q449.5925 317.59064 448.87375 316.7Q448.03 315.6375 448.03 313.21564ZM449.10812 313.21564Q449.10812 315.325 449.60812 316.02814Q450.10812 316.73126 450.82687 316.73126Q451.56125 316.73126 452.04562 316.02814Q452.54562 315.325 452.54562 313.21564Q452.54562 311.09064 452.04562 310.40314Q451.56125 309.7 450.81125 309.7Q450.0925 309.7 449.655 310.3094Q449.10812 311.09064 449.10812 313.21564Z" fill-rule="nonzero"/><path fill="#000000" d="M537.3692 316.4344L537.3692 317.45L531.6817 317.45Q531.6817 317.075 531.8067 316.71564Q532.02545 316.1375 532.4942 315.575Q532.9786 315.0125 533.8848 314.27814Q535.2911 313.1219 535.77545 312.45Q536.27545 311.77814 536.27545 311.1844Q536.27545 310.5594 535.8223 310.1375Q535.3692 309.7 534.65045 309.7Q533.8848 309.7 533.4317 310.15314Q532.9786 310.60626 532.96295 311.41876L531.8848 311.3094Q531.9942 310.09064 532.71295 309.46564Q533.4473 308.825 534.6817 308.825Q535.9161 308.825 536.6348 309.5125Q537.3536 310.2 537.3536 311.21564Q537.3536 311.73126 537.1348 312.23126Q536.9317 312.71564 536.4317 313.27814Q535.9473 313.825 534.8223 314.77814Q533.8692 315.575 533.58795 315.8719Q533.3223 316.15314 533.15045 316.4344L537.3692 316.4344ZM538.8223 315.2L539.9317 315.10626Q540.0567 315.91876 540.4942 316.325Q540.9473 316.73126 541.58795 316.73126Q542.33795 316.73126 542.8692 316.15314Q543.40045 315.575 543.40045 314.6375Q543.40045 313.73126 542.8848 313.21564Q542.3848 312.6844 541.5567 312.6844Q541.0567 312.6844 540.6348 312.91876Q540.2286 313.15314 539.9942 313.5125L539.0098 313.3875L539.83795 308.98126L544.1192 308.98126L544.1192 309.98126L540.6817 309.98126L540.2286 312.29376Q540.9942 311.7469 541.83795 311.7469Q542.96295 311.7469 543.7286 312.52814Q544.5098 313.3094 544.5098 314.54376Q544.5098 315.7 543.83795 316.5594Q543.0098 317.59064 541.58795 317.59064Q540.4161 317.59064 539.6661 316.9344Q538.9317 316.27814 538.8223 315.2Z" fill-rule="nonzero"/><path fill="#757575" d="M23.70625 35.971874L23.95625 37.534374Q23.221874 37.690624 22.628124 37.690624Q21.675 37.690624 21.14375 37.39375Q20.628124 37.08125 20.409374 36.596874Q20.190624 36.096874 20.190624 34.51875L20.190624 28.55L18.909374 28.55L18.909374 27.175L20.190624 27.175L20.190624 24.6125L21.940624 23.55L21.940624 27.175L23.70625 27.175L23.70625 28.55L21.940624 28.55L21.940624 34.6125Q21.940624 35.3625 22.034374 35.58125Q22.128124 35.784374 22.33125 35.925Q22.55 36.05 22.940624 36.05Q23.221874 36.05 23.70625 35.971874ZM25.221874 32.3625Q25.221874 29.4875 26.815624 28.096874Q28.159374 26.940624 30.08125 26.940624Q32.221874 26.940624 33.565624 28.346874Q34.925 29.753124 34.925 32.221874Q34.925 34.221874 34.33125 35.378124Q33.7375 36.51875 32.58125 37.159374Q31.440624 37.784374 30.08125 37.784374Q27.89375 37.784374 26.55 36.39375Q25.221874 34.9875 25.221874 32.3625ZM27.01875 32.3625Q27.01875 34.3625 27.878124 35.346874Q28.753124 36.33125 30.08125 36.33125Q31.39375 36.33125 32.253124 35.346874Q33.128124 34.346874 33.128124 32.3Q33.128124 30.378124 32.253124 29.39375Q31.378124 28.39375 30.08125 28.39375Q28.753124 28.39375 27.878124 29.39375Q27.01875 30.378124 27.01875 32.3625ZM36.878124 37.55L36.878124 23.2375L38.64375 23.2375L38.64375 31.39375L42.8 27.175L45.065624 27.175L41.1125 31.01875L45.471874 37.55L43.3 37.55L39.878124 32.253124L38.64375 33.440624L38.64375 37.55L36.878124 37.55ZM53.971874 34.20625L55.784374 34.440624Q55.3625 36.01875 54.190624 36.909374Q53.034374 37.784374 51.221874 37.784374Q48.95625 37.784374 47.6125 36.39375Q46.284374 34.9875 46.284374 32.45625Q46.284374 29.83125 47.628124 28.39375Q48.971874 26.940624 51.128124 26.940624Q53.20625 26.940624 54.51875 28.3625Q55.846874 29.76875 55.846874 32.346874Q55.846874 32.503124 55.83125 32.815624L48.096874 32.815624Q48.190624 34.51875 49.065624 35.425Q49.940624 36.33125 51.2375 36.33125Q52.20625 36.33125 52.878124 35.83125Q53.565624 35.315624 53.971874 34.20625ZM48.190624 31.3625L53.9875 31.3625Q53.878124 30.065624 53.33125 29.409374Q52.4875 28.39375 51.14375 28.39375Q49.940624 28.39375 49.1125 29.20625Q48.284374 30.003124 48.190624 31.3625ZM57.8625 37.55L57.8625 27.175L59.45625 27.175L59.45625 28.659374Q60.596874 26.940624 62.753124 26.940624Q63.690624 26.940624 64.47188 27.284374Q65.26875 27.6125 65.65938 28.159374Q66.05 28.70625 66.20625 29.45625Q66.3 29.95625 66.3 31.175L66.3 37.55L64.53438 37.55L64.53438 31.2375Q64.53438 30.159374 64.33125 29.628124Q64.12813 29.096874 63.596874 28.784374Q63.08125 28.471874 62.378124 28.471874Q61.253124 28.471874 60.440624 29.190624Q59.628124 29.89375 59.628124 31.878124L59.628124 37.55L57.8625 37.55ZM73.55 38.409374L75.25313 38.659374Q75.3625 39.45625 75.84688 39.815624Q76.50313 40.3 77.64375 40.3Q78.8625 40.3 79.51875 39.815624Q80.19063 39.33125 80.425 38.45625Q80.56563 37.909374 80.55 36.190624Q79.39375 37.55 77.675 37.55Q75.53438 37.55 74.3625 36.003124Q73.19063 34.45625 73.19063 32.3Q73.19063 30.815624 73.72188 29.565624Q74.26875 28.315624 75.28438 27.628124Q76.31563 26.940624 77.69063 26.940624Q79.51875 26.940624 80.72188 28.425L80.72188 27.175L82.33125 27.175L82.33125 36.14375Q82.33125 38.565624 81.83125 39.565624Q81.34688 40.58125 80.26875 41.159374Q79.20625 41.753124 77.64375 41.753124Q75.8 41.753124 74.64375 40.925Q73.50313 40.096874 73.55 38.409374ZM75.00313 32.175Q75.00313 34.221874 75.81563 35.159374Q76.62813 36.096874 77.84688 36.096874Q79.05 36.096874 79.8625 35.159374Q80.69063 34.221874 80.69063 32.2375Q80.69063 30.33125 79.84688 29.3625Q79.00313 28.39375 77.81563 28.39375Q76.64375 28.39375 75.81563 29.346874Q75.00313 30.3 75.00313 32.175ZM91.97188 34.20625L93.78438 34.440624Q93.3625 36.01875 92.19063 36.909374Q91.03438 37.784374 89.22188 37.784374Q86.95625 37.784374 85.6125 36.39375Q84.28438 34.9875 84.28438 32.45625Q84.28438 29.83125 85.62813 28.39375Q86.97188 26.940624 89.12813 26.940624Q91.20625 26.940624 92.51875 28.3625Q93.84688 29.76875 93.84688 32.346874Q93.84688 32.503124 93.83125 32.815624L86.09688 32.815624Q86.19063 34.51875 87.06563 35.425Q87.94063 36.33125 89.2375 36.33125Q90.20625 36.33125 90.87813 35.83125Q91.56563 35.315624 91.97188 34.20625ZM86.19063 31.3625L91.9875 31.3625Q91.87813 30.065624 91.33125 29.409374Q90.4875 28.39375 89.14375 28.39375Q87.94063 28.39375 87.1125 29.20625Q86.28438 30.003124 86.19063 31.3625ZM95.8625 37.55L95.8625 27.175L97.45625 27.175L97.45625 28.659374Q98.59688 26.940624 100.75313 26.940624Q101.69063 26.940624 102.47188 27.284374Q103.26875 27.6125 103.65938 28.159374Q104.05 28.70625 104.20625 29.45625Q104.3 29.95625 104.3 31.175L104.3 37.55L102.53438 37.55L102.53438 31.2375Q102.53438 30.159374 102.33125 29.628124Q102.12813 29.096874 101.59688 28.784374Q101.08125 28.471874 100.37813 28.471874Q99.25313 28.471874 98.44063 29.190624Q97.62813 29.89375 97.62813 31.878124L97.62813 37.55L95.8625 37.55ZM112.97188 34.20625L114.78438 34.440624Q114.3625 36.01875 113.19063 36.909374Q112.03438 37.784374 110.22188 37.784374Q107.95625 37.784374 106.6125 36.39375Q105.28438 34.9875 105.28438 32.45625Q105.28438 29.83125 106.62813 28.39375Q107.97188 26.940624 110.12813 26.940624Q112.20625 26.940624 113.51875 28.3625Q114.84688 29.76875 114.84688 32.346874Q114.84688 32.503124 114.83125 32.815624L107.09688 32.815624Q107.19063 34.51875 108.06563 35.425Q108.94063 36.33125 110.2375 36.33125Q111.20625 36.33125 111.87813 35.83125Q112.56563 35.315624 112.97188 34.20625ZM107.19063 31.3625L112.9875 31.3625Q112.87813 30.065624 112.33125 29.409374Q111.4875 28.39375 110.14375 28.39375Q108.94063 28.39375 108.1125 29.20625Q107.28438 30.003124 107.19063 31.3625ZM116.84688 37.55L116.84688 27.175L118.425 27.175L118.425 28.753124Q119.03438 27.64375 119.55 27.3Q120.06563 26.940624 120.675 26.940624Q121.56563 26.940624 122.4875 27.503124L121.87813 29.14375Q121.2375 28.753124 120.59688 28.753124Q120.01875 28.753124 119.55 29.1125Q119.09688 29.45625 118.89375 30.065624Q118.6125 31.003124 118.6125 32.1125L118.6125 37.55L116.84688 37.55ZM130.64375 36.26875Q129.65938 37.096874 128.75313 37.440624Q127.84688 37.784374 126.81563 37.784374Q125.1125 37.784374 124.19063 36.95625Q123.26875 36.1125 123.26875 34.815624Q123.26875 34.05 123.6125 33.425Q123.97188 32.8 124.53438 32.425Q125.09688 32.034374 125.8 31.83125Q126.31563 31.70625 127.3625 31.565624Q129.4875 31.315624 130.4875 30.971874Q130.50313 30.6125 130.50313 30.503124Q130.50313 29.440624 130.00313 28.9875Q129.33125 28.39375 128.00313 28.39375Q126.75313 28.39375 126.15938 28.83125Q125.58125 29.26875 125.3 30.378124L123.58125 30.14375Q123.81563 29.034374 124.34688 28.3625Q124.87813 27.675 125.89375 27.315624Q126.90938 26.940624 128.25313 26.940624Q129.58125 26.940624 130.40938 27.253124Q131.2375 27.565624 131.62813 28.05Q132.01875 28.51875 132.175 29.2375Q132.26875 29.690624 132.26875 30.8625L132.26875 33.20625Q132.26875 35.659374 132.37813 36.315624Q132.4875 36.95625 132.83125 37.55L130.9875 37.55Q130.72188 37.003124 130.64375 36.26875ZM130.4875 32.346874Q129.53438 32.7375 127.6125 33.003124Q126.53438 33.159374 126.08125 33.3625Q125.64375 33.55 125.39375 33.925Q125.14375 34.3 125.14375 34.76875Q125.14375 35.471874 125.675 35.940624Q126.20625 36.409374 127.2375 36.409374Q128.25313 36.409374 129.03438 35.971874Q129.83125 35.51875 130.20625 34.753124Q130.4875 34.14375 130.4875 32.9875L130.4875 32.346874ZM138.70625 35.971874L138.95625 37.534374Q138.22188 37.690624 137.62813 37.690624Q136.675 37.690624 136.14375 37.39375Q135.62813 37.08125 135.40938 36.596874Q135.19063 36.096874 135.19063 34.51875L135.19063 28.55L133.90938 28.55L133.90938 27.175L135.19063 27.175L135.19063 24.6125L136.94063 23.55L136.94063 27.175L138.70625 27.175L138.70625 28.55L136.94063 28.55L136.94063 34.6125Q136.94063 35.3625 137.03438 35.58125Q137.12813 35.784374 137.33125 35.925Q137.55 36.05 137.94063 36.05Q138.22188 36.05 138.70625 35.971874ZM140.87813 25.253124L140.87813 23.2375L142.64375 23.2375L142.64375 25.253124L140.87813 25.253124ZM140.87813 37.55L140.87813 27.175L142.64375 27.175L142.64375 37.55L140.87813 37.55ZM144.22188 32.3625Q144.22188 29.4875 145.81563 28.096874Q147.15938 26.940624 149.08125 26.940624Q151.22188 26.940624 152.56563 28.346874Q153.925 29.753124 153.925 32.221874Q153.925 34.221874 153.33125 35.378124Q152.7375 36.51875 151.58125 37.159374Q150.44063 37.784374 149.08125 37.784374Q146.89375 37.784374 145.55 36.39375Q144.22188 34.9875 144.22188 32.3625ZM146.01875 32.3625Q146.01875 34.3625 146.87813 35.346874Q147.75313 36.33125 149.08125 36.33125Q150.39375 36.33125 151.25313 35.346874Q152.12813 34.346874 152.12813 32.3Q152.12813 30.378124 151.25313 29.39375Q150.37813 28.39375 149.08125 28.39375Q147.75313 28.39375 146.87813 29.39375Q146.01875 30.378124 146.01875 32.3625ZM155.8625 37.55L155.8625 27.175L157.45625 27.175L157.45625 28.659374Q158.59688 26.940624 160.75313 26.940624Q161.69063 26.940624 162.47188 27.284374Q163.26875 27.6125 163.65938 28.159374Q164.05 28.70625 164.20625 29.45625Q164.3 29.95625 164.3 31.175L164.3 37.55L162.53438 37.55L162.53438 31.2375Q162.53438 30.159374 162.33125 29.628124Q162.12813 29.096874 161.59688 28.784374Q161.08125 28.471874 160.37813 28.471874Q159.25313 28.471874 158.44063 29.190624Q157.62813 29.89375 157.62813 31.878124L157.62813 37.55L155.8625 37.55ZM174.75313 37.55L170.8 27.175L172.65938 27.175L174.89375 33.39375Q175.25313 34.39375 175.55 35.471874Q175.78438 34.659374 176.20625 33.503124L178.50313 27.175L180.31563 27.175L176.39375 37.55L174.75313 37.55ZM180.15938 34.45625L181.90938 34.175Q182.05 35.221874 182.72188 35.784374Q183.39375 36.33125 184.59688 36.33125Q185.8 36.33125 186.37813 35.846874Q186.97188 35.346874 186.97188 34.690624Q186.97188 34.096874 186.45625 33.753124Q186.09688 33.51875 184.65938 33.159374Q182.72188 32.659374 181.97188 32.315624Q181.2375 31.95625 180.84688 31.33125Q180.45625 30.690624 180.45625 29.925Q180.45625 29.2375 180.76875 28.64375Q181.09688 28.05 181.64375 27.659374Q182.05 27.3625 182.75313 27.159374Q183.47188 26.940624 184.28438 26.940624Q185.50313 26.940624 186.425 27.3Q187.34688 27.64375 187.78438 28.253124Q188.22188 28.846874 188.39375 29.846874L186.675 30.08125Q186.55 29.284374 185.9875 28.846874Q185.425 28.39375 184.40938 28.39375Q183.19063 28.39375 182.675 28.8Q182.15938 29.190624 182.15938 29.721874Q182.15938 30.065624 182.37813 30.346874Q182.58125 30.628124 183.05 30.815624Q183.31563 30.909374 184.59688 31.253124Q186.47188 31.753124 187.20625 32.08125Q187.94063 32.39375 188.3625 33.003124Q188.78438 33.596874 188.78438 34.503124Q188.78438 35.378124 188.26875 36.159374Q187.75313 36.940624 186.78438 37.3625Q185.81563 37.784374 184.59688 37.784374Q182.58125 37.784374 181.51875 36.940624Q180.45625 36.096874 180.15938 34.45625ZM196.83125 37.55L196.83125 23.2375L198.58125 23.2375L198.58125 37.55L196.83125 37.55ZM207.64375 36.26875Q206.65938 37.096874 205.75313 37.440624Q204.84688 37.784374 203.81563 37.784374Q202.1125 37.784374 201.19063 36.95625Q200.26875 36.1125 200.26875 34.815624Q200.26875 34.05 200.6125 33.425Q200.97188 32.8 201.53438 32.425Q202.09688 32.034374 202.8 31.83125Q203.31563 31.70625 204.3625 31.565624Q206.4875 31.315624 207.4875 30.971874Q207.50313 30.6125 207.50313 30.503124Q207.50313 29.440624 207.00313 28.9875Q206.33125 28.39375 205.00313 28.39375Q203.75313 28.39375 203.15938 28.83125Q202.58125 29.26875 202.3 30.378124L200.58125 30.14375Q200.81563 29.034374 201.34688 28.3625Q201.87813 27.675 202.89375 27.315624Q203.90938 26.940624 205.25313 26.940624Q206.58125 26.940624 207.40938 27.253124Q208.2375 27.565624 208.62813 28.05Q209.01875 28.51875 209.175 29.2375Q209.26875 29.690624 209.26875 30.8625L209.26875 33.20625Q209.26875 35.659374 209.37813 36.315624Q209.4875 36.95625 209.83125 37.55L207.9875 37.55Q207.72188 37.003124 207.64375 36.26875ZM207.4875 32.346874Q206.53438 32.7375 204.6125 33.003124Q203.53438 33.159374 203.08125 33.3625Q202.64375 33.55 202.39375 33.925Q202.14375 34.3 202.14375 34.76875Q202.14375 35.471874 202.675 35.940624Q203.20625 36.409374 204.2375 36.409374Q205.25313 36.409374 206.03438 35.971874Q206.83125 35.51875 207.20625 34.753124Q207.4875 34.14375 207.4875 32.9875L207.4875 32.346874ZM211.78438 41.55L211.59688 39.89375Q212.175 40.05 212.59688 40.05Q213.19063 40.05 213.53438 39.846874Q213.89375 39.659374 214.1125 39.315624Q214.28438 39.05 214.65938 38.003124Q214.70625 37.846874 214.81563 37.565624L210.87813 27.175L212.76875 27.175L214.925 33.190624Q215.34688 34.33125 215.675 35.58125Q215.9875 34.378124 216.39375 33.221874L218.6125 27.175L220.37813 27.175L216.425 37.721874Q215.8 39.440624 215.44063 40.08125Q214.97188 40.95625 214.3625 41.346874Q213.76875 41.753124 212.925 41.753124Q212.40938 41.753124 211.78438 41.55ZM228.97188 34.20625L230.78438 34.440624Q230.3625 36.01875 229.19063 36.909374Q228.03438 37.784374 226.22188 37.784374Q223.95625 37.784374 222.6125 36.39375Q221.28438 34.9875 221.28438 32.45625Q221.28438 29.83125 222.62813 28.39375Q223.97188 26.940624 226.12813 26.940624Q228.20625 26.940624 229.51875 28.3625Q230.84688 29.76875 230.84688 32.346874Q230.84688 32.503124 230.83125 32.815624L223.09688 32.815624Q223.19063 34.51875 224.06563 35.425Q224.94063 36.33125 226.2375 36.33125Q227.20625 36.33125 227.87813 35.83125Q228.56563 35.315624 228.97188 34.20625ZM223.19063 31.3625L228.9875 31.3625Q228.87813 30.065624 228.33125 29.409374Q227.4875 28.39375 226.14375 28.39375Q224.94063 28.39375 224.1125 29.20625Q223.28438 30.003124 223.19063 31.3625ZM232.84688 37.55L232.84688 27.175L234.425 27.175L234.425 28.753124Q235.03438 27.64375 235.55 27.3Q236.06563 26.940624 236.675 26.940624Q237.56563 26.940624 238.4875 27.503124L237.87813 29.14375Q237.2375 28.753124 236.59688 28.753124Q236.01875 28.753124 235.55 29.1125Q235.09688 29.45625 234.89375 30.065624Q234.6125 31.003124 234.6125 32.1125L234.6125 37.55L232.84688 37.55ZM239.15938 34.45625L240.90938 34.175Q241.05 35.221874 241.72188 35.784374Q242.39375 36.33125 243.59688 36.33125Q244.8 36.33125 245.37813 35.846874Q245.97188 35.346874 245.97188 34.690624Q245.97188 34.096874 245.45625 33.753124Q245.09688 33.51875 243.65938 33.159374Q241.72188 32.659374 240.97188 32.315624Q240.2375 31.95625 239.84688 31.33125Q239.45625 30.690624 239.45625 29.925Q239.45625 29.2375 239.76875 28.64375Q240.09688 28.05 240.64375 27.659374Q241.05 27.3625 241.75313 27.159374Q242.47188 26.940624 243.28438 26.940624Q244.50313 26.940624 245.425 27.3Q246.34688 27.64375 246.78438 28.253124Q247.22188 28.846874 247.39375 29.846874L245.675 30.08125Q245.55 29.284374 244.9875 28.846874Q244.425 28.39375 243.40938 28.39375Q242.19063 28.39375 241.675 28.8Q241.15938 29.190624 241.15938 29.721874Q241.15938 30.065624 241.37813 30.346874Q241.58125 30.628124 242.05 30.815624Q242.31563 30.909374 243.59688 31.253124Q245.47188 31.753124 246.20625 32.08125Q246.94063 32.39375 247.3625 33.003124Q247.78438 33.596874 247.78438 34.503124Q247.78438 35.378124 247.26875 36.159374Q246.75313 36.940624 245.78438 37.3625Q244.81563 37.784374 243.59688 37.784374Q241.58125 37.784374 240.51875 36.940624Q239.45625 36.096874 239.15938 34.45625ZM262.8 31.940624L262.8 30.253124L268.8625 30.2375L268.8625 35.55Q267.45624 36.675 265.97186 37.2375Q264.4875 37.8 262.925 37.8Q260.8156 37.8 259.09686 36.89375Q257.3781 35.9875 256.4875 34.284374Q255.6125 32.565624 255.6125 30.45625Q255.6125 28.3625 256.4875 26.565624Q257.3625 24.753124 259.0031 23.878124Q260.64374 22.9875 262.78436 22.9875Q264.33124 22.9875 265.58124 23.4875Q266.84686 23.9875 267.55 24.89375Q268.26874 25.784374 268.64374 27.2375L266.9406 27.70625Q266.6125 26.6125 266.1281 25.9875Q265.65936 25.3625 264.76874 24.9875Q263.8781 24.6125 262.8 24.6125Q261.4875 24.6125 260.53436 25.003124Q259.59686 25.39375 259.01874 26.05Q258.4406 26.690624 258.1125 27.45625Q257.5656 28.784374 257.5656 30.346874Q257.5656 32.253124 258.22186 33.55Q258.89374 34.83125 260.14374 35.45625Q261.40936 36.08125 262.8156 36.08125Q264.05 36.08125 265.22186 35.6125Q266.39374 35.14375 267.0031 34.596874L267.0031 31.940624L262.8 31.940624ZM272.09686 37.55L272.09686 23.2375L277.4875 23.2375Q278.925 23.2375 279.675 23.3625Q280.72186 23.55 281.4406 24.05Q282.15936 24.534374 282.58124 25.425Q283.01874 26.315624 283.01874 27.378124Q283.01874 29.20625 281.84686 30.471874Q280.6906 31.721874 277.65936 31.721874L273.9875 31.721874L273.9875 37.55L272.09686 37.55ZM273.9875 30.034374L277.6906 30.034374Q279.51874 30.034374 280.28436 29.3625Q281.0656 28.675 281.0656 27.425Q281.0656 26.534374 280.6125 25.89375Q280.15936 25.253124 279.425 25.05Q278.9406 24.925 277.64374 24.925L273.9875 24.925L273.9875 30.034374ZM294.4875 23.2375L296.3781 23.2375L296.3781 31.503124Q296.3781 33.659374 295.89374 34.940624Q295.40936 36.20625 294.1281 37.003124Q292.8625 37.8 290.78436 37.8Q288.76874 37.8 287.4875 37.1125Q286.22186 36.409374 285.675 35.096874Q285.1281 33.784374 285.1281 31.503124L285.1281 23.2375L287.01874 23.2375L287.01874 31.4875Q287.01874 33.3625 287.3625 34.253124Q287.70624 35.128124 288.55 35.6125Q289.39374 36.08125 290.6281 36.08125Q292.70624 36.08125 293.59686 35.14375Q294.4875 34.190624 294.4875 31.4875L294.4875 23.2375Z" fill-rule="nonzero"/></svg>